%FSLAX25Y25*%
%MOIN*%
G70*
G01*
G75*
G04 Layer_Physical_Order=2*
G04 Layer_Color=16711680*
%ADD10C,0.01000*%
%ADD11C,0.00800*%
%ADD12C,0.01200*%
%ADD13C,0.01500*%
%ADD14C,0.03000*%
%ADD15R,0.03150X0.02756*%
%ADD16R,0.02756X0.03150*%
%ADD17R,0.05118X0.05906*%
%ADD18R,0.03937X0.03937*%
%ADD19O,0.01181X0.08268*%
%ADD20O,0.08268X0.01181*%
%ADD21R,0.02362X0.03150*%
%ADD22R,0.05433X0.01772*%
%ADD23R,0.08268X0.05906*%
%ADD24R,0.07480X0.04626*%
%ADD25R,0.07480X0.09350*%
%ADD26R,0.03150X0.02362*%
%ADD27R,0.06102X0.02362*%
%ADD28R,0.07087X0.04724*%
%ADD29R,0.03543X0.03150*%
%ADD30R,0.05512X0.04331*%
%ADD31R,0.03543X0.02559*%
%ADD32R,0.05906X0.02362*%
%ADD33R,0.03543X0.03937*%
%ADD34R,0.01772X0.05512*%
%ADD35R,0.01772X0.05512*%
%ADD36R,0.01772X0.05512*%
%ADD37R,0.02800X0.01375*%
%ADD38R,0.01375X0.02800*%
%ADD39R,0.03150X0.04000*%
%ADD40R,0.01575X0.07677*%
%ADD41R,0.04331X0.02362*%
%ADD42C,0.02000*%
%ADD43C,0.07400*%
G04:AMPARAMS|DCode=44|XSize=74mil|YSize=74mil|CornerRadius=18.5mil|HoleSize=0mil|Usage=FLASHONLY|Rotation=90.000|XOffset=0mil|YOffset=0mil|HoleType=Round|Shape=RoundedRectangle|*
%AMROUNDEDRECTD44*
21,1,0.07400,0.03700,0,0,90.0*
21,1,0.03700,0.07400,0,0,90.0*
1,1,0.03700,0.01850,0.01850*
1,1,0.03700,0.01850,-0.01850*
1,1,0.03700,-0.01850,-0.01850*
1,1,0.03700,-0.01850,0.01850*
%
%ADD44ROUNDEDRECTD44*%
%ADD45C,0.11417*%
G04:AMPARAMS|DCode=46|XSize=74mil|YSize=74mil|CornerRadius=18.5mil|HoleSize=0mil|Usage=FLASHONLY|Rotation=0.000|XOffset=0mil|YOffset=0mil|HoleType=Round|Shape=RoundedRectangle|*
%AMROUNDEDRECTD46*
21,1,0.07400,0.03700,0,0,0.0*
21,1,0.03700,0.07400,0,0,0.0*
1,1,0.03700,0.01850,-0.01850*
1,1,0.03700,-0.01850,-0.01850*
1,1,0.03700,-0.01850,0.01850*
1,1,0.03700,0.01850,0.01850*
%
%ADD46ROUNDEDRECTD46*%
%ADD47C,0.02800*%
%ADD48C,0.03100*%
%ADD49R,0.02362X0.06102*%
%ADD50R,0.04724X0.07087*%
G36*
X12822Y50518D02*
X14628Y49970D01*
X16293Y49080D01*
X17752Y47882D01*
X18950Y46423D01*
X19840Y44758D01*
X20388Y42952D01*
X20573Y41073D01*
X20388Y39195D01*
X19840Y37388D01*
X18950Y35724D01*
X17752Y34264D01*
X16293Y33067D01*
X14628Y32177D01*
X13408Y31807D01*
X10900D01*
X10808Y31789D01*
X9121Y31955D01*
X7410Y32474D01*
X5833Y33316D01*
X4451Y34451D01*
X3317Y35833D01*
X2474Y37410D01*
X1955Y39121D01*
X1788Y40808D01*
X1807Y40900D01*
Y43966D01*
X2047Y44758D01*
X2937Y46423D01*
X4134Y47882D01*
X5594Y49080D01*
X7258Y49970D01*
X9065Y50518D01*
X10943Y50703D01*
X12822Y50518D01*
D02*
G37*
G36*
X10900Y140072D02*
X10900D01*
Y140072D01*
X10900Y140072D01*
X122855D01*
X123028Y139603D01*
X122697Y139320D01*
X121508Y137928D01*
X120552Y136368D01*
X119852Y134677D01*
X119424Y132898D01*
X119281Y131073D01*
X119424Y129249D01*
X119852Y127469D01*
X120552Y125778D01*
X121508Y124218D01*
X122697Y122827D01*
X124088Y121638D01*
X125649Y120682D01*
X127339Y119981D01*
X129119Y119554D01*
X130943Y119411D01*
X132768Y119554D01*
X134547Y119981D01*
X136238Y120682D01*
X137799Y121638D01*
X139190Y122827D01*
X139603Y123310D01*
X140072Y123137D01*
Y114895D01*
X139624Y114674D01*
X138622Y115442D01*
X137357Y115966D01*
X136400Y116092D01*
Y110899D01*
X135600D01*
Y116092D01*
X134643Y115966D01*
X133378Y115442D01*
X132291Y114609D01*
X131458Y113523D01*
X131250Y113021D01*
X130750D01*
X130542Y113523D01*
X129709Y114609D01*
X128622Y115442D01*
X127357Y115966D01*
X126000Y116145D01*
X124643Y115966D01*
X123378Y115442D01*
X122291Y114609D01*
X121584Y113687D01*
X121489Y113674D01*
X121071Y113729D01*
X120776Y114440D01*
X120239Y115139D01*
X119539Y115676D01*
X118725Y116014D01*
X117850Y116129D01*
X114150D01*
X113276Y116014D01*
X112460Y115676D01*
X111761Y115139D01*
X111224Y114440D01*
X110886Y113625D01*
X110771Y112750D01*
Y109050D01*
X110886Y108176D01*
X111224Y107361D01*
X111761Y106661D01*
X112426Y106150D01*
Y105650D01*
X111761Y105140D01*
X111224Y104440D01*
X110886Y103625D01*
X110771Y102750D01*
Y99050D01*
X110886Y98176D01*
X111224Y97361D01*
X111761Y96661D01*
X112426Y96150D01*
Y95650D01*
X111761Y95139D01*
X111224Y94440D01*
X110886Y93625D01*
X110771Y92750D01*
Y89050D01*
X110886Y88176D01*
X111224Y87361D01*
X111761Y86661D01*
X112426Y86150D01*
Y85650D01*
X111761Y85139D01*
X111224Y84440D01*
X110886Y83625D01*
X110771Y82750D01*
Y79050D01*
X110886Y78176D01*
X111224Y77361D01*
X111761Y76661D01*
X112426Y76150D01*
Y75650D01*
X111761Y75139D01*
X111224Y74440D01*
X110886Y73625D01*
X110771Y72750D01*
Y69050D01*
X110886Y68176D01*
X111224Y67361D01*
X111761Y66661D01*
X112426Y66150D01*
Y65650D01*
X111761Y65139D01*
X111224Y64440D01*
X110886Y63625D01*
X110771Y62750D01*
Y59050D01*
X110886Y58176D01*
X111224Y57361D01*
X111761Y56661D01*
X112461Y56124D01*
X113276Y55786D01*
X114150Y55671D01*
X117148D01*
X117294Y55193D01*
X116702Y54798D01*
X109740Y47835D01*
X83713D01*
X83358Y48072D01*
X82500Y48243D01*
X81642Y48072D01*
X81287Y47835D01*
X43760D01*
X39347Y52249D01*
X39214Y52917D01*
X38694Y53694D01*
X37917Y54214D01*
X37000Y54396D01*
X36083Y54214D01*
X35306Y53694D01*
X34786Y52917D01*
X34604Y52000D01*
X34786Y51083D01*
X35306Y50306D01*
X36083Y49786D01*
X36751Y49654D01*
X41702Y44702D01*
X42298Y44304D01*
X42414Y44281D01*
X43000Y44165D01*
X81287D01*
X81642Y43928D01*
X82500Y43757D01*
X83358Y43928D01*
X83713Y44165D01*
X110500D01*
X111086Y44281D01*
X111202Y44304D01*
X111798Y44702D01*
X118760Y51665D01*
X122000D01*
X122586Y51781D01*
X122702Y51804D01*
X123298Y52202D01*
X126865Y55769D01*
X127358Y55834D01*
X128623Y56358D01*
X129709Y57191D01*
X130542Y58278D01*
X130750Y58779D01*
X131250D01*
X131458Y58278D01*
X132291Y57191D01*
X133378Y56358D01*
X134643Y55834D01*
X135600Y55708D01*
Y60901D01*
X136400D01*
Y55708D01*
X137358Y55834D01*
X138623Y56358D01*
X139624Y57126D01*
X140072Y56905D01*
Y49010D01*
X139603Y48836D01*
X139190Y49320D01*
X137799Y50509D01*
X136238Y51465D01*
X134547Y52165D01*
X132768Y52592D01*
X130943Y52736D01*
X129119Y52592D01*
X127339Y52165D01*
X125649Y51465D01*
X124088Y50509D01*
X122697Y49320D01*
X121508Y47929D01*
X120552Y46368D01*
X119852Y44677D01*
X119424Y42898D01*
X119281Y41073D01*
X119424Y39249D01*
X119852Y37469D01*
X120552Y35778D01*
X121508Y34218D01*
X122697Y32827D01*
X123342Y32276D01*
X123168Y31807D01*
X18718D01*
X18545Y32276D01*
X19190Y32827D01*
X20379Y34218D01*
X21335Y35778D01*
X22035Y37469D01*
X22463Y39249D01*
X22606Y41073D01*
X22463Y42898D01*
X22035Y44677D01*
X21335Y46368D01*
X20379Y47929D01*
X19190Y49320D01*
X17799Y50509D01*
X16238Y51465D01*
X14547Y52165D01*
X12768Y52592D01*
X10943Y52736D01*
X9119Y52592D01*
X7339Y52165D01*
X5649Y51465D01*
X4088Y50509D01*
X2697Y49320D01*
X2276Y48827D01*
X1807Y49000D01*
Y130979D01*
X1788Y131071D01*
X1955Y132758D01*
X2474Y134469D01*
X3317Y136046D01*
X4451Y137428D01*
X5833Y138562D01*
X7410Y139405D01*
X9121Y139924D01*
X10809Y140091D01*
X10900Y140072D01*
D02*
G37*
G36*
X132758Y139924D02*
X134469Y139405D01*
X136046Y138562D01*
X137428Y137428D01*
X138562Y136046D01*
X139405Y134469D01*
X139924Y132758D01*
X140091Y131070D01*
X140072Y130979D01*
X140072D01*
X140072Y130979D01*
Y128155D01*
X139840Y127388D01*
X138950Y125724D01*
X137752Y124264D01*
X136293Y123067D01*
X134628Y122177D01*
X132822Y121629D01*
X130943Y121444D01*
X129065Y121629D01*
X127258Y122177D01*
X125594Y123067D01*
X124134Y124264D01*
X122937Y125724D01*
X122047Y127388D01*
X121499Y129195D01*
X121314Y131073D01*
X121499Y132952D01*
X122047Y134758D01*
X122937Y136423D01*
X124134Y137882D01*
X125594Y139080D01*
X127258Y139970D01*
X127597Y140072D01*
X130979D01*
X130979Y140072D01*
Y140072D01*
X131070Y140091D01*
X132758Y139924D01*
D02*
G37*
G36*
X132822Y50518D02*
X134628Y49970D01*
X136293Y49080D01*
X137752Y47882D01*
X138950Y46423D01*
X139840Y44758D01*
X140072Y43992D01*
Y40900D01*
Y40900D01*
X140072Y40900D01*
X140072D01*
X140091Y40809D01*
X139924Y39121D01*
X139405Y37410D01*
X138562Y35833D01*
X137428Y34451D01*
X136046Y33316D01*
X134469Y32474D01*
X132758Y31955D01*
X131071Y31789D01*
X130979Y31807D01*
X128479D01*
X127258Y32177D01*
X125594Y33067D01*
X124134Y34264D01*
X122937Y35724D01*
X122047Y37388D01*
X121499Y39195D01*
X121314Y41073D01*
X121499Y42952D01*
X122047Y44758D01*
X122937Y46423D01*
X124134Y47882D01*
X125594Y49080D01*
X127258Y49970D01*
X129065Y50518D01*
X130943Y50703D01*
X132822Y50518D01*
D02*
G37*
%LPC*%
G36*
X92498Y76245D02*
X91639Y76075D01*
X90912Y75589D01*
X90425Y74861D01*
X90254Y74002D01*
X90425Y73144D01*
X90912Y72416D01*
X91639Y71930D01*
X92498Y71759D01*
X92925Y71844D01*
X94776Y69993D01*
Y56085D01*
X94414Y55843D01*
X93928Y55115D01*
X93757Y54257D01*
X93928Y53399D01*
X94414Y52671D01*
X95142Y52185D01*
X96000Y52014D01*
X96858Y52185D01*
X97586Y52671D01*
X98072Y53399D01*
X98243Y54257D01*
X98072Y55115D01*
X97586Y55843D01*
X97224Y56085D01*
Y70500D01*
X97130Y70968D01*
X96865Y71365D01*
X94656Y73575D01*
X94741Y74002D01*
X94570Y74861D01*
X94084Y75589D01*
X93356Y76075D01*
X92498Y76245D01*
D02*
G37*
G36*
X92500Y43245D02*
X91142Y43066D01*
X89878Y42542D01*
X88791Y41709D01*
X87958Y40622D01*
X87750Y40121D01*
X87250D01*
X87042Y40622D01*
X86209Y41709D01*
X85122Y42542D01*
X83858Y43066D01*
X82500Y43245D01*
X81142Y43066D01*
X79878Y42542D01*
X78791Y41709D01*
X77958Y40622D01*
X77750Y40121D01*
X77250D01*
X77042Y40622D01*
X76209Y41709D01*
X75122Y42542D01*
X73857Y43066D01*
X72900Y43192D01*
Y37999D01*
Y32808D01*
X73857Y32934D01*
X75122Y33458D01*
X76209Y34291D01*
X77042Y35378D01*
X77250Y35879D01*
X77750D01*
X77958Y35378D01*
X78791Y34291D01*
X79878Y33458D01*
X81142Y32934D01*
X82500Y32755D01*
X83858Y32934D01*
X85122Y33458D01*
X86209Y34291D01*
X87042Y35378D01*
X87250Y35879D01*
X87750D01*
X87958Y35378D01*
X88791Y34291D01*
X89878Y33458D01*
X91142Y32934D01*
X92500Y32755D01*
X93858Y32934D01*
X95122Y33458D01*
X96209Y34291D01*
X96916Y35214D01*
X97011Y35226D01*
X97430Y35171D01*
X97724Y34460D01*
X98261Y33761D01*
X98961Y33224D01*
X99775Y32886D01*
X100650Y32771D01*
X104350D01*
X105225Y32886D01*
X106040Y33224D01*
X106739Y33761D01*
X107276Y34460D01*
X107614Y35276D01*
X107729Y36150D01*
Y39850D01*
X107614Y40725D01*
X107276Y41539D01*
X106739Y42239D01*
X106040Y42776D01*
X105225Y43114D01*
X104350Y43229D01*
X100650D01*
X99775Y43114D01*
X98961Y42776D01*
X98261Y42239D01*
X97724Y41539D01*
X97430Y40829D01*
X97011Y40774D01*
X96916Y40786D01*
X96209Y41709D01*
X95122Y42542D01*
X93858Y43066D01*
X92500Y43245D01*
D02*
G37*
G36*
X28500Y65243D02*
X27642Y65072D01*
X26914Y64586D01*
X26428Y63858D01*
X26257Y63000D01*
X26428Y62142D01*
X26914Y61414D01*
X27642Y60928D01*
X28500Y60757D01*
X28507Y60758D01*
X32383Y56883D01*
X32895Y56540D01*
X33500Y56420D01*
X42410D01*
X42414Y56414D01*
X43142Y55928D01*
X44000Y55757D01*
X44859Y55928D01*
X45586Y56414D01*
X46073Y57142D01*
X46243Y58000D01*
X46073Y58858D01*
X45586Y59586D01*
X44859Y60072D01*
X44000Y60243D01*
X43142Y60072D01*
X42414Y59586D01*
X42410Y59580D01*
X34155D01*
X30742Y62993D01*
X30743Y63000D01*
X30572Y63858D01*
X30086Y64586D01*
X29358Y65072D01*
X28500Y65243D01*
D02*
G37*
G36*
X104000Y75439D02*
X102825Y75284D01*
X101731Y74831D01*
X100791Y74109D01*
X100069Y73169D01*
X99616Y72075D01*
X99461Y70900D01*
X99616Y69725D01*
X100069Y68631D01*
X100791Y67691D01*
X101731Y66969D01*
X102825Y66516D01*
X104000Y66361D01*
X105175Y66516D01*
X106269Y66969D01*
X107209Y67691D01*
X107931Y68631D01*
X108384Y69725D01*
X108539Y70900D01*
X108384Y72075D01*
X107931Y73169D01*
X107209Y74109D01*
X106269Y74831D01*
X105175Y75284D01*
X104000Y75439D01*
D02*
G37*
G36*
X105850Y65423D02*
X102150D01*
X101458Y65332D01*
X100814Y65065D01*
X100260Y64640D01*
X99835Y64086D01*
X99568Y63442D01*
X99477Y62750D01*
Y59050D01*
X99568Y58358D01*
X99835Y57714D01*
X100260Y57160D01*
X100814Y56735D01*
X101458Y56468D01*
X102150Y56377D01*
X105850D01*
X106542Y56468D01*
X107186Y56735D01*
X107740Y57160D01*
X108165Y57714D01*
X108432Y58358D01*
X108523Y59050D01*
Y62750D01*
X108432Y63442D01*
X108165Y64086D01*
X107740Y64640D01*
X107186Y65065D01*
X106542Y65332D01*
X105850Y65423D01*
D02*
G37*
G36*
X72100Y43192D02*
X71143Y43066D01*
X69878Y42542D01*
X68791Y41709D01*
X67958Y40622D01*
X67434Y39358D01*
X67308Y38400D01*
X72100D01*
Y43192D01*
D02*
G37*
G36*
X41000Y42539D02*
X39825Y42384D01*
X38731Y41931D01*
X37791Y41209D01*
X37069Y40269D01*
X36616Y39175D01*
X36461Y38000D01*
X36616Y36825D01*
X37069Y35731D01*
X37791Y34791D01*
X38731Y34069D01*
X39825Y33616D01*
X41000Y33461D01*
X42175Y33616D01*
X43269Y34069D01*
X44209Y34791D01*
X44931Y35731D01*
X45384Y36825D01*
X45539Y38000D01*
X45384Y39175D01*
X44931Y40269D01*
X44209Y41209D01*
X43269Y41931D01*
X42175Y42384D01*
X41000Y42539D01*
D02*
G37*
G36*
X72100Y37600D02*
X67308D01*
X67434Y36643D01*
X67958Y35378D01*
X68791Y34291D01*
X69878Y33458D01*
X71143Y32934D01*
X72100Y32808D01*
Y37600D01*
D02*
G37*
G36*
X32850Y42523D02*
X29150D01*
X28458Y42432D01*
X27814Y42165D01*
X27260Y41740D01*
X26835Y41186D01*
X26568Y40542D01*
X26477Y39850D01*
Y36150D01*
X26568Y35458D01*
X26835Y34814D01*
X27260Y34260D01*
X27814Y33835D01*
X28458Y33568D01*
X29150Y33477D01*
X32850D01*
X33542Y33568D01*
X34186Y33835D01*
X34740Y34260D01*
X35165Y34814D01*
X35432Y35458D01*
X35523Y36150D01*
Y39850D01*
X35432Y40542D01*
X35165Y41186D01*
X34740Y41740D01*
X34186Y42165D01*
X33542Y42432D01*
X32850Y42523D01*
D02*
G37*
G36*
X130979Y47638D02*
X129664Y47508D01*
X128400Y47125D01*
X127235Y46502D01*
X126214Y45665D01*
X125376Y44643D01*
X124754Y43479D01*
X124370Y42215D01*
X124241Y40900D01*
X124370Y39586D01*
X124754Y38322D01*
X125376Y37157D01*
X126214Y36136D01*
X127235Y35298D01*
X128400Y34675D01*
X129664Y34291D01*
X130979Y34162D01*
X132293Y34291D01*
X133557Y34675D01*
X134722Y35298D01*
X135743Y36136D01*
X136581Y37157D01*
X137204Y38322D01*
X137587Y39586D01*
X137717Y40900D01*
X137587Y42215D01*
X137204Y43479D01*
X136581Y44643D01*
X135743Y45665D01*
X134722Y46502D01*
X133557Y47125D01*
X132293Y47508D01*
X130979Y47638D01*
D02*
G37*
G36*
X10900D02*
X9585Y47508D01*
X8321Y47125D01*
X7157Y46502D01*
X6135Y45665D01*
X5298Y44643D01*
X4675Y43479D01*
X4292Y42215D01*
X4162Y40900D01*
X4292Y39586D01*
X4675Y38322D01*
X5298Y37157D01*
X6135Y36136D01*
X7157Y35298D01*
X8321Y34675D01*
X9585Y34291D01*
X10900Y34162D01*
X12214Y34291D01*
X13478Y34675D01*
X14643Y35298D01*
X15664Y36136D01*
X16502Y37157D01*
X17125Y38322D01*
X17508Y39586D01*
X17638Y40900D01*
X17508Y42215D01*
X17125Y43479D01*
X16502Y44643D01*
X15664Y45665D01*
X14643Y46502D01*
X13478Y47125D01*
X12214Y47508D01*
X10900Y47638D01*
D02*
G37*
G36*
X66639Y77796D02*
X60314D01*
Y69109D01*
X66639D01*
Y77796D01*
D02*
G37*
G36*
X73100Y127396D02*
X72183Y127214D01*
X71406Y126695D01*
X70886Y125917D01*
X70704Y125000D01*
X70886Y124083D01*
X71406Y123306D01*
X72183Y122787D01*
X73100Y122604D01*
X74017Y122787D01*
X74030Y122795D01*
X80275Y116551D01*
Y113900D01*
X80376Y113393D01*
X80663Y112963D01*
X86818Y106807D01*
X86757Y106500D01*
X86928Y105642D01*
X87414Y104914D01*
X88142Y104428D01*
X89000Y104257D01*
X89858Y104428D01*
X90586Y104914D01*
X91072Y105642D01*
X91243Y106500D01*
X91072Y107358D01*
X90586Y108086D01*
X89858Y108572D01*
X89000Y108743D01*
X88693Y108682D01*
X82926Y114449D01*
Y117100D01*
X82825Y117607D01*
X82538Y118037D01*
X75477Y125098D01*
X75314Y125917D01*
X74795Y126695D01*
X74017Y127214D01*
X73100Y127396D01*
D02*
G37*
G36*
X104000Y105439D02*
X102825Y105284D01*
X101731Y104831D01*
X100791Y104109D01*
X100069Y103169D01*
X99616Y102075D01*
X99461Y100900D01*
X99616Y99725D01*
X100069Y98631D01*
X100791Y97691D01*
X101731Y96969D01*
X102825Y96516D01*
X104000Y96361D01*
X105175Y96516D01*
X106269Y96969D01*
X107209Y97691D01*
X107931Y98631D01*
X108384Y99725D01*
X108539Y100900D01*
X108384Y102075D01*
X107931Y103169D01*
X107209Y104109D01*
X106269Y104831D01*
X105175Y105284D01*
X104000Y105439D01*
D02*
G37*
G36*
X82387Y92461D02*
X80806D01*
Y89010D01*
X82387D01*
Y92461D01*
D02*
G37*
G36*
X15618Y138525D02*
X13382D01*
X12874Y138425D01*
X12444Y138137D01*
X10263Y135956D01*
X9975Y135526D01*
X9875Y135018D01*
Y113633D01*
X9975Y113126D01*
X10263Y112696D01*
X10263Y112696D01*
X10263Y112696D01*
X15196Y107763D01*
X15626Y107475D01*
X16133Y107375D01*
X36084D01*
X36874Y106584D01*
Y105719D01*
X36975Y105212D01*
X37263Y104782D01*
X40719Y101326D01*
X41149Y101038D01*
X41656Y100937D01*
X46710D01*
X46885Y100677D01*
X47612Y100190D01*
X48471Y100020D01*
X49329Y100190D01*
X50057Y100677D01*
X50543Y101404D01*
X50714Y102263D01*
X50543Y103121D01*
X50057Y103849D01*
X49329Y104335D01*
X48471Y104506D01*
X47612Y104335D01*
X46885Y103849D01*
X46710Y103588D01*
X44741D01*
X44499Y103950D01*
X44457Y104050D01*
X45803Y105396D01*
X46500Y105257D01*
X47358Y105428D01*
X48086Y105914D01*
X48328Y106277D01*
X52039D01*
X52507Y106370D01*
X52904Y106635D01*
X52904Y106635D01*
X52904Y106635D01*
X54146Y107877D01*
X57600D01*
X58068Y107970D01*
X58465Y108235D01*
X59572Y109342D01*
X60000Y109257D01*
X60858Y109428D01*
X61586Y109914D01*
X62072Y110642D01*
X62243Y111500D01*
X62072Y112358D01*
X61586Y113086D01*
X60858Y113572D01*
X60000Y113743D01*
X59142Y113572D01*
X58414Y113086D01*
X57928Y112358D01*
X57757Y111500D01*
X57842Y111072D01*
X57093Y110324D01*
X53639D01*
X53171Y110230D01*
X52774Y109965D01*
X51532Y108723D01*
X48328D01*
X48086Y109086D01*
X47358Y109572D01*
X46500Y109743D01*
X46491Y109760D01*
X52007Y115277D01*
X67030D01*
X67257Y115000D01*
X67428Y114142D01*
X67914Y113414D01*
X68642Y112928D01*
X69500Y112757D01*
X70358Y112928D01*
X71086Y113414D01*
X71572Y114142D01*
X71743Y115000D01*
X71572Y115858D01*
X71086Y116586D01*
X70358Y117072D01*
X69500Y117243D01*
X69072Y117158D01*
X68865Y117365D01*
X68468Y117630D01*
X68000Y117724D01*
X51500D01*
X51032Y117630D01*
X50635Y117365D01*
X42928Y109658D01*
X42500Y109743D01*
X42072Y109658D01*
X38865Y112865D01*
X38468Y113130D01*
X38000Y113224D01*
X18007D01*
X17327Y113903D01*
X17563Y114344D01*
X18000Y114257D01*
X18858Y114428D01*
X19586Y114914D01*
X19828Y115277D01*
X21000D01*
X21468Y115370D01*
X21865Y115635D01*
X31072Y124842D01*
X31500Y124757D01*
X32358Y124928D01*
X33086Y125414D01*
X33572Y126142D01*
X33743Y127000D01*
X33572Y127858D01*
X33086Y128586D01*
X32358Y129072D01*
X31500Y129243D01*
X30642Y129072D01*
X29914Y128586D01*
X29428Y127858D01*
X29257Y127000D01*
X29342Y126572D01*
X20493Y117724D01*
X19828D01*
X19586Y118086D01*
X18858Y118572D01*
X18000Y118743D01*
X17142Y118572D01*
X16414Y118086D01*
X16202Y117769D01*
X15723Y117914D01*
Y124793D01*
X17965Y127035D01*
X18124Y127273D01*
X18230Y127432D01*
X18324Y127900D01*
Y131577D01*
X18233Y132035D01*
X18673Y132271D01*
X19881Y131063D01*
X20311Y130775D01*
X20818Y130675D01*
X30559D01*
X30806Y130306D01*
X31583Y129786D01*
X32500Y129604D01*
X33417Y129786D01*
X34194Y130306D01*
X34714Y131083D01*
X34896Y132000D01*
X34714Y132917D01*
X34194Y133694D01*
X33417Y134214D01*
X32500Y134396D01*
X31583Y134214D01*
X30806Y133694D01*
X30559Y133326D01*
X21367D01*
X16556Y138137D01*
X16126Y138425D01*
X15618Y138525D01*
D02*
G37*
G36*
X130979Y137717D02*
X129664Y137587D01*
X128400Y137204D01*
X127235Y136581D01*
X126214Y135743D01*
X125376Y134722D01*
X124754Y133557D01*
X124370Y132293D01*
X124241Y130979D01*
X124370Y129664D01*
X124754Y128400D01*
X125376Y127235D01*
X126214Y126214D01*
X127235Y125376D01*
X128400Y124754D01*
X129664Y124370D01*
X130979Y124241D01*
X132293Y124370D01*
X133557Y124754D01*
X134722Y125376D01*
X135743Y126214D01*
X136581Y127235D01*
X137204Y128400D01*
X137587Y129664D01*
X137717Y130979D01*
X137587Y132293D01*
X137204Y133557D01*
X136581Y134722D01*
X135743Y135743D01*
X134722Y136581D01*
X133557Y137204D01*
X132293Y137587D01*
X130979Y137717D01*
D02*
G37*
G36*
X104000Y115439D02*
X102825Y115284D01*
X101731Y114831D01*
X100791Y114109D01*
X100069Y113169D01*
X99616Y112075D01*
X99461Y110900D01*
X99616Y109725D01*
X100069Y108631D01*
X100791Y107691D01*
X101731Y106969D01*
X102825Y106516D01*
X104000Y106361D01*
X105175Y106516D01*
X106269Y106969D01*
X107209Y107691D01*
X107931Y108631D01*
X108384Y109725D01*
X108539Y110900D01*
X108384Y112075D01*
X107931Y113169D01*
X107209Y114109D01*
X106269Y114831D01*
X105175Y115284D01*
X104000Y115439D01*
D02*
G37*
G36*
X34500Y103396D02*
X33583Y103214D01*
X32806Y102694D01*
X32286Y101917D01*
X32104Y101000D01*
X32286Y100083D01*
X32737Y99408D01*
X32640Y98918D01*
X32306Y98694D01*
X31786Y97917D01*
X31604Y97000D01*
X31786Y96083D01*
X32306Y95306D01*
X33083Y94786D01*
X34000Y94604D01*
X34000Y94604D01*
X34000Y94604D01*
X34563Y94563D01*
D01*
X34563Y94563D01*
Y94563D01*
X34993Y94275D01*
X35500Y94174D01*
X51618D01*
X51667Y93677D01*
X51142Y93572D01*
X50414Y93086D01*
X49928Y92358D01*
X49757Y91500D01*
X49928Y90642D01*
X50414Y89914D01*
X51142Y89428D01*
X52000Y89257D01*
X52428Y89342D01*
X54277Y87493D01*
Y68007D01*
X53928Y67658D01*
X53500Y67743D01*
X52642Y67572D01*
X51914Y67086D01*
X51428Y66358D01*
X51257Y65500D01*
X51428Y64642D01*
X51914Y63914D01*
X52642Y63428D01*
X53500Y63257D01*
X54358Y63428D01*
X55086Y63914D01*
X55572Y64642D01*
X55743Y65500D01*
X55658Y65928D01*
X56050Y66320D01*
X56506D01*
X56823Y65933D01*
X56757Y65600D01*
X56928Y64742D01*
X57414Y64014D01*
X58142Y63528D01*
X59000Y63357D01*
X59858Y63528D01*
X60586Y64014D01*
X61072Y64742D01*
X61243Y65600D01*
X61072Y66458D01*
X60586Y67186D01*
X59858Y67672D01*
X59000Y67843D01*
X58710Y67785D01*
X58324Y68103D01*
Y85493D01*
X62060Y89229D01*
X62719D01*
X62961Y88867D01*
X63689Y88380D01*
X64547Y88210D01*
X65406Y88380D01*
X66133Y88867D01*
X66135Y88869D01*
X66613Y88724D01*
Y84759D01*
X70499D01*
X70735Y84318D01*
X70428Y83858D01*
X70257Y83000D01*
X70428Y82142D01*
X70833Y81534D01*
X70642Y81072D01*
X69914Y80586D01*
X69428Y79858D01*
X69257Y79000D01*
X69428Y78142D01*
X69914Y77414D01*
X70642Y76928D01*
X71500Y76757D01*
X71544Y76766D01*
X73269Y75041D01*
X73269Y75041D01*
X73546Y74855D01*
X73732Y74731D01*
X74278Y74623D01*
X76722D01*
X76722Y74623D01*
X77268Y74731D01*
X77731Y75041D01*
X79456Y76766D01*
X79500Y76757D01*
X80358Y76928D01*
X81086Y77414D01*
X81572Y78142D01*
X81743Y79000D01*
X81572Y79858D01*
X81086Y80586D01*
X80358Y81072D01*
X79500Y81243D01*
X78642Y81072D01*
X78235Y80801D01*
X77794Y81036D01*
Y84759D01*
X80006D01*
Y88609D01*
Y92461D01*
X75148D01*
X74913Y92902D01*
X75072Y93142D01*
X75243Y94000D01*
X75072Y94858D01*
X74893Y95127D01*
X75058Y95528D01*
X75786Y96014D01*
X76272Y96742D01*
X76443Y97600D01*
X76272Y98458D01*
X75786Y99186D01*
X75058Y99672D01*
X74200Y99843D01*
X73342Y99672D01*
X72822Y99326D01*
X65136D01*
X64629Y99225D01*
X64199Y98937D01*
X64087Y98826D01*
X38549D01*
X36810Y100565D01*
X36896Y101000D01*
X36714Y101917D01*
X36194Y102694D01*
X35417Y103214D01*
X34500Y103396D01*
D02*
G37*
G36*
X104000Y85439D02*
X102825Y85284D01*
X101731Y84831D01*
X100791Y84109D01*
X100069Y83169D01*
X99616Y82075D01*
X99461Y80900D01*
X99616Y79725D01*
X100069Y78631D01*
X100791Y77691D01*
X101731Y76969D01*
X102825Y76516D01*
X104000Y76361D01*
X105175Y76516D01*
X106269Y76969D01*
X107209Y77691D01*
X107931Y78631D01*
X108384Y79725D01*
X108539Y80900D01*
X108384Y82075D01*
X107931Y83169D01*
X107209Y84109D01*
X106269Y84831D01*
X105175Y85284D01*
X104000Y85439D01*
D02*
G37*
G36*
X88686Y77796D02*
X82361D01*
Y69109D01*
X88686D01*
Y77796D01*
D02*
G37*
G36*
X44000Y81743D02*
X43142Y81572D01*
X42414Y81086D01*
X41928Y80358D01*
X41757Y79500D01*
X41818Y79193D01*
X39451Y76825D01*
X30760D01*
X30586Y77086D01*
X29858Y77572D01*
X29000Y77743D01*
X28142Y77572D01*
X27414Y77086D01*
X26928Y76358D01*
X26757Y75500D01*
X26928Y74642D01*
X27191Y74248D01*
X26804Y73931D01*
X23368Y77368D01*
X22855Y77710D01*
X22250Y77830D01*
X21645Y77710D01*
X21572Y77858D01*
Y77858D01*
X21572Y77858D01*
X21086Y78586D01*
X20358Y79072D01*
X19500Y79243D01*
X18642Y79072D01*
X17914Y78586D01*
X17428Y77858D01*
X17257Y77000D01*
X17428Y76142D01*
X17914Y75414D01*
X18642Y74928D01*
X18888Y74879D01*
X19395Y74540D01*
X20000Y74420D01*
X21845D01*
X25883Y70382D01*
X25883Y70382D01*
X25883D01*
X25883Y70382D01*
X25883D01*
X25883Y70382D01*
Y70382D01*
Y70382D01*
D01*
D01*
X25883D01*
Y70382D01*
X26395Y70040D01*
X27000Y69920D01*
X27410D01*
X27414Y69914D01*
X28142Y69428D01*
X29000Y69257D01*
X29858Y69428D01*
X30586Y69914D01*
X31072Y70642D01*
X31243Y71500D01*
X31072Y72358D01*
X30586Y73086D01*
X30341Y73250D01*
Y73750D01*
X30586Y73914D01*
X30760Y74174D01*
X40000D01*
X40507Y74275D01*
X40937Y74563D01*
X43693Y77318D01*
X44000Y77257D01*
X44858Y77428D01*
X45586Y77914D01*
X46072Y78642D01*
X46243Y79500D01*
X46072Y80358D01*
X45586Y81086D01*
X44858Y81572D01*
X44000Y81743D01*
D02*
G37*
G36*
X104000Y95439D02*
X102825Y95284D01*
X101731Y94831D01*
X100791Y94109D01*
X100069Y93169D01*
X99616Y92075D01*
X99461Y90900D01*
X99616Y89725D01*
X100069Y88631D01*
X100791Y87691D01*
X101731Y86969D01*
X102825Y86516D01*
X104000Y86361D01*
X105175Y86516D01*
X106269Y86969D01*
X107209Y87691D01*
X107931Y88631D01*
X108384Y89725D01*
X108539Y90900D01*
X108384Y92075D01*
X107931Y93169D01*
X107209Y94109D01*
X106269Y94831D01*
X105175Y95284D01*
X104000Y95439D01*
D02*
G37*
G36*
X82387Y88210D02*
X80806D01*
Y84759D01*
X82387D01*
Y88210D01*
D02*
G37*
%LPD*%
G36*
X64814Y93788D02*
X64757Y93500D01*
X64928Y92642D01*
D01*
X64547Y92696D01*
D01*
X64547Y92696D01*
Y92696D01*
X63689Y92525D01*
X62961Y92039D01*
X62719Y91676D01*
X61553D01*
X61085Y91583D01*
X60688Y91318D01*
X57180Y87811D01*
X56723Y88000D01*
X56630Y88468D01*
X56365Y88865D01*
X54158Y91072D01*
X54243Y91500D01*
X54072Y92358D01*
X53586Y93086D01*
X52858Y93572D01*
X52333Y93677D01*
X52382Y94174D01*
X64497D01*
X64814Y93788D01*
D02*
G37*
D10*
X81364Y133364D02*
G03*
X79827Y134000I-1536J-1536D01*
G01*
D02*
G03*
X81364Y134636I0J2173D01*
G01*
X58500Y129762D02*
G03*
X60036Y130399I0J2173D01*
G01*
X60036Y130399D02*
G03*
X59400Y128862I1536J-1536D01*
G01*
X75465Y79035D02*
G03*
X76469Y81459I-2424J2424D01*
G01*
X74757Y79742D02*
G03*
X76469Y83873I-4131J4131D01*
G01*
X48758Y73043D02*
G03*
X49500Y74835I-1792J1792D01*
G01*
D02*
G03*
X50243Y73043I2535J0D01*
G01*
X67900Y93485D02*
G03*
X68500Y92000I2049J-35D01*
G01*
D02*
G03*
X67015Y92600I-1449J-1449D01*
G01*
X71864Y83636D02*
G03*
X72532Y85249I-1613J1613D01*
G01*
Y85097D02*
G03*
X73136Y83636I2065J0D01*
G01*
X68913Y90480D02*
G03*
X68131Y92369I-2671J0D01*
G01*
X68867Y90315D02*
G03*
X68687Y91813I-1043J635D01*
G01*
X68013Y90834D02*
G03*
X67787Y92713I-1308J796D01*
G01*
X68113Y90962D02*
G03*
X68500Y91897I-935J935D01*
G01*
Y92000D02*
G03*
X68994Y91032I1196J0D01*
G01*
X76950Y86259D02*
G03*
X76469Y85096I1163J-1163D01*
G01*
D02*
G03*
X75987Y86259I-1644J0D01*
G01*
X73013D02*
G03*
X72532Y85096I1163J-1163D01*
G01*
D02*
G03*
X72050Y86259I-1644J0D01*
G01*
X38000Y97500D02*
X64636D01*
X65136Y98000D01*
X34500Y101000D02*
X38000Y97500D01*
X73800Y98000D02*
X74200Y97600D01*
X65136Y98000D02*
X73800D01*
X65882Y96200D02*
X71300D01*
X72750Y94250D02*
X73000Y94000D01*
X33500Y97500D02*
X34000D01*
X71300Y96200D02*
X73000Y94500D01*
X65182Y95500D02*
X65882Y96200D01*
X35500Y95500D02*
X65182D01*
X34000Y97000D02*
X35500Y95500D01*
X11200Y113633D02*
X16133Y108700D01*
X38200Y105719D02*
X41656Y102263D01*
X38200Y105719D02*
Y107133D01*
X36633Y108700D02*
X38200Y107133D01*
X16133Y108700D02*
X36633D01*
X11200Y113633D02*
Y135018D01*
X41656Y102263D02*
X48471D01*
X11200Y135018D02*
X13382Y137200D01*
X15618D01*
X20818Y132000D01*
X32500D01*
X40000Y75500D02*
X44000Y79500D01*
X29000Y75500D02*
X40000D01*
X72532Y83032D02*
Y88610D01*
X81600Y113900D02*
X89000Y106500D01*
X81600Y113900D02*
Y117100D01*
X75500Y79000D02*
X76469Y79969D01*
Y88610D01*
X68500Y88705D02*
X68594Y88610D01*
X46300Y84000D02*
X49500Y80800D01*
X34825Y84000D02*
X46300D01*
X73700Y125000D02*
X81600Y117100D01*
X49500Y72300D02*
Y80800D01*
X67000Y93500D02*
X68500Y92000D01*
Y88705D02*
Y92000D01*
X68594Y88610D02*
Y91000D01*
X58500Y128862D02*
X63638Y134000D01*
X82000D01*
X6500Y112325D02*
X34825Y84000D01*
X6500Y112325D02*
Y117000D01*
D11*
X15500Y134500D02*
G03*
X16435Y132241I3194J0D01*
G01*
X15656Y133021D02*
G03*
X14500Y133500I-1156J-1156D01*
G01*
X14453Y129501D02*
G03*
X12900Y128900I-97J-2057D01*
G01*
X12900Y128900D02*
G03*
X13501Y130453I-1457J1457D01*
G01*
X12900Y114337D02*
X16837Y110400D01*
X37337D01*
X12900Y114337D02*
Y128900D01*
X39900Y106423D02*
X41423Y104900D01*
X39900Y106423D02*
Y107837D01*
X37337Y110400D02*
X39900Y107837D01*
X38000Y112000D02*
X42500Y107500D01*
X17500Y112000D02*
X38000D01*
X14500Y115000D02*
X17500Y112000D01*
X14500Y115000D02*
Y125300D01*
X96000Y55600D02*
Y70500D01*
X93000Y73500D02*
X96000Y70500D01*
X68000Y116500D02*
X69500Y115000D01*
X51500Y116500D02*
X68000D01*
X42500Y107500D02*
X51500Y116500D01*
X57600Y109100D02*
X60000Y111500D01*
X53639Y109100D02*
X57600D01*
X52039Y107500D02*
X53639Y109100D01*
X46500Y107500D02*
X52039D01*
X22000Y76000D02*
X22250Y76250D01*
X41423Y104900D02*
X43577D01*
X46177Y107500D01*
X12900Y128900D02*
X14500Y130500D01*
Y125300D02*
X17100Y127900D01*
Y131577D01*
X14500Y134177D02*
X17100Y131577D01*
X14500Y134177D02*
Y134500D01*
X55500Y67500D02*
Y88000D01*
X52000Y91500D02*
X55500Y88000D01*
X57100Y67500D02*
X59000Y65600D01*
X53500Y65500D02*
X55500Y67500D01*
X57100D02*
Y86000D01*
X61553Y90453D01*
X64547D01*
X18000Y116500D02*
X21000D01*
X31500Y127000D01*
D12*
X72300Y79000D02*
G03*
X72987Y77341I2347J0D01*
G01*
X72572Y77756D02*
G03*
X71500Y78200I-1072J-1072D01*
G01*
X79500D02*
G03*
X78428Y77756I0J-1516D01*
G01*
X78013Y77341D02*
G03*
X78700Y79000I-1659J1659D01*
G01*
X79500Y78828D02*
Y79000D01*
X76722Y76050D02*
X79500Y78828D01*
X74278Y76050D02*
X76722D01*
X71500Y78828D02*
X74278Y76050D01*
X71500Y78828D02*
Y79000D01*
D13*
X43541Y57540D02*
G03*
X42431Y58000I-1110J-1110D01*
G01*
D02*
G03*
X43541Y58460I0J1569D01*
G01*
X29150Y63000D02*
G03*
X29610Y61890I1569J0D01*
G01*
D02*
G03*
X28500Y62350I-1110J-1110D01*
G01*
X20098Y77255D02*
G03*
X22000Y76000I1902J813D01*
G01*
X28540Y71040D02*
G03*
X27431Y71500I-1110J-1110D01*
G01*
D02*
G03*
X28540Y71960I0J1569D01*
G01*
X20000Y76000D02*
X22000D01*
X22250Y76250D02*
X27000Y71500D01*
X29000D01*
X28500Y63000D02*
X33500Y58000D01*
X44000D01*
D14*
X134445Y62456D02*
G03*
X136000Y66211I-3756J3756D01*
G01*
D02*
G03*
X137556Y62456I5311J0D01*
G01*
Y59345D02*
G03*
X136000Y55589I3756J-3756D01*
G01*
D02*
G03*
X134445Y59345I-5311J0D01*
G01*
X137556Y99345D02*
G03*
X136000Y95589I3756J-3756D01*
G01*
D02*
G03*
X134444Y99345I-5311J-0D01*
G01*
X134444Y102456D02*
G03*
X136000Y106211I-3756J3756D01*
G01*
D02*
G03*
X137556Y102456I5311J-0D01*
G01*
X137556Y89345D02*
G03*
X136000Y85589I3756J-3756D01*
G01*
D02*
G03*
X134444Y89345I-5311J-0D01*
G01*
Y92456D02*
G03*
X136000Y96211I-3756J3756D01*
G01*
D02*
G03*
X137556Y92456I5311J-0D01*
G01*
Y79345D02*
G03*
X136000Y75589I3756J-3756D01*
G01*
D02*
G03*
X134444Y79345I-5311J-0D01*
G01*
X134444Y82456D02*
G03*
X136000Y86212I-3756J3756D01*
G01*
D02*
G03*
X137556Y82456I5311J-0D01*
G01*
X137556Y69345D02*
G03*
X136000Y65589I3756J-3756D01*
G01*
D02*
G03*
X134444Y69345I-5311J-0D01*
G01*
X134444Y72456D02*
G03*
X136000Y76212I-3756J3756D01*
G01*
D02*
G03*
X137556Y72456I5311J-0D01*
G01*
X137556Y109345D02*
G03*
X136000Y105589I3755J-3755D01*
G01*
Y105588D02*
G03*
X134444Y109345I-5312J0D01*
G01*
Y112456D02*
G03*
X136000Y116211I-3756J3756D01*
G01*
D02*
G03*
X137556Y112456I5311J0D01*
G01*
X82500Y36000D02*
Y38000D01*
X136000Y54000D02*
X136000Y54000D01*
Y61500D01*
Y111500D01*
Y59500D02*
Y61500D01*
X136000Y111500D02*
Y118500D01*
Y111500D02*
X136000Y111500D01*
D42*
X125268Y56767D02*
G03*
X125457Y60459I-1951J1951D01*
G01*
X123700Y55200D02*
G03*
X123905Y59197I-2112J2112D01*
G01*
X118000Y53500D02*
X122000D01*
X125700Y61200D02*
X126000Y61500D01*
X110500Y46000D02*
X118000Y53500D01*
X122000D02*
X126000Y57500D01*
Y60900D01*
X82500Y46000D02*
X110500D01*
X43000D02*
X82500D01*
X37000Y52000D02*
X43000Y46000D01*
D43*
X104000Y70900D02*
D03*
Y80900D02*
D03*
Y90900D02*
D03*
Y100900D02*
D03*
Y110900D02*
D03*
X136000Y110900D02*
D03*
X126000D02*
D03*
X136000Y70900D02*
D03*
X126000D02*
D03*
X136000Y80900D02*
D03*
X126000D02*
D03*
X136000Y90900D02*
D03*
X126000D02*
D03*
X136000Y100900D02*
D03*
X126000D02*
D03*
X136000Y60900D02*
D03*
X126000D02*
D03*
X41000Y38000D02*
D03*
X92500D02*
D03*
X82500D02*
D03*
X72500D02*
D03*
D44*
X104000Y60900D02*
D03*
D45*
X10900Y160979D02*
D03*
Y40900D02*
D03*
X130979D02*
D03*
Y130979D02*
D03*
D46*
X116000Y110900D02*
D03*
Y70900D02*
D03*
Y80900D02*
D03*
Y90900D02*
D03*
Y100900D02*
D03*
X116000Y60900D02*
D03*
X31000Y38000D02*
D03*
X102500D02*
D03*
D47*
X74200Y97600D02*
D03*
X92498Y74002D02*
D03*
X48471Y102263D02*
D03*
X55500Y106500D02*
D03*
X60000Y111500D02*
D03*
X59000Y65600D02*
D03*
X53500Y65500D02*
D03*
X64547Y90453D02*
D03*
X52000Y91500D02*
D03*
X14500Y130500D02*
D03*
X24700Y123877D02*
D03*
X110000Y51000D02*
D03*
X115500Y45500D02*
D03*
X82500Y46000D02*
D03*
X79500Y79000D02*
D03*
X71500D02*
D03*
X27312Y47310D02*
D03*
X77000Y51500D02*
D03*
X73000Y94000D02*
D03*
X69500Y115000D02*
D03*
X95000Y106500D02*
D03*
X89000D02*
D03*
X97500Y129000D02*
D03*
X72500Y83000D02*
D03*
X67000Y93500D02*
D03*
X96000Y54257D02*
D03*
X44000Y79500D02*
D03*
X29000Y75500D02*
D03*
X58500Y128862D02*
D03*
X85000Y116000D02*
D03*
X29000Y71500D02*
D03*
X19500Y77000D02*
D03*
X81000Y57000D02*
D03*
X12000Y83500D02*
D03*
X28500Y63000D02*
D03*
X44000Y58000D02*
D03*
X82000Y134000D02*
D03*
X49500Y128500D02*
D03*
X14500Y134500D02*
D03*
X42500Y107500D02*
D03*
X46500D02*
D03*
X18000Y116500D02*
D03*
X31500Y127000D02*
D03*
X51000Y110138D02*
D03*
D48*
X34500Y101000D02*
D03*
X34000Y97000D02*
D03*
X49500Y72300D02*
D03*
X4500Y118500D02*
D03*
X75500Y79000D02*
D03*
X32500Y132000D02*
D03*
X73100Y125000D02*
D03*
X37000Y52000D02*
D03*
D49*
X72532Y88610D02*
D03*
X80406D02*
D03*
X76469D02*
D03*
X68594D02*
D03*
D50*
X85524Y73453D02*
D03*
X63476D02*
D03*
M02*
