%FSLAX25Y25*%
%MOIN*%
G70*
G01*
G75*
G04 Layer_Color=16711935*
%ADD10C,0.01000*%
%ADD11C,0.00800*%
%ADD12C,0.01200*%
%ADD13C,0.01500*%
%ADD14C,0.03000*%
%ADD15R,0.03150X0.02756*%
%ADD16R,0.02756X0.03150*%
%ADD17R,0.05118X0.05906*%
%ADD18R,0.03937X0.03937*%
%ADD19O,0.01181X0.08268*%
%ADD20O,0.08268X0.01181*%
%ADD21R,0.02362X0.03150*%
%ADD22R,0.05433X0.01772*%
%ADD23R,0.08268X0.05906*%
%ADD24R,0.07480X0.04626*%
%ADD25R,0.07480X0.09350*%
%ADD26R,0.03150X0.02362*%
%ADD27R,0.06102X0.02362*%
%ADD28R,0.07087X0.04724*%
%ADD29R,0.03543X0.03150*%
%ADD30R,0.05512X0.04331*%
%ADD31R,0.03543X0.02559*%
%ADD32R,0.05906X0.02362*%
%ADD33R,0.03543X0.03937*%
%ADD34R,0.01772X0.05512*%
%ADD35R,0.01772X0.05512*%
%ADD36R,0.01772X0.05512*%
%ADD37R,0.02800X0.01375*%
%ADD38R,0.01375X0.02800*%
%ADD39R,0.03150X0.04000*%
%ADD40R,0.01575X0.07677*%
%ADD41R,0.04331X0.02362*%
%ADD42C,0.02000*%
%ADD43C,0.07400*%
G04:AMPARAMS|DCode=44|XSize=74mil|YSize=74mil|CornerRadius=18.5mil|HoleSize=0mil|Usage=FLASHONLY|Rotation=90.000|XOffset=0mil|YOffset=0mil|HoleType=Round|Shape=RoundedRectangle|*
%AMROUNDEDRECTD44*
21,1,0.07400,0.03700,0,0,90.0*
21,1,0.03700,0.07400,0,0,90.0*
1,1,0.03700,0.01850,0.01850*
1,1,0.03700,0.01850,-0.01850*
1,1,0.03700,-0.01850,-0.01850*
1,1,0.03700,-0.01850,0.01850*
%
%ADD44ROUNDEDRECTD44*%
%ADD45C,0.11417*%
G04:AMPARAMS|DCode=46|XSize=74mil|YSize=74mil|CornerRadius=18.5mil|HoleSize=0mil|Usage=FLASHONLY|Rotation=0.000|XOffset=0mil|YOffset=0mil|HoleType=Round|Shape=RoundedRectangle|*
%AMROUNDEDRECTD46*
21,1,0.07400,0.03700,0,0,0.0*
21,1,0.03700,0.07400,0,0,0.0*
1,1,0.03700,0.01850,-0.01850*
1,1,0.03700,-0.01850,-0.01850*
1,1,0.03700,-0.01850,0.01850*
1,1,0.03700,0.01850,0.01850*
%
%ADD46ROUNDEDRECTD46*%
%ADD47C,0.02800*%
%ADD48C,0.03100*%
%ADD49R,0.02362X0.06102*%
%ADD50R,0.04724X0.07087*%
%ADD51C,0.00984*%
%ADD52C,0.02362*%
%ADD53C,0.00787*%
%ADD54C,0.00591*%
%ADD55C,0.00500*%
%ADD56C,0.00394*%
%ADD57R,0.02564X0.01139*%
%ADD58R,0.01139X0.02564*%
%ADD59R,0.03750X0.03356*%
%ADD60R,0.03356X0.03750*%
%ADD61R,0.05718X0.06506*%
%ADD62R,0.04537X0.04537*%
%ADD63O,0.01781X0.08868*%
%ADD64O,0.08868X0.01781*%
%ADD65R,0.02962X0.03750*%
%ADD66R,0.06102X0.02441*%
%ADD67R,0.08868X0.06506*%
%ADD68R,0.08080X0.05226*%
%ADD69R,0.08080X0.09950*%
%ADD70R,0.03750X0.02962*%
%ADD71R,0.06504X0.02764*%
%ADD72R,0.07488X0.05126*%
%ADD73R,0.04143X0.03750*%
%ADD74R,0.06112X0.04931*%
%ADD75R,0.04143X0.03159*%
%ADD76R,0.06506X0.02962*%
%ADD77R,0.04143X0.04537*%
%ADD78R,0.02372X0.06112*%
%ADD79R,0.02372X0.06112*%
%ADD80R,0.02372X0.06112*%
%ADD81R,0.03115X0.01690*%
%ADD82R,0.01690X0.03115*%
%ADD83R,0.02175X0.08277*%
%ADD84R,0.05118X0.03150*%
%ADD85C,0.08000*%
G04:AMPARAMS|DCode=86|XSize=80mil|YSize=80mil|CornerRadius=20mil|HoleSize=0mil|Usage=FLASHONLY|Rotation=90.000|XOffset=0mil|YOffset=0mil|HoleType=Round|Shape=RoundedRectangle|*
%AMROUNDEDRECTD86*
21,1,0.08000,0.04000,0,0,90.0*
21,1,0.04000,0.08000,0,0,90.0*
1,1,0.04000,0.02000,0.02000*
1,1,0.04000,0.02000,-0.02000*
1,1,0.04000,-0.02000,-0.02000*
1,1,0.04000,-0.02000,0.02000*
%
%ADD86ROUNDEDRECTD86*%
%ADD87C,0.12017*%
G04:AMPARAMS|DCode=88|XSize=80mil|YSize=80mil|CornerRadius=20mil|HoleSize=0mil|Usage=FLASHONLY|Rotation=0.000|XOffset=0mil|YOffset=0mil|HoleType=Round|Shape=RoundedRectangle|*
%AMROUNDEDRECTD88*
21,1,0.08000,0.04000,0,0,0.0*
21,1,0.04000,0.08000,0,0,0.0*
1,1,0.04000,0.02000,-0.02000*
1,1,0.04000,-0.02000,-0.02000*
1,1,0.04000,-0.02000,0.02000*
1,1,0.04000,0.02000,0.02000*
%
%ADD88ROUNDEDRECTD88*%
%ADD89R,0.02764X0.06504*%
%ADD90R,0.05126X0.07488*%
D85*
X104000Y70900D02*
D03*
Y80900D02*
D03*
Y90900D02*
D03*
Y100900D02*
D03*
Y110900D02*
D03*
X136000Y110900D02*
D03*
X126000D02*
D03*
X136000Y70900D02*
D03*
X126000D02*
D03*
X136000Y80900D02*
D03*
X126000D02*
D03*
X136000Y90900D02*
D03*
X126000D02*
D03*
X136000Y100900D02*
D03*
X126000D02*
D03*
X136000Y60900D02*
D03*
X126000D02*
D03*
X41000Y38000D02*
D03*
X92500D02*
D03*
X82500D02*
D03*
X72500D02*
D03*
D86*
X104000Y60900D02*
D03*
D87*
X10900Y160979D02*
D03*
Y40900D02*
D03*
X130979D02*
D03*
Y130979D02*
D03*
D88*
X116000Y110900D02*
D03*
Y70900D02*
D03*
Y80900D02*
D03*
Y90900D02*
D03*
Y100900D02*
D03*
X116000Y60900D02*
D03*
X31000Y38000D02*
D03*
X102500D02*
D03*
D89*
X72532Y88610D02*
D03*
X80406D02*
D03*
X76469D02*
D03*
X68594D02*
D03*
D90*
X85524Y73453D02*
D03*
X63476D02*
D03*
M02*
