M48
;Layer_Color=9474304
;FILE_FORMAT=2:5
INCH,LZ
;TYPE=PLATED
T1F00S00C0.01200
T2F00S00C0.04000
;TYPE=NON_PLATED
T3F00S00C0.11811
%
T01
X00825Y0046
X0077Y00515
X0081Y0057
X0096Y0054257
X011Y0051
X01155Y00455
X0092498Y0074002
X00795Y0079
X00755
X00715
X00725Y0083
X0073Y0094
X00742Y00976
X00695Y0115
X0085Y0116
X0089Y01065
X0095
X00555
X0051Y0110138
X00465Y01075
X00425
X0048471Y0102263
X0052Y00915
X0064547Y0090453
X0067Y00935
X006Y01115
X00345Y0101
X0034Y0097
X0029Y00755
Y00715
X00285Y0063
X0027312Y004731
X0037Y0052
X0044Y0058
X00535Y00655
X0059Y00656
X00495Y00723
X0044Y00795
X00195Y0077
X0012Y00835
X0018Y01165
X00247Y0123877
X00315Y0127
X00325Y0132
X00145Y01305
Y01345
X00045Y01185
X00495Y01285
X00585Y0128862
X00731Y0125
X0082Y0134
X00975Y0129
T02
X00725Y0038
X00825
X00925
X01025
X0104Y00609
Y00709
Y00809
Y00909
Y01009
Y01109
X0116Y01109
X0126
X0136
Y01009
Y00909
Y00809
Y00709
X0126
X0116
Y00809
X0126
Y00909
X0116
Y01009
X0126
X0126Y00609
X0116
X0136
X0041Y0038
X0031
T03
X0130979Y00409
X00109
Y0160979
X0130979Y0130979
M30
