%FSLAX25Y25*%
%MOIN*%
G70*
G01*
G75*
%ADD10C,0.01000*%
%ADD11C,0.00800*%
%ADD12C,0.01200*%
%ADD13C,0.01500*%
%ADD14C,0.03000*%
%ADD15R,0.03150X0.02756*%
%ADD16R,0.02756X0.03150*%
%ADD17R,0.05118X0.05906*%
%ADD18R,0.03937X0.03937*%
%ADD19O,0.01181X0.08268*%
%ADD20O,0.08268X0.01181*%
%ADD21R,0.02362X0.03150*%
%ADD22R,0.05433X0.01772*%
%ADD23R,0.08268X0.05906*%
%ADD24R,0.07480X0.04626*%
%ADD25R,0.07480X0.09350*%
%ADD26R,0.03150X0.02362*%
%ADD27R,0.06102X0.02362*%
%ADD28R,0.07087X0.04724*%
%ADD29R,0.03543X0.03150*%
%ADD30R,0.05512X0.04331*%
%ADD31R,0.03543X0.02559*%
%ADD32R,0.05906X0.02362*%
%ADD33R,0.03543X0.03937*%
%ADD34R,0.01772X0.05512*%
%ADD35R,0.01772X0.05512*%
%ADD36R,0.01772X0.05512*%
%ADD37R,0.02800X0.01375*%
%ADD38R,0.01375X0.02800*%
%ADD39R,0.03150X0.04000*%
%ADD40R,0.01575X0.07677*%
%ADD41R,0.04331X0.02362*%
%ADD42C,0.02000*%
%ADD43C,0.07400*%
G04:AMPARAMS|DCode=44|XSize=74mil|YSize=74mil|CornerRadius=18.5mil|HoleSize=0mil|Usage=FLASHONLY|Rotation=90.000|XOffset=0mil|YOffset=0mil|HoleType=Round|Shape=RoundedRectangle|*
%AMROUNDEDRECTD44*
21,1,0.07400,0.03700,0,0,90.0*
21,1,0.03700,0.07400,0,0,90.0*
1,1,0.03700,0.01850,0.01850*
1,1,0.03700,0.01850,-0.01850*
1,1,0.03700,-0.01850,-0.01850*
1,1,0.03700,-0.01850,0.01850*
%
%ADD44ROUNDEDRECTD44*%
%ADD45C,0.11417*%
G04:AMPARAMS|DCode=46|XSize=74mil|YSize=74mil|CornerRadius=18.5mil|HoleSize=0mil|Usage=FLASHONLY|Rotation=0.000|XOffset=0mil|YOffset=0mil|HoleType=Round|Shape=RoundedRectangle|*
%AMROUNDEDRECTD46*
21,1,0.07400,0.03700,0,0,0.0*
21,1,0.03700,0.07400,0,0,0.0*
1,1,0.03700,0.01850,-0.01850*
1,1,0.03700,-0.01850,-0.01850*
1,1,0.03700,-0.01850,0.01850*
1,1,0.03700,0.01850,0.01850*
%
%ADD46ROUNDEDRECTD46*%
%ADD47C,0.02800*%
%ADD48C,0.03100*%
%ADD49R,0.02362X0.06102*%
%ADD50R,0.04724X0.07087*%
%ADD51C,0.00984*%
%ADD52C,0.02362*%
%ADD53C,0.00787*%
%ADD54C,0.00591*%
%ADD55C,0.00500*%
%ADD56C,0.00394*%
G36*
X56626Y33000D02*
X55977D01*
X54678Y35103D01*
Y33000D01*
X54078D01*
Y36206D01*
X54703D01*
X56025Y34054D01*
Y36206D01*
X56626D01*
Y33000D01*
D02*
G37*
G36*
X53737D02*
X53034D01*
X52761Y33727D01*
X51467D01*
X51204Y33000D01*
X50521D01*
X51765Y36206D01*
X52448D01*
X53737Y33000D01*
D02*
G37*
G36*
X49096Y36255D02*
X49145Y36250D01*
X49203Y36240D01*
X49267Y36231D01*
X49335Y36216D01*
X49413Y36196D01*
X49486Y36172D01*
X49569Y36148D01*
X49647Y36113D01*
X49725Y36070D01*
X49803Y36026D01*
X49877Y35972D01*
X49950Y35908D01*
X49955D01*
X49959Y35899D01*
X49984Y35869D01*
X50023Y35825D01*
X50072Y35757D01*
X50125Y35674D01*
X50184Y35577D01*
X50238Y35460D01*
X50282Y35323D01*
X49642Y35172D01*
Y35177D01*
X49637Y35181D01*
X49633Y35211D01*
X49613Y35255D01*
X49589Y35313D01*
X49559Y35377D01*
X49515Y35440D01*
X49467Y35503D01*
X49403Y35562D01*
X49393Y35567D01*
X49369Y35586D01*
X49335Y35611D01*
X49281Y35635D01*
X49218Y35664D01*
X49140Y35684D01*
X49057Y35704D01*
X48964Y35708D01*
X48930D01*
X48905Y35704D01*
X48876Y35699D01*
X48842Y35694D01*
X48759Y35674D01*
X48666Y35645D01*
X48569Y35601D01*
X48525Y35572D01*
X48476Y35538D01*
X48432Y35494D01*
X48388Y35450D01*
Y35445D01*
X48378Y35440D01*
X48369Y35421D01*
X48354Y35401D01*
X48339Y35372D01*
X48320Y35337D01*
X48300Y35298D01*
X48281Y35250D01*
X48256Y35196D01*
X48237Y35137D01*
X48217Y35069D01*
X48203Y34991D01*
X48188Y34913D01*
X48178Y34820D01*
X48173Y34723D01*
X48169Y34620D01*
Y34615D01*
Y34596D01*
Y34562D01*
X48173Y34523D01*
Y34469D01*
X48178Y34415D01*
X48188Y34352D01*
X48198Y34283D01*
X48222Y34142D01*
X48261Y33996D01*
X48286Y33927D01*
X48315Y33864D01*
X48344Y33805D01*
X48383Y33751D01*
X48388Y33747D01*
X48393Y33742D01*
X48422Y33713D01*
X48471Y33673D01*
X48535Y33625D01*
X48618Y33576D01*
X48715Y33537D01*
X48827Y33507D01*
X48886Y33503D01*
X48949Y33498D01*
X48974D01*
X48993Y33503D01*
X49042Y33507D01*
X49101Y33517D01*
X49174Y33537D01*
X49247Y33566D01*
X49320Y33605D01*
X49393Y33659D01*
X49403Y33669D01*
X49423Y33688D01*
X49457Y33732D01*
X49496Y33786D01*
X49540Y33859D01*
X49584Y33952D01*
X49628Y34054D01*
X49662Y34181D01*
X50291Y33986D01*
Y33981D01*
X50287Y33961D01*
X50277Y33937D01*
X50262Y33898D01*
X50247Y33854D01*
X50228Y33805D01*
X50204Y33747D01*
X50174Y33688D01*
X50111Y33561D01*
X50028Y33429D01*
X49925Y33307D01*
X49872Y33249D01*
X49808Y33200D01*
X49803Y33195D01*
X49794Y33190D01*
X49774Y33176D01*
X49750Y33161D01*
X49716Y33141D01*
X49676Y33122D01*
X49628Y33098D01*
X49574Y33073D01*
X49515Y33049D01*
X49452Y33024D01*
X49384Y33005D01*
X49310Y32985D01*
X49227Y32971D01*
X49145Y32956D01*
X49052Y32951D01*
X48959Y32946D01*
X48930D01*
X48896Y32951D01*
X48852D01*
X48798Y32961D01*
X48735Y32971D01*
X48666Y32980D01*
X48588Y33000D01*
X48505Y33024D01*
X48422Y33054D01*
X48335Y33088D01*
X48247Y33132D01*
X48159Y33181D01*
X48071Y33239D01*
X47988Y33303D01*
X47910Y33381D01*
X47905Y33386D01*
X47890Y33400D01*
X47871Y33425D01*
X47846Y33459D01*
X47817Y33503D01*
X47778Y33556D01*
X47744Y33620D01*
X47705Y33693D01*
X47666Y33771D01*
X47632Y33864D01*
X47598Y33961D01*
X47563Y34069D01*
X47539Y34181D01*
X47519Y34303D01*
X47505Y34435D01*
X47500Y34571D01*
Y34581D01*
Y34606D01*
X47505Y34649D01*
Y34703D01*
X47515Y34771D01*
X47519Y34850D01*
X47534Y34933D01*
X47554Y35025D01*
X47573Y35128D01*
X47602Y35225D01*
X47632Y35333D01*
X47671Y35435D01*
X47720Y35538D01*
X47773Y35635D01*
X47837Y35728D01*
X47910Y35816D01*
X47915Y35821D01*
X47929Y35835D01*
X47954Y35855D01*
X47983Y35884D01*
X48027Y35918D01*
X48076Y35957D01*
X48134Y35996D01*
X48203Y36040D01*
X48276Y36079D01*
X48359Y36118D01*
X48447Y36157D01*
X48544Y36191D01*
X48647Y36221D01*
X48759Y36240D01*
X48876Y36255D01*
X48998Y36260D01*
X49057D01*
X49096Y36255D01*
D02*
G37*
G36*
X61115Y33000D02*
X60466D01*
Y34401D01*
X59202D01*
Y33000D01*
X58553D01*
Y36206D01*
X59202D01*
Y34942D01*
X60466D01*
Y36206D01*
X61115D01*
Y33000D01*
D02*
G37*
G36*
X39881Y96455D02*
X39935Y96450D01*
X39993Y96445D01*
X40057Y96435D01*
X40125Y96426D01*
X40271Y96396D01*
X40423Y96348D01*
X40496Y96318D01*
X40564Y96279D01*
X40633Y96240D01*
X40691Y96191D01*
X40696Y96187D01*
X40706Y96177D01*
X40720Y96162D01*
X40740Y96143D01*
X40764Y96118D01*
X40789Y96084D01*
X40818Y96045D01*
X40847Y96001D01*
X40877Y95952D01*
X40901Y95899D01*
X40955Y95781D01*
X40974Y95713D01*
X40994Y95640D01*
X41008Y95562D01*
X41013Y95484D01*
X40364Y95459D01*
Y95464D01*
Y95469D01*
X40354Y95499D01*
X40345Y95542D01*
X40325Y95596D01*
X40301Y95655D01*
X40271Y95713D01*
X40232Y95767D01*
X40184Y95811D01*
X40179Y95816D01*
X40159Y95830D01*
X40130Y95845D01*
X40086Y95869D01*
X40027Y95889D01*
X39959Y95903D01*
X39876Y95918D01*
X39779Y95923D01*
X39735D01*
X39681Y95918D01*
X39617Y95908D01*
X39549Y95894D01*
X39476Y95874D01*
X39403Y95845D01*
X39339Y95806D01*
X39334Y95801D01*
X39325Y95791D01*
X39310Y95777D01*
X39291Y95752D01*
X39271Y95723D01*
X39256Y95689D01*
X39247Y95650D01*
X39242Y95606D01*
Y95601D01*
Y95586D01*
X39247Y95567D01*
X39252Y95538D01*
X39266Y95508D01*
X39281Y95474D01*
X39305Y95445D01*
X39334Y95411D01*
X39339Y95406D01*
X39359Y95391D01*
X39398Y95372D01*
X39422Y95362D01*
X39456Y95347D01*
X39491Y95328D01*
X39535Y95313D01*
X39579Y95293D01*
X39637Y95279D01*
X39696Y95259D01*
X39764Y95240D01*
X39842Y95215D01*
X39925Y95196D01*
X39930D01*
X39944Y95191D01*
X39969Y95186D01*
X40003Y95176D01*
X40042Y95167D01*
X40086Y95152D01*
X40189Y95128D01*
X40306Y95089D01*
X40418Y95054D01*
X40530Y95011D01*
X40579Y94991D01*
X40623Y94967D01*
X40628D01*
X40633Y94962D01*
X40662Y94947D01*
X40701Y94918D01*
X40750Y94884D01*
X40808Y94835D01*
X40867Y94781D01*
X40920Y94713D01*
X40974Y94640D01*
X40979Y94630D01*
X40994Y94605D01*
X41018Y94557D01*
X41043Y94498D01*
X41062Y94425D01*
X41086Y94337D01*
X41101Y94239D01*
X41106Y94132D01*
Y94127D01*
Y94117D01*
Y94103D01*
Y94083D01*
X41096Y94030D01*
X41086Y93961D01*
X41067Y93883D01*
X41043Y93795D01*
X41003Y93703D01*
X40950Y93610D01*
Y93605D01*
X40945Y93600D01*
X40920Y93571D01*
X40886Y93527D01*
X40837Y93478D01*
X40779Y93420D01*
X40701Y93361D01*
X40618Y93303D01*
X40515Y93254D01*
X40511D01*
X40501Y93249D01*
X40486Y93244D01*
X40467Y93234D01*
X40437Y93229D01*
X40408Y93220D01*
X40369Y93210D01*
X40325Y93200D01*
X40223Y93176D01*
X40106Y93161D01*
X39974Y93146D01*
X39823Y93141D01*
X39764D01*
X39720Y93146D01*
X39671Y93151D01*
X39613Y93156D01*
X39549Y93166D01*
X39476Y93176D01*
X39325Y93210D01*
X39247Y93234D01*
X39169Y93259D01*
X39095Y93293D01*
X39022Y93327D01*
X38949Y93371D01*
X38886Y93420D01*
X38881Y93424D01*
X38871Y93434D01*
X38856Y93449D01*
X38832Y93473D01*
X38807Y93503D01*
X38778Y93537D01*
X38749Y93581D01*
X38715Y93625D01*
X38681Y93683D01*
X38646Y93742D01*
X38617Y93810D01*
X38583Y93883D01*
X38559Y93961D01*
X38534Y94049D01*
X38515Y94142D01*
X38500Y94239D01*
X39129Y94303D01*
Y94298D01*
X39134Y94288D01*
Y94274D01*
X39139Y94249D01*
X39154Y94195D01*
X39178Y94122D01*
X39208Y94049D01*
X39247Y93971D01*
X39295Y93898D01*
X39354Y93834D01*
X39364Y93830D01*
X39388Y93810D01*
X39427Y93791D01*
X39481Y93761D01*
X39549Y93737D01*
X39627Y93712D01*
X39720Y93693D01*
X39827Y93688D01*
X39881D01*
X39935Y93693D01*
X40003Y93703D01*
X40081Y93722D01*
X40159Y93742D01*
X40232Y93776D01*
X40296Y93820D01*
X40301Y93825D01*
X40320Y93844D01*
X40345Y93869D01*
X40379Y93908D01*
X40408Y93951D01*
X40433Y94005D01*
X40452Y94064D01*
X40457Y94127D01*
Y94132D01*
Y94147D01*
X40452Y94166D01*
X40447Y94195D01*
X40428Y94254D01*
X40413Y94288D01*
X40389Y94318D01*
X40384Y94322D01*
X40374Y94332D01*
X40359Y94347D01*
X40335Y94366D01*
X40301Y94391D01*
X40262Y94410D01*
X40213Y94435D01*
X40154Y94459D01*
X40149D01*
X40130Y94469D01*
X40096Y94479D01*
X40047Y94493D01*
X40018Y94503D01*
X39979Y94513D01*
X39940Y94523D01*
X39891Y94537D01*
X39837Y94552D01*
X39779Y94566D01*
X39715Y94581D01*
X39642Y94601D01*
X39637D01*
X39617Y94605D01*
X39593Y94615D01*
X39559Y94625D01*
X39515Y94635D01*
X39466Y94649D01*
X39359Y94688D01*
X39237Y94732D01*
X39115Y94786D01*
X39007Y94849D01*
X38959Y94884D01*
X38915Y94918D01*
X38910Y94923D01*
X38900Y94932D01*
X38886Y94947D01*
X38871Y94967D01*
X38846Y94991D01*
X38822Y95020D01*
X38798Y95059D01*
X38768Y95098D01*
X38715Y95191D01*
X38666Y95303D01*
X38651Y95362D01*
X38637Y95425D01*
X38627Y95494D01*
X38622Y95562D01*
Y95567D01*
Y95572D01*
Y95586D01*
Y95606D01*
X38632Y95650D01*
X38642Y95713D01*
X38656Y95781D01*
X38681Y95860D01*
X38715Y95938D01*
X38759Y96021D01*
Y96026D01*
X38763Y96030D01*
X38783Y96055D01*
X38817Y96094D01*
X38861Y96143D01*
X38915Y96196D01*
X38983Y96250D01*
X39061Y96304D01*
X39154Y96348D01*
X39159D01*
X39164Y96352D01*
X39183Y96357D01*
X39203Y96367D01*
X39227Y96372D01*
X39256Y96382D01*
X39330Y96406D01*
X39422Y96426D01*
X39530Y96440D01*
X39652Y96455D01*
X39783Y96460D01*
X39842D01*
X39881Y96455D01*
D02*
G37*
G36*
X99810Y132643D02*
X95398Y135118D01*
X91000Y132643D01*
X95398Y140310D01*
X99810Y132643D01*
D02*
G37*
G36*
X126742Y119468D02*
X128085D01*
Y118562D01*
X126742D01*
Y117234D01*
X125843D01*
Y118562D01*
X124500D01*
Y119468D01*
X125843D01*
Y120796D01*
X126742D01*
Y119468D01*
D02*
G37*
G36*
X45552Y93742D02*
X47157D01*
Y93200D01*
X44903D01*
Y96377D01*
X45552D01*
Y93742D01*
D02*
G37*
G36*
X43151Y96401D02*
X43243Y96396D01*
X43336Y96391D01*
X43424Y96382D01*
X43502Y96372D01*
X43512D01*
X43536Y96367D01*
X43570Y96357D01*
X43614Y96343D01*
X43668Y96328D01*
X43727Y96304D01*
X43780Y96274D01*
X43839Y96240D01*
X43844Y96235D01*
X43863Y96221D01*
X43892Y96201D01*
X43927Y96167D01*
X43961Y96128D01*
X44005Y96084D01*
X44044Y96030D01*
X44083Y95972D01*
X44088Y95962D01*
X44097Y95943D01*
X44117Y95908D01*
X44136Y95864D01*
X44151Y95806D01*
X44171Y95742D01*
X44180Y95674D01*
X44185Y95596D01*
Y95586D01*
Y95557D01*
X44180Y95513D01*
X44171Y95459D01*
X44156Y95396D01*
X44131Y95328D01*
X44102Y95254D01*
X44063Y95181D01*
X44058Y95171D01*
X44039Y95152D01*
X44014Y95118D01*
X43975Y95079D01*
X43927Y95030D01*
X43873Y94986D01*
X43805Y94942D01*
X43731Y94903D01*
X43736D01*
X43746Y94898D01*
X43761Y94893D01*
X43780Y94889D01*
X43834Y94864D01*
X43897Y94835D01*
X43971Y94796D01*
X44044Y94747D01*
X44117Y94683D01*
X44180Y94610D01*
X44185Y94601D01*
X44205Y94576D01*
X44229Y94532D01*
X44263Y94474D01*
X44293Y94401D01*
X44317Y94322D01*
X44337Y94230D01*
X44341Y94127D01*
Y94117D01*
Y94088D01*
X44337Y94049D01*
X44327Y93991D01*
X44317Y93927D01*
X44297Y93854D01*
X44273Y93781D01*
X44239Y93703D01*
X44234Y93693D01*
X44219Y93669D01*
X44195Y93629D01*
X44166Y93585D01*
X44127Y93532D01*
X44078Y93478D01*
X44024Y93420D01*
X43961Y93371D01*
X43951Y93366D01*
X43931Y93351D01*
X43892Y93332D01*
X43839Y93307D01*
X43775Y93278D01*
X43702Y93254D01*
X43619Y93234D01*
X43526Y93220D01*
X43507D01*
X43492Y93215D01*
X43443D01*
X43409Y93210D01*
X43321D01*
X43263Y93205D01*
X43131D01*
X43048Y93200D01*
X41657D01*
Y96406D01*
X43068D01*
X43151Y96401D01*
D02*
G37*
G36*
X23149Y33542D02*
X24755D01*
Y33000D01*
X22500D01*
Y36177D01*
X23149D01*
Y33542D01*
D02*
G37*
G36*
X94341Y47711D02*
X94380Y47706D01*
X94424Y47701D01*
X94478Y47692D01*
X94531Y47682D01*
X94643Y47643D01*
X94707Y47623D01*
X94766Y47594D01*
X94824Y47560D01*
X94888Y47521D01*
X94941Y47477D01*
X94995Y47423D01*
X95000Y47418D01*
X95005Y47413D01*
X95014Y47399D01*
X95029Y47384D01*
X95068Y47335D01*
X95112Y47267D01*
X95151Y47189D01*
X95190Y47101D01*
X95214Y46999D01*
X95224Y46945D01*
Y46891D01*
Y46886D01*
Y46872D01*
X95219Y46852D01*
Y46823D01*
X95210Y46784D01*
X95200Y46745D01*
X95185Y46701D01*
X95166Y46652D01*
X95141Y46598D01*
X95112Y46545D01*
X95073Y46486D01*
X95029Y46433D01*
X94975Y46374D01*
X94912Y46320D01*
X94844Y46267D01*
X94761Y46218D01*
X94766D01*
X94775Y46213D01*
X94785D01*
X94805Y46208D01*
X94858Y46189D01*
X94917Y46164D01*
X94990Y46130D01*
X95063Y46081D01*
X95131Y46023D01*
X95200Y45954D01*
X95205Y45944D01*
X95224Y45920D01*
X95253Y45876D01*
X95283Y45818D01*
X95312Y45744D01*
X95341Y45657D01*
X95361Y45564D01*
X95366Y45456D01*
Y45452D01*
Y45437D01*
Y45417D01*
X95361Y45388D01*
X95356Y45349D01*
X95351Y45310D01*
X95341Y45261D01*
X95327Y45208D01*
X95288Y45095D01*
X95263Y45037D01*
X95234Y44978D01*
X95200Y44915D01*
X95156Y44856D01*
X95107Y44798D01*
X95053Y44739D01*
X95049Y44734D01*
X95039Y44725D01*
X95024Y44710D01*
X95000Y44695D01*
X94971Y44671D01*
X94931Y44646D01*
X94892Y44617D01*
X94844Y44593D01*
X94790Y44563D01*
X94731Y44534D01*
X94668Y44510D01*
X94600Y44490D01*
X94526Y44471D01*
X94453Y44456D01*
X94370Y44446D01*
X94287Y44441D01*
X94243D01*
X94214Y44446D01*
X94175Y44451D01*
X94131Y44456D01*
X94082Y44461D01*
X94033Y44471D01*
X93916Y44500D01*
X93794Y44549D01*
X93736Y44573D01*
X93672Y44607D01*
X93614Y44646D01*
X93560Y44690D01*
X93555Y44695D01*
X93550Y44700D01*
X93536Y44715D01*
X93516Y44734D01*
X93492Y44759D01*
X93467Y44793D01*
X93443Y44827D01*
X93414Y44866D01*
X93355Y44959D01*
X93301Y45071D01*
X93258Y45198D01*
X93243Y45271D01*
X93233Y45344D01*
X93829Y45417D01*
Y45413D01*
Y45408D01*
X93833Y45378D01*
X93843Y45339D01*
X93858Y45286D01*
X93877Y45232D01*
X93902Y45173D01*
X93936Y45115D01*
X93980Y45066D01*
X93985Y45061D01*
X94004Y45047D01*
X94029Y45027D01*
X94068Y45008D01*
X94112Y44988D01*
X94160Y44969D01*
X94219Y44954D01*
X94282Y44949D01*
X94317D01*
X94351Y44959D01*
X94395Y44969D01*
X94443Y44983D01*
X94497Y45008D01*
X94551Y45042D01*
X94604Y45090D01*
X94609Y45095D01*
X94624Y45120D01*
X94648Y45149D01*
X94673Y45193D01*
X94692Y45252D01*
X94717Y45320D01*
X94731Y45398D01*
X94736Y45486D01*
Y45491D01*
Y45496D01*
Y45525D01*
X94731Y45569D01*
X94722Y45622D01*
X94707Y45681D01*
X94683Y45739D01*
X94653Y45803D01*
X94609Y45857D01*
X94604Y45862D01*
X94585Y45876D01*
X94561Y45901D01*
X94521Y45925D01*
X94478Y45949D01*
X94424Y45974D01*
X94365Y45988D01*
X94302Y45993D01*
X94258D01*
X94224Y45988D01*
X94185Y45983D01*
X94136Y45974D01*
X94082Y45959D01*
X94024Y45944D01*
X94092Y46442D01*
X94131D01*
X94180Y46447D01*
X94234Y46452D01*
X94292Y46462D01*
X94356Y46481D01*
X94419Y46511D01*
X94473Y46545D01*
X94478Y46550D01*
X94492Y46564D01*
X94517Y46593D01*
X94541Y46628D01*
X94565Y46672D01*
X94590Y46725D01*
X94604Y46784D01*
X94609Y46852D01*
Y46857D01*
Y46881D01*
X94604Y46911D01*
X94600Y46945D01*
X94585Y46984D01*
X94570Y47028D01*
X94546Y47072D01*
X94512Y47111D01*
X94507Y47116D01*
X94492Y47125D01*
X94473Y47140D01*
X94443Y47160D01*
X94404Y47179D01*
X94361Y47194D01*
X94307Y47203D01*
X94248Y47208D01*
X94224D01*
X94195Y47203D01*
X94156Y47194D01*
X94112Y47179D01*
X94068Y47160D01*
X94019Y47135D01*
X93975Y47096D01*
X93970Y47091D01*
X93955Y47077D01*
X93941Y47052D01*
X93916Y47018D01*
X93892Y46969D01*
X93872Y46916D01*
X93853Y46852D01*
X93843Y46779D01*
X93277Y46872D01*
Y46877D01*
X93282Y46886D01*
Y46901D01*
X93287Y46920D01*
X93301Y46974D01*
X93321Y47043D01*
X93345Y47116D01*
X93375Y47194D01*
X93414Y47272D01*
X93453Y47340D01*
X93458Y47350D01*
X93477Y47369D01*
X93502Y47399D01*
X93541Y47443D01*
X93589Y47487D01*
X93643Y47530D01*
X93711Y47574D01*
X93785Y47613D01*
X93789D01*
X93794Y47618D01*
X93824Y47628D01*
X93868Y47648D01*
X93926Y47667D01*
X93999Y47682D01*
X94077Y47701D01*
X94170Y47711D01*
X94268Y47716D01*
X94312D01*
X94341Y47711D01*
D02*
G37*
G36*
X90608D02*
X90647Y47706D01*
X90691Y47701D01*
X90744Y47692D01*
X90798Y47682D01*
X90910Y47643D01*
X90974Y47623D01*
X91032Y47594D01*
X91091Y47560D01*
X91154Y47521D01*
X91208Y47477D01*
X91262Y47423D01*
X91267Y47418D01*
X91271Y47413D01*
X91281Y47399D01*
X91296Y47384D01*
X91335Y47335D01*
X91379Y47267D01*
X91418Y47189D01*
X91457Y47101D01*
X91481Y46999D01*
X91491Y46945D01*
Y46891D01*
Y46886D01*
Y46872D01*
X91486Y46852D01*
Y46823D01*
X91476Y46784D01*
X91467Y46745D01*
X91452Y46701D01*
X91432Y46652D01*
X91408Y46598D01*
X91379Y46545D01*
X91340Y46486D01*
X91296Y46433D01*
X91242Y46374D01*
X91179Y46320D01*
X91110Y46267D01*
X91027Y46218D01*
X91032D01*
X91042Y46213D01*
X91052D01*
X91071Y46208D01*
X91125Y46189D01*
X91184Y46164D01*
X91257Y46130D01*
X91330Y46081D01*
X91398Y46023D01*
X91467Y45954D01*
X91471Y45944D01*
X91491Y45920D01*
X91520Y45876D01*
X91550Y45818D01*
X91579Y45744D01*
X91608Y45657D01*
X91628Y45564D01*
X91633Y45456D01*
Y45452D01*
Y45437D01*
Y45417D01*
X91628Y45388D01*
X91623Y45349D01*
X91618Y45310D01*
X91608Y45261D01*
X91593Y45208D01*
X91554Y45095D01*
X91530Y45037D01*
X91501Y44978D01*
X91467Y44915D01*
X91423Y44856D01*
X91374Y44798D01*
X91320Y44739D01*
X91315Y44734D01*
X91306Y44725D01*
X91291Y44710D01*
X91267Y44695D01*
X91237Y44671D01*
X91198Y44646D01*
X91159Y44617D01*
X91110Y44593D01*
X91057Y44563D01*
X90998Y44534D01*
X90935Y44510D01*
X90866Y44490D01*
X90793Y44471D01*
X90720Y44456D01*
X90637Y44446D01*
X90554Y44441D01*
X90510D01*
X90481Y44446D01*
X90442Y44451D01*
X90398Y44456D01*
X90349Y44461D01*
X90300Y44471D01*
X90183Y44500D01*
X90061Y44549D01*
X90003Y44573D01*
X89939Y44607D01*
X89881Y44646D01*
X89827Y44690D01*
X89822Y44695D01*
X89817Y44700D01*
X89803Y44715D01*
X89783Y44734D01*
X89759Y44759D01*
X89734Y44793D01*
X89710Y44827D01*
X89681Y44866D01*
X89622Y44959D01*
X89568Y45071D01*
X89524Y45198D01*
X89510Y45271D01*
X89500Y45344D01*
X90095Y45417D01*
Y45413D01*
Y45408D01*
X90100Y45378D01*
X90110Y45339D01*
X90125Y45286D01*
X90144Y45232D01*
X90169Y45173D01*
X90203Y45115D01*
X90247Y45066D01*
X90251Y45061D01*
X90271Y45047D01*
X90295Y45027D01*
X90334Y45008D01*
X90378Y44988D01*
X90427Y44969D01*
X90486Y44954D01*
X90549Y44949D01*
X90583D01*
X90618Y44959D01*
X90661Y44969D01*
X90710Y44983D01*
X90764Y45008D01*
X90818Y45042D01*
X90871Y45090D01*
X90876Y45095D01*
X90891Y45120D01*
X90915Y45149D01*
X90940Y45193D01*
X90959Y45252D01*
X90983Y45320D01*
X90998Y45398D01*
X91003Y45486D01*
Y45491D01*
Y45496D01*
Y45525D01*
X90998Y45569D01*
X90988Y45622D01*
X90974Y45681D01*
X90949Y45739D01*
X90920Y45803D01*
X90876Y45857D01*
X90871Y45862D01*
X90852Y45876D01*
X90827Y45901D01*
X90788Y45925D01*
X90744Y45949D01*
X90691Y45974D01*
X90632Y45988D01*
X90569Y45993D01*
X90525D01*
X90491Y45988D01*
X90452Y45983D01*
X90403Y45974D01*
X90349Y45959D01*
X90291Y45944D01*
X90359Y46442D01*
X90398D01*
X90447Y46447D01*
X90500Y46452D01*
X90559Y46462D01*
X90622Y46481D01*
X90686Y46511D01*
X90740Y46545D01*
X90744Y46550D01*
X90759Y46564D01*
X90783Y46593D01*
X90808Y46628D01*
X90832Y46672D01*
X90857Y46725D01*
X90871Y46784D01*
X90876Y46852D01*
Y46857D01*
Y46881D01*
X90871Y46911D01*
X90866Y46945D01*
X90852Y46984D01*
X90837Y47028D01*
X90813Y47072D01*
X90779Y47111D01*
X90774Y47116D01*
X90759Y47125D01*
X90740Y47140D01*
X90710Y47160D01*
X90671Y47179D01*
X90627Y47194D01*
X90574Y47203D01*
X90515Y47208D01*
X90491D01*
X90461Y47203D01*
X90422Y47194D01*
X90378Y47179D01*
X90334Y47160D01*
X90286Y47135D01*
X90242Y47096D01*
X90237Y47091D01*
X90222Y47077D01*
X90208Y47052D01*
X90183Y47018D01*
X90159Y46969D01*
X90139Y46916D01*
X90120Y46852D01*
X90110Y46779D01*
X89544Y46872D01*
Y46877D01*
X89549Y46886D01*
Y46901D01*
X89554Y46920D01*
X89568Y46974D01*
X89588Y47043D01*
X89612Y47116D01*
X89641Y47194D01*
X89681Y47272D01*
X89720Y47340D01*
X89724Y47350D01*
X89744Y47369D01*
X89768Y47399D01*
X89807Y47443D01*
X89856Y47487D01*
X89910Y47530D01*
X89978Y47574D01*
X90051Y47613D01*
X90056D01*
X90061Y47618D01*
X90091Y47628D01*
X90134Y47648D01*
X90193Y47667D01*
X90266Y47682D01*
X90344Y47701D01*
X90437Y47711D01*
X90535Y47716D01*
X90579D01*
X90608Y47711D01*
D02*
G37*
G36*
X104778Y46169D02*
X105880Y44500D01*
X105100D01*
X104392Y45583D01*
X103680Y44500D01*
X102904D01*
X104011Y46169D01*
X103006Y47706D01*
X103762D01*
X104392Y46745D01*
X105026Y47706D01*
X105783D01*
X104778Y46169D01*
D02*
G37*
G36*
X101479Y47701D02*
X101581D01*
X101635Y47696D01*
X101757Y47687D01*
X101879Y47667D01*
X101996Y47648D01*
X102050Y47633D01*
X102094Y47618D01*
X102098D01*
X102103Y47613D01*
X102133Y47604D01*
X102176Y47579D01*
X102230Y47545D01*
X102289Y47501D01*
X102352Y47447D01*
X102411Y47384D01*
X102469Y47306D01*
X102474Y47296D01*
X102494Y47267D01*
X102513Y47223D01*
X102542Y47160D01*
X102567Y47086D01*
X102591Y47003D01*
X102606Y46906D01*
X102611Y46803D01*
Y46799D01*
Y46789D01*
Y46769D01*
X102606Y46745D01*
Y46711D01*
X102601Y46676D01*
X102586Y46593D01*
X102557Y46501D01*
X102518Y46398D01*
X102469Y46301D01*
X102435Y46252D01*
X102396Y46208D01*
Y46203D01*
X102386Y46198D01*
X102372Y46189D01*
X102357Y46169D01*
X102333Y46154D01*
X102308Y46130D01*
X102274Y46106D01*
X102240Y46081D01*
X102196Y46057D01*
X102152Y46032D01*
X102098Y46008D01*
X102040Y45983D01*
X101981Y45959D01*
X101913Y45940D01*
X101845Y45925D01*
X101767Y45910D01*
X101771D01*
X101776Y45905D01*
X101801Y45891D01*
X101840Y45866D01*
X101889Y45832D01*
X101942Y45793D01*
X102001Y45744D01*
X102059Y45696D01*
X102113Y45642D01*
X102118Y45637D01*
X102137Y45613D01*
X102167Y45579D01*
X102211Y45525D01*
X102264Y45452D01*
X102323Y45364D01*
X102362Y45310D01*
X102396Y45252D01*
X102435Y45193D01*
X102479Y45125D01*
X102869Y44500D01*
X102094D01*
X101635Y45193D01*
X101630Y45198D01*
X101625Y45208D01*
X101610Y45227D01*
X101596Y45252D01*
X101576Y45286D01*
X101552Y45315D01*
X101498Y45393D01*
X101444Y45476D01*
X101386Y45549D01*
X101332Y45617D01*
X101313Y45647D01*
X101293Y45666D01*
X101288Y45671D01*
X101279Y45681D01*
X101259Y45700D01*
X101235Y45720D01*
X101171Y45764D01*
X101137Y45783D01*
X101098Y45798D01*
X101093D01*
X101078Y45803D01*
X101054Y45813D01*
X101020Y45818D01*
X100976Y45827D01*
X100922Y45832D01*
X100854Y45837D01*
X100649D01*
Y44500D01*
X100000D01*
Y47706D01*
X101435D01*
X101479Y47701D01*
D02*
G37*
G36*
X92755Y44500D02*
X92140D01*
Y45115D01*
X92755D01*
Y44500D01*
D02*
G37*
G36*
X79345D02*
X78647D01*
X77500Y47706D01*
X78198D01*
X79013Y45335D01*
X79794Y47706D01*
X80487D01*
X79345Y44500D01*
D02*
G37*
G36*
X72118Y47711D02*
X72157Y47706D01*
X72201Y47696D01*
X72249Y47687D01*
X72303Y47672D01*
X72361Y47657D01*
X72420Y47633D01*
X72483Y47609D01*
X72542Y47574D01*
X72601Y47535D01*
X72659Y47491D01*
X72713Y47438D01*
X72767Y47379D01*
X72771Y47374D01*
X72781Y47360D01*
X72796Y47335D01*
X72815Y47306D01*
X72840Y47262D01*
X72864Y47208D01*
X72893Y47145D01*
X72923Y47072D01*
X72952Y46984D01*
X72981Y46891D01*
X73006Y46784D01*
X73030Y46667D01*
X73050Y46535D01*
X73064Y46393D01*
X73074Y46242D01*
X73079Y46076D01*
Y46071D01*
Y46066D01*
Y46037D01*
Y45988D01*
X73074Y45930D01*
X73069Y45852D01*
X73064Y45769D01*
X73054Y45671D01*
X73040Y45569D01*
X73001Y45354D01*
X72976Y45247D01*
X72947Y45139D01*
X72908Y45037D01*
X72864Y44939D01*
X72815Y44846D01*
X72762Y44768D01*
X72757Y44763D01*
X72752Y44754D01*
X72737Y44739D01*
X72713Y44720D01*
X72689Y44690D01*
X72654Y44666D01*
X72620Y44637D01*
X72576Y44607D01*
X72527Y44573D01*
X72474Y44544D01*
X72410Y44519D01*
X72347Y44495D01*
X72279Y44471D01*
X72205Y44456D01*
X72122Y44446D01*
X72039Y44441D01*
X72020D01*
X71996Y44446D01*
X71961D01*
X71922Y44451D01*
X71878Y44461D01*
X71825Y44471D01*
X71771Y44485D01*
X71712Y44505D01*
X71649Y44529D01*
X71586Y44559D01*
X71522Y44593D01*
X71459Y44632D01*
X71400Y44681D01*
X71337Y44734D01*
X71283Y44798D01*
X71278Y44803D01*
X71273Y44817D01*
X71259Y44837D01*
X71239Y44871D01*
X71220Y44910D01*
X71195Y44959D01*
X71166Y45022D01*
X71141Y45095D01*
X71117Y45178D01*
X71088Y45271D01*
X71063Y45373D01*
X71044Y45491D01*
X71024Y45622D01*
X71015Y45759D01*
X71005Y45915D01*
X71000Y46081D01*
Y46086D01*
Y46091D01*
Y46120D01*
Y46169D01*
X71005Y46227D01*
X71010Y46306D01*
X71015Y46389D01*
X71024Y46481D01*
X71039Y46584D01*
X71078Y46799D01*
X71102Y46906D01*
X71132Y47013D01*
X71166Y47116D01*
X71210Y47213D01*
X71259Y47306D01*
X71312Y47384D01*
X71317Y47389D01*
X71322Y47399D01*
X71342Y47413D01*
X71361Y47438D01*
X71386Y47462D01*
X71420Y47491D01*
X71459Y47521D01*
X71503Y47550D01*
X71551Y47579D01*
X71605Y47613D01*
X71664Y47638D01*
X71727Y47662D01*
X71800Y47687D01*
X71873Y47701D01*
X71956Y47711D01*
X72039Y47716D01*
X72083D01*
X72118Y47711D01*
D02*
G37*
G36*
X85523Y47755D02*
X85571Y47750D01*
X85630Y47740D01*
X85694Y47731D01*
X85762Y47716D01*
X85840Y47696D01*
X85913Y47672D01*
X85996Y47648D01*
X86074Y47613D01*
X86152Y47570D01*
X86230Y47526D01*
X86304Y47472D01*
X86377Y47409D01*
X86382D01*
X86387Y47399D01*
X86411Y47369D01*
X86450Y47326D01*
X86499Y47257D01*
X86552Y47174D01*
X86611Y47077D01*
X86665Y46959D01*
X86709Y46823D01*
X86069Y46672D01*
Y46676D01*
X86064Y46681D01*
X86059Y46711D01*
X86040Y46755D01*
X86016Y46813D01*
X85986Y46877D01*
X85942Y46940D01*
X85894Y47003D01*
X85830Y47062D01*
X85820Y47067D01*
X85796Y47086D01*
X85762Y47111D01*
X85708Y47135D01*
X85645Y47164D01*
X85567Y47184D01*
X85484Y47203D01*
X85391Y47208D01*
X85357D01*
X85332Y47203D01*
X85303Y47199D01*
X85269Y47194D01*
X85186Y47174D01*
X85093Y47145D01*
X84996Y47101D01*
X84952Y47072D01*
X84903Y47038D01*
X84859Y46994D01*
X84815Y46950D01*
Y46945D01*
X84805Y46940D01*
X84796Y46920D01*
X84781Y46901D01*
X84766Y46872D01*
X84747Y46837D01*
X84727Y46799D01*
X84708Y46750D01*
X84683Y46696D01*
X84664Y46637D01*
X84644Y46569D01*
X84630Y46491D01*
X84615Y46413D01*
X84605Y46320D01*
X84600Y46223D01*
X84596Y46120D01*
Y46115D01*
Y46096D01*
Y46062D01*
X84600Y46023D01*
Y45969D01*
X84605Y45915D01*
X84615Y45852D01*
X84625Y45783D01*
X84649Y45642D01*
X84688Y45496D01*
X84713Y45427D01*
X84742Y45364D01*
X84771Y45305D01*
X84810Y45252D01*
X84815Y45247D01*
X84820Y45242D01*
X84849Y45213D01*
X84898Y45173D01*
X84961Y45125D01*
X85044Y45076D01*
X85142Y45037D01*
X85254Y45008D01*
X85313Y45003D01*
X85376Y44998D01*
X85401D01*
X85420Y45003D01*
X85469Y45008D01*
X85528Y45017D01*
X85601Y45037D01*
X85674Y45066D01*
X85747Y45105D01*
X85820Y45159D01*
X85830Y45169D01*
X85850Y45188D01*
X85884Y45232D01*
X85923Y45286D01*
X85967Y45359D01*
X86011Y45452D01*
X86055Y45554D01*
X86089Y45681D01*
X86718Y45486D01*
Y45481D01*
X86713Y45461D01*
X86704Y45437D01*
X86689Y45398D01*
X86674Y45354D01*
X86655Y45305D01*
X86630Y45247D01*
X86601Y45188D01*
X86538Y45061D01*
X86455Y44929D01*
X86352Y44807D01*
X86299Y44749D01*
X86235Y44700D01*
X86230Y44695D01*
X86221Y44690D01*
X86201Y44676D01*
X86177Y44661D01*
X86142Y44642D01*
X86103Y44622D01*
X86055Y44598D01*
X86001Y44573D01*
X85942Y44549D01*
X85879Y44524D01*
X85811Y44505D01*
X85737Y44485D01*
X85654Y44471D01*
X85571Y44456D01*
X85479Y44451D01*
X85386Y44446D01*
X85357D01*
X85323Y44451D01*
X85279D01*
X85225Y44461D01*
X85162Y44471D01*
X85093Y44480D01*
X85015Y44500D01*
X84932Y44524D01*
X84849Y44554D01*
X84761Y44588D01*
X84674Y44632D01*
X84586Y44681D01*
X84498Y44739D01*
X84415Y44803D01*
X84337Y44881D01*
X84332Y44886D01*
X84317Y44900D01*
X84298Y44925D01*
X84273Y44959D01*
X84244Y45003D01*
X84205Y45056D01*
X84171Y45120D01*
X84132Y45193D01*
X84093Y45271D01*
X84059Y45364D01*
X84025Y45461D01*
X83990Y45569D01*
X83966Y45681D01*
X83947Y45803D01*
X83932Y45935D01*
X83927Y46071D01*
Y46081D01*
Y46106D01*
X83932Y46149D01*
Y46203D01*
X83942Y46271D01*
X83947Y46349D01*
X83961Y46433D01*
X83981Y46525D01*
X84000Y46628D01*
X84029Y46725D01*
X84059Y46833D01*
X84098Y46935D01*
X84147Y47038D01*
X84200Y47135D01*
X84264Y47228D01*
X84337Y47316D01*
X84342Y47321D01*
X84356Y47335D01*
X84381Y47355D01*
X84410Y47384D01*
X84454Y47418D01*
X84503Y47457D01*
X84561Y47496D01*
X84630Y47540D01*
X84703Y47579D01*
X84786Y47618D01*
X84874Y47657D01*
X84971Y47692D01*
X85074Y47721D01*
X85186Y47740D01*
X85303Y47755D01*
X85425Y47760D01*
X85484D01*
X85523Y47755D01*
D02*
G37*
G36*
X82292D02*
X82341Y47750D01*
X82399Y47740D01*
X82463Y47731D01*
X82531Y47716D01*
X82609Y47696D01*
X82683Y47672D01*
X82766Y47648D01*
X82844Y47613D01*
X82922Y47570D01*
X83000Y47526D01*
X83073Y47472D01*
X83146Y47409D01*
X83151D01*
X83156Y47399D01*
X83180Y47369D01*
X83219Y47326D01*
X83268Y47257D01*
X83322Y47174D01*
X83380Y47077D01*
X83434Y46959D01*
X83478Y46823D01*
X82839Y46672D01*
Y46676D01*
X82834Y46681D01*
X82829Y46711D01*
X82809Y46755D01*
X82785Y46813D01*
X82756Y46877D01*
X82712Y46940D01*
X82663Y47003D01*
X82600Y47062D01*
X82590Y47067D01*
X82565Y47086D01*
X82531Y47111D01*
X82478Y47135D01*
X82414Y47164D01*
X82336Y47184D01*
X82253Y47203D01*
X82160Y47208D01*
X82126D01*
X82102Y47203D01*
X82073Y47199D01*
X82038Y47194D01*
X81955Y47174D01*
X81863Y47145D01*
X81765Y47101D01*
X81721Y47072D01*
X81672Y47038D01*
X81629Y46994D01*
X81585Y46950D01*
Y46945D01*
X81575Y46940D01*
X81565Y46920D01*
X81550Y46901D01*
X81536Y46872D01*
X81516Y46837D01*
X81497Y46799D01*
X81477Y46750D01*
X81453Y46696D01*
X81433Y46637D01*
X81414Y46569D01*
X81399Y46491D01*
X81384Y46413D01*
X81375Y46320D01*
X81370Y46223D01*
X81365Y46120D01*
Y46115D01*
Y46096D01*
Y46062D01*
X81370Y46023D01*
Y45969D01*
X81375Y45915D01*
X81384Y45852D01*
X81394Y45783D01*
X81419Y45642D01*
X81458Y45496D01*
X81482Y45427D01*
X81511Y45364D01*
X81541Y45305D01*
X81580Y45252D01*
X81585Y45247D01*
X81589Y45242D01*
X81619Y45213D01*
X81668Y45173D01*
X81731Y45125D01*
X81814Y45076D01*
X81911Y45037D01*
X82024Y45008D01*
X82082Y45003D01*
X82146Y44998D01*
X82170D01*
X82190Y45003D01*
X82239Y45008D01*
X82297Y45017D01*
X82370Y45037D01*
X82443Y45066D01*
X82517Y45105D01*
X82590Y45159D01*
X82600Y45169D01*
X82619Y45188D01*
X82653Y45232D01*
X82692Y45286D01*
X82736Y45359D01*
X82780Y45452D01*
X82824Y45554D01*
X82858Y45681D01*
X83488Y45486D01*
Y45481D01*
X83483Y45461D01*
X83473Y45437D01*
X83459Y45398D01*
X83444Y45354D01*
X83424Y45305D01*
X83400Y45247D01*
X83371Y45188D01*
X83307Y45061D01*
X83224Y44929D01*
X83122Y44807D01*
X83068Y44749D01*
X83005Y44700D01*
X83000Y44695D01*
X82990Y44690D01*
X82970Y44676D01*
X82946Y44661D01*
X82912Y44642D01*
X82873Y44622D01*
X82824Y44598D01*
X82770Y44573D01*
X82712Y44549D01*
X82648Y44524D01*
X82580Y44505D01*
X82507Y44485D01*
X82424Y44471D01*
X82341Y44456D01*
X82248Y44451D01*
X82156Y44446D01*
X82126D01*
X82092Y44451D01*
X82048D01*
X81994Y44461D01*
X81931Y44471D01*
X81863Y44480D01*
X81785Y44500D01*
X81702Y44524D01*
X81619Y44554D01*
X81531Y44588D01*
X81443Y44632D01*
X81355Y44681D01*
X81267Y44739D01*
X81184Y44803D01*
X81106Y44881D01*
X81101Y44886D01*
X81087Y44900D01*
X81067Y44925D01*
X81043Y44959D01*
X81014Y45003D01*
X80975Y45056D01*
X80940Y45120D01*
X80901Y45193D01*
X80862Y45271D01*
X80828Y45364D01*
X80794Y45461D01*
X80760Y45569D01*
X80735Y45681D01*
X80716Y45803D01*
X80701Y45935D01*
X80696Y46071D01*
Y46081D01*
Y46106D01*
X80701Y46149D01*
Y46203D01*
X80711Y46271D01*
X80716Y46349D01*
X80731Y46433D01*
X80750Y46525D01*
X80770Y46628D01*
X80799Y46725D01*
X80828Y46833D01*
X80867Y46935D01*
X80916Y47038D01*
X80970Y47135D01*
X81033Y47228D01*
X81106Y47316D01*
X81111Y47321D01*
X81126Y47335D01*
X81150Y47355D01*
X81179Y47384D01*
X81223Y47418D01*
X81272Y47457D01*
X81331Y47496D01*
X81399Y47540D01*
X81472Y47579D01*
X81555Y47618D01*
X81643Y47657D01*
X81741Y47692D01*
X81843Y47721D01*
X81955Y47740D01*
X82073Y47755D01*
X82195Y47760D01*
X82253D01*
X82292Y47755D01*
D02*
G37*
G36*
X137160Y118036D02*
X135000D01*
Y119143D01*
X137160D01*
Y118036D01*
D02*
G37*
G36*
X32810Y132643D02*
X28398Y135118D01*
X24000Y132643D01*
X28398Y140310D01*
X32810Y132643D01*
D02*
G37*
G36*
X48710Y139209D02*
X48796Y139201D01*
X48890Y139194D01*
X48991Y139178D01*
X49101Y139162D01*
X49335Y139116D01*
X49577Y139037D01*
X49694Y138991D01*
X49804Y138928D01*
X49913Y138866D01*
X50007Y138787D01*
X50015Y138780D01*
X50030Y138764D01*
X50054Y138741D01*
X50085Y138709D01*
X50124Y138670D01*
X50163Y138616D01*
X50210Y138553D01*
X50257Y138483D01*
X50304Y138405D01*
X50343Y138319D01*
X50428Y138131D01*
X50460Y138022D01*
X50491Y137905D01*
X50514Y137780D01*
X50522Y137655D01*
X49483Y137616D01*
Y137624D01*
Y137632D01*
X49468Y137679D01*
X49452Y137749D01*
X49421Y137835D01*
X49382Y137928D01*
X49335Y138022D01*
X49273Y138108D01*
X49194Y138178D01*
X49187Y138186D01*
X49155Y138210D01*
X49108Y138233D01*
X49038Y138272D01*
X48945Y138303D01*
X48835Y138327D01*
X48702Y138350D01*
X48546Y138358D01*
X48476D01*
X48390Y138350D01*
X48289Y138335D01*
X48179Y138311D01*
X48062Y138280D01*
X47945Y138233D01*
X47843Y138171D01*
X47835Y138163D01*
X47820Y138147D01*
X47796Y138124D01*
X47765Y138085D01*
X47734Y138038D01*
X47711Y137983D01*
X47695Y137921D01*
X47687Y137850D01*
Y137843D01*
Y137819D01*
X47695Y137788D01*
X47703Y137741D01*
X47726Y137694D01*
X47750Y137639D01*
X47789Y137593D01*
X47835Y137538D01*
X47843Y137530D01*
X47875Y137507D01*
X47937Y137476D01*
X47976Y137460D01*
X48031Y137436D01*
X48085Y137405D01*
X48156Y137382D01*
X48226Y137350D01*
X48320Y137327D01*
X48414Y137296D01*
X48523Y137265D01*
X48648Y137225D01*
X48781Y137194D01*
X48788D01*
X48812Y137187D01*
X48851Y137179D01*
X48906Y137163D01*
X48968Y137147D01*
X49038Y137124D01*
X49202Y137085D01*
X49390Y137022D01*
X49569Y136968D01*
X49749Y136898D01*
X49827Y136866D01*
X49897Y136827D01*
X49905D01*
X49913Y136819D01*
X49960Y136796D01*
X50022Y136749D01*
X50100Y136695D01*
X50194Y136616D01*
X50288Y136530D01*
X50374Y136421D01*
X50460Y136304D01*
X50467Y136288D01*
X50491Y136249D01*
X50530Y136171D01*
X50569Y136077D01*
X50600Y135960D01*
X50639Y135820D01*
X50663Y135663D01*
X50670Y135492D01*
Y135484D01*
Y135468D01*
Y135445D01*
Y135414D01*
X50655Y135328D01*
X50639Y135218D01*
X50608Y135093D01*
X50569Y134953D01*
X50507Y134804D01*
X50421Y134656D01*
Y134648D01*
X50413Y134640D01*
X50374Y134594D01*
X50319Y134523D01*
X50241Y134445D01*
X50147Y134351D01*
X50022Y134258D01*
X49889Y134164D01*
X49725Y134086D01*
X49718D01*
X49702Y134078D01*
X49679Y134070D01*
X49647Y134055D01*
X49601Y134047D01*
X49554Y134031D01*
X49491Y134016D01*
X49421Y134000D01*
X49257Y133961D01*
X49069Y133938D01*
X48859Y133914D01*
X48616Y133906D01*
X48523D01*
X48452Y133914D01*
X48374Y133922D01*
X48281Y133930D01*
X48179Y133945D01*
X48062Y133961D01*
X47820Y134016D01*
X47695Y134055D01*
X47570Y134094D01*
X47453Y134148D01*
X47336Y134203D01*
X47218Y134273D01*
X47117Y134351D01*
X47109Y134359D01*
X47094Y134375D01*
X47070Y134398D01*
X47031Y134437D01*
X46992Y134484D01*
X46945Y134539D01*
X46898Y134609D01*
X46844Y134679D01*
X46789Y134773D01*
X46734Y134867D01*
X46687Y134976D01*
X46633Y135093D01*
X46594Y135218D01*
X46555Y135359D01*
X46523Y135507D01*
X46500Y135663D01*
X47508Y135765D01*
Y135757D01*
X47515Y135742D01*
Y135718D01*
X47523Y135679D01*
X47546Y135593D01*
X47586Y135476D01*
X47633Y135359D01*
X47695Y135234D01*
X47773Y135117D01*
X47867Y135015D01*
X47882Y135008D01*
X47921Y134976D01*
X47984Y134945D01*
X48070Y134898D01*
X48179Y134859D01*
X48304Y134820D01*
X48452Y134789D01*
X48624Y134781D01*
X48710D01*
X48796Y134789D01*
X48906Y134804D01*
X49030Y134836D01*
X49155Y134867D01*
X49273Y134922D01*
X49374Y134992D01*
X49382Y135000D01*
X49413Y135031D01*
X49452Y135070D01*
X49507Y135132D01*
X49554Y135203D01*
X49593Y135289D01*
X49624Y135382D01*
X49632Y135484D01*
Y135492D01*
Y135515D01*
X49624Y135546D01*
X49616Y135593D01*
X49585Y135687D01*
X49562Y135742D01*
X49523Y135789D01*
X49515Y135796D01*
X49499Y135812D01*
X49476Y135835D01*
X49437Y135867D01*
X49382Y135906D01*
X49319Y135937D01*
X49241Y135976D01*
X49148Y136015D01*
X49140D01*
X49108Y136031D01*
X49054Y136046D01*
X48976Y136070D01*
X48929Y136085D01*
X48866Y136101D01*
X48804Y136117D01*
X48726Y136140D01*
X48640Y136163D01*
X48546Y136187D01*
X48445Y136210D01*
X48327Y136241D01*
X48320D01*
X48289Y136249D01*
X48249Y136265D01*
X48195Y136281D01*
X48125Y136296D01*
X48046Y136320D01*
X47875Y136382D01*
X47679Y136452D01*
X47484Y136538D01*
X47312Y136640D01*
X47234Y136695D01*
X47164Y136749D01*
X47156Y136757D01*
X47140Y136773D01*
X47117Y136796D01*
X47094Y136827D01*
X47054Y136866D01*
X47016Y136913D01*
X46976Y136976D01*
X46930Y137038D01*
X46844Y137187D01*
X46766Y137366D01*
X46742Y137460D01*
X46719Y137561D01*
X46703Y137671D01*
X46695Y137780D01*
Y137788D01*
Y137796D01*
Y137819D01*
Y137850D01*
X46711Y137921D01*
X46727Y138022D01*
X46750Y138131D01*
X46789Y138256D01*
X46844Y138381D01*
X46914Y138514D01*
Y138522D01*
X46922Y138530D01*
X46953Y138569D01*
X47008Y138631D01*
X47078Y138709D01*
X47164Y138795D01*
X47273Y138881D01*
X47398Y138967D01*
X47546Y139037D01*
X47554D01*
X47562Y139045D01*
X47593Y139053D01*
X47625Y139069D01*
X47664Y139076D01*
X47711Y139092D01*
X47828Y139131D01*
X47976Y139162D01*
X48148Y139186D01*
X48343Y139209D01*
X48554Y139217D01*
X48648D01*
X48710Y139209D01*
D02*
G37*
G36*
X85550Y65867D02*
X85585Y65862D01*
X85629Y65852D01*
X85677Y65838D01*
X85726Y65823D01*
X85780Y65803D01*
X85838Y65779D01*
X85897Y65750D01*
X85956Y65711D01*
X86014Y65667D01*
X86073Y65618D01*
X86131Y65559D01*
X86185Y65491D01*
Y65823D01*
X86761D01*
Y63734D01*
Y63729D01*
Y63715D01*
Y63695D01*
Y63666D01*
Y63632D01*
X86756Y63593D01*
X86751Y63505D01*
X86746Y63407D01*
X86731Y63305D01*
X86717Y63207D01*
X86702Y63163D01*
X86692Y63124D01*
X86687Y63115D01*
X86678Y63090D01*
X86663Y63051D01*
X86644Y63007D01*
X86614Y62953D01*
X86585Y62900D01*
X86546Y62851D01*
X86502Y62802D01*
X86497Y62797D01*
X86478Y62783D01*
X86453Y62763D01*
X86414Y62734D01*
X86370Y62705D01*
X86312Y62675D01*
X86248Y62646D01*
X86175Y62622D01*
X86165Y62617D01*
X86136Y62612D01*
X86092Y62602D01*
X86034Y62587D01*
X85960Y62573D01*
X85873Y62563D01*
X85770Y62558D01*
X85658Y62553D01*
X85604D01*
X85560Y62558D01*
X85511D01*
X85458Y62563D01*
X85399Y62573D01*
X85331Y62578D01*
X85194Y62602D01*
X85053Y62641D01*
X84989Y62665D01*
X84926Y62690D01*
X84867Y62724D01*
X84819Y62758D01*
X84814Y62763D01*
X84809Y62768D01*
X84779Y62797D01*
X84740Y62841D01*
X84697Y62900D01*
X84653Y62973D01*
X84614Y63061D01*
X84584Y63158D01*
X84579Y63212D01*
X84575Y63271D01*
Y63275D01*
Y63295D01*
Y63315D01*
X84579Y63344D01*
X85282Y63261D01*
Y63256D01*
X85287Y63241D01*
X85292Y63222D01*
X85297Y63193D01*
X85321Y63139D01*
X85341Y63110D01*
X85360Y63090D01*
X85365Y63085D01*
X85375Y63080D01*
X85399Y63071D01*
X85429Y63056D01*
X85467Y63041D01*
X85511Y63032D01*
X85570Y63027D01*
X85633Y63022D01*
X85672D01*
X85716Y63027D01*
X85770Y63032D01*
X85829Y63041D01*
X85887Y63051D01*
X85946Y63071D01*
X85995Y63095D01*
X85999Y63100D01*
X86009Y63105D01*
X86024Y63115D01*
X86039Y63134D01*
X86058Y63153D01*
X86077Y63183D01*
X86097Y63217D01*
X86117Y63256D01*
Y63261D01*
X86121Y63271D01*
X86126Y63290D01*
X86131Y63319D01*
X86136Y63358D01*
X86141Y63407D01*
X86146Y63466D01*
Y63534D01*
Y63881D01*
X86141Y63876D01*
X86131Y63866D01*
X86117Y63846D01*
X86097Y63822D01*
X86068Y63793D01*
X86039Y63759D01*
X85999Y63724D01*
X85956Y63690D01*
X85853Y63622D01*
X85736Y63559D01*
X85672Y63534D01*
X85604Y63515D01*
X85531Y63505D01*
X85453Y63500D01*
X85433D01*
X85409Y63505D01*
X85375D01*
X85336Y63515D01*
X85292Y63520D01*
X85238Y63534D01*
X85185Y63549D01*
X85126Y63568D01*
X85067Y63598D01*
X85004Y63627D01*
X84940Y63666D01*
X84882Y63710D01*
X84823Y63763D01*
X84765Y63827D01*
X84711Y63895D01*
Y63900D01*
X84701Y63910D01*
X84692Y63929D01*
X84677Y63954D01*
X84662Y63983D01*
X84643Y64017D01*
X84628Y64061D01*
X84609Y64110D01*
X84589Y64164D01*
X84570Y64222D01*
X84550Y64286D01*
X84535Y64354D01*
X84511Y64505D01*
X84506Y64588D01*
X84501Y64671D01*
Y64676D01*
Y64696D01*
Y64725D01*
X84506Y64769D01*
X84511Y64818D01*
X84516Y64871D01*
X84526Y64935D01*
X84535Y64998D01*
X84570Y65145D01*
X84594Y65218D01*
X84618Y65291D01*
X84653Y65364D01*
X84687Y65433D01*
X84731Y65501D01*
X84779Y65559D01*
X84784Y65564D01*
X84794Y65574D01*
X84809Y65589D01*
X84828Y65608D01*
X84857Y65633D01*
X84892Y65657D01*
X84926Y65686D01*
X84970Y65715D01*
X85019Y65745D01*
X85072Y65774D01*
X85189Y65823D01*
X85258Y65842D01*
X85326Y65857D01*
X85399Y65867D01*
X85477Y65872D01*
X85521D01*
X85550Y65867D01*
D02*
G37*
G36*
X53997Y108030D02*
X54111Y107992D01*
X54187Y107941D01*
X54200Y107929D01*
X54213Y107916D01*
X54263Y107853D01*
X54289Y107802D01*
X54340Y107688D01*
X54352Y107612D01*
Y107586D01*
Y107573D01*
Y101330D01*
X54340Y101254D01*
X54314Y101203D01*
X54289Y101165D01*
X54251Y101140D01*
X54175Y101114D01*
X35203D01*
X35140Y101127D01*
X35089Y101152D01*
X35051Y101178D01*
X35025Y101228D01*
X35000Y101292D01*
Y101317D01*
Y101330D01*
Y107573D01*
X35013Y107637D01*
X35025Y107713D01*
X35076Y107815D01*
X35114Y107891D01*
X35140Y107903D01*
Y107916D01*
X35190Y107967D01*
X35254Y107992D01*
X35368Y108043D01*
X35406D01*
X35444Y108056D01*
X53934D01*
X53997Y108030D01*
D02*
G37*
G36*
X61737Y137788D02*
X61823Y137772D01*
X61917Y137749D01*
X62034Y137718D01*
X62151Y137671D01*
X62268Y137608D01*
X61964Y136749D01*
X61956Y136757D01*
X61925Y136773D01*
X61870Y136804D01*
X61815Y136835D01*
X61737Y136858D01*
X61659Y136890D01*
X61581Y136905D01*
X61495Y136913D01*
X61464D01*
X61425Y136905D01*
X61378Y136898D01*
X61323Y136882D01*
X61261Y136866D01*
X61198Y136835D01*
X61144Y136796D01*
X61136Y136788D01*
X61120Y136773D01*
X61097Y136741D01*
X61066Y136702D01*
X61027Y136648D01*
X60988Y136569D01*
X60948Y136484D01*
X60917Y136382D01*
Y136366D01*
X60909Y136351D01*
X60902Y136320D01*
Y136288D01*
X60894Y136241D01*
X60886Y136179D01*
X60878Y136117D01*
X60870Y136038D01*
X60863Y135952D01*
X60855Y135851D01*
Y135734D01*
X60847Y135609D01*
X60839Y135468D01*
Y135312D01*
Y135140D01*
Y134000D01*
X59855D01*
Y137718D01*
X60769D01*
Y137194D01*
X60777Y137202D01*
X60808Y137249D01*
X60855Y137311D01*
X60909Y137390D01*
X60972Y137476D01*
X61042Y137554D01*
X61120Y137624D01*
X61191Y137679D01*
X61198Y137686D01*
X61222Y137694D01*
X61261Y137718D01*
X61316Y137741D01*
X61378Y137757D01*
X61448Y137780D01*
X61526Y137788D01*
X61612Y137796D01*
X61667D01*
X61737Y137788D01*
D02*
G37*
G36*
X63635Y136406D02*
X64783Y137718D01*
X65994D01*
X64721Y136359D01*
X66088Y134000D01*
X65025D01*
X64088Y135671D01*
X63635Y135187D01*
Y134000D01*
X62651D01*
Y139131D01*
X63635D01*
Y136406D01*
D02*
G37*
G36*
X57528Y137788D02*
X57590D01*
X57739Y137780D01*
X57895Y137757D01*
X58059Y137733D01*
X58215Y137694D01*
X58285Y137671D01*
X58348Y137639D01*
X58363Y137632D01*
X58402Y137608D01*
X58457Y137577D01*
X58527Y137530D01*
X58598Y137476D01*
X58676Y137405D01*
X58746Y137327D01*
X58801Y137241D01*
X58809Y137233D01*
X58824Y137194D01*
X58840Y137132D01*
X58871Y137038D01*
X58879Y136983D01*
X58894Y136921D01*
X58902Y136851D01*
X58910Y136765D01*
X58918Y136679D01*
X58926Y136577D01*
X58934Y136476D01*
Y136359D01*
X58918Y135218D01*
Y135211D01*
Y135195D01*
Y135171D01*
Y135140D01*
Y135054D01*
X58926Y134945D01*
Y134828D01*
X58941Y134703D01*
X58949Y134594D01*
X58965Y134492D01*
Y134484D01*
X58973Y134453D01*
X58988Y134406D01*
X59004Y134344D01*
X59027Y134273D01*
X59058Y134187D01*
X59097Y134101D01*
X59144Y134000D01*
X58176D01*
Y134008D01*
X58168Y134016D01*
X58160Y134039D01*
X58153Y134070D01*
X58137Y134109D01*
X58113Y134156D01*
X58098Y134219D01*
X58074Y134281D01*
Y134289D01*
Y134297D01*
X58059Y134328D01*
X58051Y134367D01*
X58043Y134398D01*
X58035Y134390D01*
X57996Y134359D01*
X57950Y134312D01*
X57879Y134258D01*
X57801Y134195D01*
X57707Y134133D01*
X57614Y134078D01*
X57504Y134023D01*
X57489Y134016D01*
X57457Y134008D01*
X57395Y133984D01*
X57317Y133969D01*
X57231Y133945D01*
X57129Y133922D01*
X57012Y133914D01*
X56895Y133906D01*
X56840D01*
X56801Y133914D01*
X56754D01*
X56692Y133922D01*
X56567Y133945D01*
X56419Y133984D01*
X56270Y134031D01*
X56122Y134109D01*
X55989Y134211D01*
X55974Y134227D01*
X55935Y134265D01*
X55888Y134336D01*
X55825Y134430D01*
X55763Y134547D01*
X55716Y134679D01*
X55677Y134836D01*
X55661Y135008D01*
Y135023D01*
Y135062D01*
X55669Y135117D01*
X55677Y135195D01*
X55700Y135281D01*
X55724Y135375D01*
X55763Y135468D01*
X55809Y135562D01*
X55817Y135570D01*
X55841Y135601D01*
X55872Y135648D01*
X55919Y135703D01*
X55974Y135765D01*
X56044Y135828D01*
X56130Y135890D01*
X56223Y135945D01*
X56239Y135952D01*
X56278Y135968D01*
X56341Y135992D01*
X56427Y136023D01*
X56536Y136062D01*
X56669Y136101D01*
X56825Y136140D01*
X57004Y136179D01*
X57012D01*
X57036Y136187D01*
X57067Y136195D01*
X57114Y136202D01*
X57176Y136210D01*
X57239Y136226D01*
X57387Y136257D01*
X57543Y136296D01*
X57700Y136335D01*
X57848Y136374D01*
X57910Y136398D01*
X57965Y136421D01*
Y136515D01*
Y136530D01*
Y136562D01*
X57957Y136609D01*
X57950Y136671D01*
X57934Y136741D01*
X57903Y136804D01*
X57871Y136866D01*
X57824Y136921D01*
X57817Y136929D01*
X57793Y136944D01*
X57762Y136960D01*
X57707Y136983D01*
X57637Y137007D01*
X57543Y137030D01*
X57426Y137038D01*
X57293Y137046D01*
X57247D01*
X57200Y137038D01*
X57145Y137030D01*
X57004Y136999D01*
X56942Y136976D01*
X56880Y136937D01*
X56872Y136929D01*
X56856Y136913D01*
X56825Y136890D01*
X56794Y136851D01*
X56754Y136804D01*
X56716Y136741D01*
X56676Y136663D01*
X56645Y136577D01*
X55763Y136741D01*
Y136749D01*
X55770Y136765D01*
X55778Y136796D01*
X55794Y136827D01*
X55833Y136921D01*
X55880Y137038D01*
X55950Y137171D01*
X56044Y137296D01*
X56153Y137421D01*
X56278Y137530D01*
X56286D01*
X56294Y137538D01*
X56317Y137554D01*
X56348Y137569D01*
X56388Y137593D01*
X56434Y137616D01*
X56489Y137639D01*
X56551Y137663D01*
X56622Y137686D01*
X56708Y137710D01*
X56794Y137733D01*
X56895Y137757D01*
X56997Y137772D01*
X57114Y137788D01*
X57231Y137796D01*
X57473D01*
X57528Y137788D01*
D02*
G37*
G36*
X53693D02*
X53748Y137780D01*
X53810Y137772D01*
X53966Y137733D01*
X54138Y137671D01*
X54232Y137632D01*
X54326Y137577D01*
X54412Y137522D01*
X54505Y137452D01*
X54599Y137374D01*
X54685Y137280D01*
X54693Y137272D01*
X54708Y137257D01*
X54724Y137225D01*
X54755Y137187D01*
X54786Y137132D01*
X54826Y137069D01*
X54872Y136999D01*
X54911Y136913D01*
X54950Y136819D01*
X54997Y136710D01*
X55036Y136593D01*
X55068Y136468D01*
X55099Y136335D01*
X55122Y136187D01*
X55130Y136031D01*
X55138Y135867D01*
Y135859D01*
Y135828D01*
Y135781D01*
X55130Y135710D01*
X55122Y135632D01*
X55114Y135546D01*
X55099Y135445D01*
X55083Y135336D01*
X55028Y135109D01*
X54989Y134984D01*
X54943Y134867D01*
X54888Y134750D01*
X54833Y134633D01*
X54755Y134523D01*
X54677Y134422D01*
X54669Y134414D01*
X54654Y134398D01*
X54630Y134375D01*
X54599Y134344D01*
X54552Y134305D01*
X54497Y134258D01*
X54435Y134211D01*
X54373Y134164D01*
X54208Y134070D01*
X54021Y133984D01*
X53920Y133953D01*
X53810Y133930D01*
X53693Y133914D01*
X53576Y133906D01*
X53521D01*
X53466Y133914D01*
X53396Y133922D01*
X53310Y133938D01*
X53217Y133953D01*
X53115Y133984D01*
X53021Y134023D01*
X53013Y134031D01*
X52974Y134047D01*
X52928Y134078D01*
X52865Y134125D01*
X52787Y134180D01*
X52693Y134258D01*
X52600Y134344D01*
X52498Y134445D01*
Y132579D01*
X51514D01*
Y137718D01*
X52428D01*
Y137171D01*
X52436Y137187D01*
X52459Y137218D01*
X52498Y137265D01*
X52553Y137327D01*
X52623Y137397D01*
X52701Y137476D01*
X52795Y137546D01*
X52904Y137616D01*
X52920Y137624D01*
X52959Y137647D01*
X53021Y137671D01*
X53107Y137710D01*
X53201Y137741D01*
X53318Y137764D01*
X53451Y137788D01*
X53584Y137796D01*
X53646D01*
X53693Y137788D01*
D02*
G37*
G36*
X68704Y134141D02*
X68462Y133492D01*
X68454Y133477D01*
X68438Y133438D01*
X68415Y133383D01*
X68384Y133305D01*
X68345Y133227D01*
X68305Y133141D01*
X68266Y133063D01*
X68220Y132992D01*
X68212Y132985D01*
X68196Y132961D01*
X68173Y132930D01*
X68142Y132891D01*
X68056Y132805D01*
X67946Y132719D01*
X67939Y132711D01*
X67923Y132703D01*
X67884Y132680D01*
X67845Y132657D01*
X67790Y132633D01*
X67728Y132602D01*
X67650Y132571D01*
X67571Y132547D01*
X67564D01*
X67532Y132539D01*
X67485Y132532D01*
X67431Y132516D01*
X67353Y132508D01*
X67267Y132493D01*
X67173Y132485D01*
X66970D01*
X66900Y132493D01*
X66814Y132501D01*
X66720Y132508D01*
X66517Y132547D01*
X66431Y133313D01*
X66439D01*
X66470Y133305D01*
X66509Y133297D01*
X66572Y133289D01*
X66634Y133282D01*
X66704Y133274D01*
X66845Y133266D01*
X66900D01*
X66962Y133274D01*
X67040Y133289D01*
X67118Y133320D01*
X67204Y133352D01*
X67282Y133406D01*
X67353Y133477D01*
X67361Y133484D01*
X67376Y133516D01*
X67407Y133555D01*
X67446Y133617D01*
X67485Y133695D01*
X67524Y133781D01*
X67564Y133883D01*
X67603Y133992D01*
X66197Y137718D01*
X67243D01*
X68126Y135078D01*
X69001Y137718D01*
X70016D01*
X68704Y134141D01*
D02*
G37*
G36*
X63898Y65823D02*
X64318D01*
Y65335D01*
X63898D01*
Y64388D01*
Y64383D01*
Y64378D01*
Y64364D01*
Y64344D01*
Y64295D01*
Y64242D01*
X63903Y64183D01*
Y64130D01*
Y64086D01*
X63908Y64066D01*
Y64056D01*
Y64047D01*
X63917Y64027D01*
X63937Y64003D01*
X63961Y63978D01*
X63971Y63973D01*
X63991Y63964D01*
X64025Y63954D01*
X64064Y63949D01*
X64078D01*
X64098Y63954D01*
X64127Y63959D01*
X64161Y63964D01*
X64205Y63973D01*
X64254Y63988D01*
X64313Y64008D01*
X64366Y63529D01*
X64357Y63524D01*
X64327Y63515D01*
X64283Y63500D01*
X64225Y63485D01*
X64152Y63471D01*
X64069Y63456D01*
X63976Y63446D01*
X63878Y63441D01*
X63849D01*
X63820Y63446D01*
X63781D01*
X63732Y63456D01*
X63683Y63466D01*
X63630Y63476D01*
X63581Y63495D01*
X63576Y63500D01*
X63561Y63505D01*
X63537Y63515D01*
X63507Y63534D01*
X63444Y63578D01*
X63410Y63607D01*
X63385Y63637D01*
X63381Y63642D01*
X63376Y63651D01*
X63366Y63676D01*
X63351Y63700D01*
X63337Y63739D01*
X63322Y63778D01*
X63312Y63827D01*
X63303Y63881D01*
Y63885D01*
X63298Y63905D01*
Y63934D01*
X63293Y63973D01*
X63288Y64032D01*
Y64110D01*
X63283Y64203D01*
Y64256D01*
Y64315D01*
Y65335D01*
X63000D01*
Y65823D01*
X63283D01*
Y66282D01*
X63898Y66643D01*
Y65823D01*
D02*
G37*
G36*
X69329Y63500D02*
X68758D01*
Y63846D01*
X68753Y63837D01*
X68734Y63817D01*
X68710Y63783D01*
X68671Y63739D01*
X68622Y63690D01*
X68563Y63642D01*
X68495Y63593D01*
X68422Y63549D01*
X68412Y63544D01*
X68388Y63534D01*
X68344Y63515D01*
X68290Y63495D01*
X68226Y63476D01*
X68153Y63456D01*
X68070Y63446D01*
X67987Y63441D01*
X67948D01*
X67904Y63446D01*
X67846Y63456D01*
X67782Y63466D01*
X67714Y63485D01*
X67641Y63510D01*
X67568Y63544D01*
X67558Y63549D01*
X67538Y63563D01*
X67504Y63588D01*
X67465Y63617D01*
X67421Y63661D01*
X67377Y63710D01*
X67333Y63768D01*
X67299Y63832D01*
X67294Y63842D01*
X67290Y63866D01*
X67275Y63910D01*
X67260Y63968D01*
X67246Y64042D01*
X67236Y64130D01*
X67226Y64232D01*
X67221Y64349D01*
Y65823D01*
X67836D01*
Y64749D01*
Y64744D01*
Y64730D01*
Y64705D01*
Y64671D01*
Y64632D01*
Y64588D01*
X67841Y64491D01*
Y64383D01*
X67851Y64286D01*
Y64242D01*
X67856Y64203D01*
X67861Y64169D01*
X67865Y64144D01*
Y64139D01*
X67870Y64125D01*
X67880Y64105D01*
X67895Y64081D01*
X67934Y64027D01*
X67958Y63998D01*
X67987Y63973D01*
X67992Y63968D01*
X68002Y63964D01*
X68026Y63954D01*
X68051Y63944D01*
X68085Y63929D01*
X68124Y63920D01*
X68168Y63915D01*
X68217Y63910D01*
X68241D01*
X68270Y63915D01*
X68309Y63920D01*
X68353Y63929D01*
X68402Y63944D01*
X68446Y63964D01*
X68495Y63993D01*
X68500Y63998D01*
X68514Y64008D01*
X68539Y64027D01*
X68563Y64051D01*
X68593Y64086D01*
X68622Y64120D01*
X68646Y64164D01*
X68666Y64208D01*
Y64213D01*
X68675Y64237D01*
Y64252D01*
X68680Y64276D01*
X68685Y64305D01*
X68690Y64334D01*
X68695Y64373D01*
X68700Y64417D01*
X68705Y64471D01*
Y64530D01*
X68710Y64593D01*
X68714Y64666D01*
Y64749D01*
Y64837D01*
Y65823D01*
X69329D01*
Y63500D01*
D02*
G37*
G36*
X79529D02*
X78914D01*
Y64115D01*
X79529D01*
Y63500D01*
D02*
G37*
G36*
X84043Y65867D02*
X84096Y65857D01*
X84155Y65842D01*
X84228Y65823D01*
X84301Y65794D01*
X84374Y65755D01*
X84184Y65218D01*
X84179Y65223D01*
X84160Y65232D01*
X84126Y65252D01*
X84091Y65271D01*
X84043Y65286D01*
X83994Y65306D01*
X83945Y65315D01*
X83891Y65320D01*
X83872D01*
X83847Y65315D01*
X83818Y65311D01*
X83784Y65301D01*
X83745Y65291D01*
X83706Y65271D01*
X83672Y65247D01*
X83667Y65242D01*
X83657Y65232D01*
X83642Y65213D01*
X83623Y65188D01*
X83599Y65154D01*
X83574Y65105D01*
X83550Y65052D01*
X83530Y64988D01*
Y64979D01*
X83525Y64969D01*
X83520Y64949D01*
Y64930D01*
X83516Y64901D01*
X83511Y64862D01*
X83506Y64823D01*
X83501Y64774D01*
X83496Y64720D01*
X83491Y64657D01*
Y64583D01*
X83486Y64505D01*
X83481Y64417D01*
Y64320D01*
Y64213D01*
Y63500D01*
X82867D01*
Y65823D01*
X83437D01*
Y65496D01*
X83442Y65501D01*
X83462Y65530D01*
X83491Y65569D01*
X83525Y65618D01*
X83564Y65672D01*
X83608Y65720D01*
X83657Y65764D01*
X83701Y65798D01*
X83706Y65803D01*
X83720Y65808D01*
X83745Y65823D01*
X83779Y65838D01*
X83818Y65847D01*
X83862Y65862D01*
X83911Y65867D01*
X83965Y65872D01*
X83999D01*
X84043Y65867D01*
D02*
G37*
G36*
X77386D02*
X77435Y65862D01*
X77538Y65852D01*
X77650Y65833D01*
X77772Y65808D01*
X77879Y65769D01*
X77933Y65745D01*
X77977Y65715D01*
X77982D01*
X77987Y65711D01*
X78016Y65686D01*
X78055Y65652D01*
X78104Y65598D01*
X78157Y65535D01*
X78211Y65457D01*
X78260Y65369D01*
X78299Y65262D01*
X77718Y65154D01*
Y65159D01*
X77708Y65174D01*
X77699Y65198D01*
X77684Y65228D01*
X77664Y65262D01*
X77640Y65296D01*
X77611Y65330D01*
X77572Y65359D01*
X77567Y65364D01*
X77552Y65369D01*
X77528Y65384D01*
X77499Y65398D01*
X77455Y65408D01*
X77406Y65423D01*
X77347Y65428D01*
X77279Y65433D01*
X77240D01*
X77196Y65428D01*
X77142Y65423D01*
X77030Y65403D01*
X76976Y65389D01*
X76932Y65364D01*
X76928D01*
X76923Y65354D01*
X76898Y65330D01*
X76874Y65291D01*
X76869Y65267D01*
X76864Y65237D01*
Y65232D01*
Y65228D01*
X76874Y65198D01*
X76889Y65159D01*
X76903Y65145D01*
X76923Y65125D01*
X76928Y65120D01*
X76942Y65115D01*
X76976Y65101D01*
X76996Y65091D01*
X77025Y65081D01*
X77059Y65066D01*
X77098Y65057D01*
X77147Y65042D01*
X77201Y65023D01*
X77259Y65008D01*
X77328Y64988D01*
X77406Y64969D01*
X77494Y64949D01*
X77499D01*
X77513Y64944D01*
X77542Y64940D01*
X77572Y64930D01*
X77616Y64920D01*
X77659Y64905D01*
X77767Y64876D01*
X77879Y64837D01*
X77991Y64788D01*
X78094Y64735D01*
X78143Y64705D01*
X78182Y64676D01*
X78191Y64666D01*
X78211Y64647D01*
X78245Y64608D01*
X78279Y64559D01*
X78313Y64495D01*
X78348Y64413D01*
X78367Y64325D01*
X78377Y64217D01*
Y64213D01*
Y64203D01*
Y64188D01*
X78372Y64164D01*
X78367Y64139D01*
X78362Y64105D01*
X78343Y64032D01*
X78313Y63944D01*
X78265Y63851D01*
X78235Y63807D01*
X78196Y63759D01*
X78157Y63715D01*
X78109Y63671D01*
X78104D01*
X78099Y63661D01*
X78079Y63651D01*
X78060Y63637D01*
X78030Y63617D01*
X77996Y63598D01*
X77957Y63578D01*
X77913Y63559D01*
X77860Y63534D01*
X77801Y63515D01*
X77738Y63495D01*
X77664Y63476D01*
X77591Y63461D01*
X77508Y63451D01*
X77416Y63446D01*
X77323Y63441D01*
X77279D01*
X77245Y63446D01*
X77206D01*
X77157Y63451D01*
X77108Y63456D01*
X77049Y63466D01*
X76932Y63490D01*
X76806Y63520D01*
X76683Y63568D01*
X76571Y63632D01*
X76566D01*
X76561Y63642D01*
X76547Y63651D01*
X76527Y63666D01*
X76479Y63710D01*
X76425Y63768D01*
X76366Y63842D01*
X76308Y63934D01*
X76254Y64037D01*
X76215Y64154D01*
X76830Y64247D01*
Y64237D01*
X76840Y64217D01*
X76849Y64183D01*
X76864Y64144D01*
X76884Y64100D01*
X76913Y64056D01*
X76947Y64012D01*
X76986Y63973D01*
X76991Y63968D01*
X77011Y63959D01*
X77035Y63944D01*
X77074Y63929D01*
X77123Y63915D01*
X77181Y63900D01*
X77245Y63890D01*
X77323Y63885D01*
X77362D01*
X77406Y63890D01*
X77455Y63895D01*
X77513Y63905D01*
X77572Y63920D01*
X77630Y63939D01*
X77679Y63968D01*
X77684Y63973D01*
X77694Y63978D01*
X77703Y63993D01*
X77723Y64012D01*
X77747Y64066D01*
X77757Y64100D01*
X77762Y64134D01*
Y64139D01*
Y64149D01*
X77757Y64178D01*
X77742Y64213D01*
X77718Y64252D01*
X77708Y64261D01*
X77694Y64266D01*
X77674Y64281D01*
X77645Y64291D01*
X77611Y64305D01*
X77562Y64320D01*
X77508Y64334D01*
X77499D01*
X77474Y64344D01*
X77440Y64349D01*
X77391Y64364D01*
X77333Y64378D01*
X77264Y64393D01*
X77191Y64413D01*
X77113Y64432D01*
X76952Y64476D01*
X76874Y64500D01*
X76796Y64530D01*
X76727Y64554D01*
X76664Y64578D01*
X76610Y64608D01*
X76566Y64632D01*
X76561D01*
X76557Y64642D01*
X76522Y64666D01*
X76479Y64710D01*
X76430Y64769D01*
X76381Y64842D01*
X76337Y64935D01*
X76303Y65037D01*
X76298Y65096D01*
X76293Y65154D01*
Y65159D01*
Y65169D01*
Y65184D01*
X76298Y65203D01*
X76308Y65262D01*
X76322Y65330D01*
X76352Y65413D01*
X76391Y65496D01*
X76449Y65584D01*
X76488Y65623D01*
X76527Y65662D01*
X76532Y65667D01*
X76537Y65672D01*
X76552Y65681D01*
X76571Y65696D01*
X76601Y65711D01*
X76630Y65730D01*
X76669Y65750D01*
X76708Y65769D01*
X76757Y65789D01*
X76815Y65803D01*
X76874Y65823D01*
X76942Y65838D01*
X77015Y65852D01*
X77093Y65862D01*
X77176Y65872D01*
X77347D01*
X77386Y65867D01*
D02*
G37*
G36*
X72213D02*
X72253D01*
X72345Y65862D01*
X72443Y65847D01*
X72545Y65833D01*
X72643Y65808D01*
X72687Y65794D01*
X72726Y65774D01*
X72736Y65769D01*
X72760Y65755D01*
X72794Y65735D01*
X72838Y65706D01*
X72882Y65672D01*
X72931Y65628D01*
X72975Y65579D01*
X73009Y65525D01*
X73014Y65520D01*
X73023Y65496D01*
X73033Y65457D01*
X73053Y65398D01*
X73058Y65364D01*
X73067Y65325D01*
X73072Y65281D01*
X73077Y65228D01*
X73082Y65174D01*
X73087Y65110D01*
X73092Y65047D01*
Y64974D01*
X73082Y64261D01*
Y64256D01*
Y64247D01*
Y64232D01*
Y64213D01*
Y64159D01*
X73087Y64091D01*
Y64017D01*
X73097Y63939D01*
X73102Y63871D01*
X73111Y63807D01*
Y63803D01*
X73116Y63783D01*
X73126Y63754D01*
X73136Y63715D01*
X73150Y63671D01*
X73170Y63617D01*
X73194Y63563D01*
X73224Y63500D01*
X72619D01*
Y63505D01*
X72614Y63510D01*
X72609Y63524D01*
X72604Y63544D01*
X72594Y63568D01*
X72579Y63598D01*
X72570Y63637D01*
X72555Y63676D01*
Y63681D01*
Y63685D01*
X72545Y63705D01*
X72540Y63729D01*
X72536Y63749D01*
X72531Y63744D01*
X72506Y63724D01*
X72477Y63695D01*
X72433Y63661D01*
X72384Y63622D01*
X72326Y63583D01*
X72267Y63549D01*
X72199Y63515D01*
X72189Y63510D01*
X72170Y63505D01*
X72131Y63490D01*
X72082Y63481D01*
X72028Y63466D01*
X71965Y63451D01*
X71891Y63446D01*
X71818Y63441D01*
X71784D01*
X71760Y63446D01*
X71730D01*
X71691Y63451D01*
X71613Y63466D01*
X71521Y63490D01*
X71428Y63520D01*
X71335Y63568D01*
X71252Y63632D01*
X71242Y63642D01*
X71218Y63666D01*
X71189Y63710D01*
X71150Y63768D01*
X71111Y63842D01*
X71081Y63925D01*
X71057Y64022D01*
X71047Y64130D01*
Y64139D01*
Y64164D01*
X71052Y64198D01*
X71057Y64247D01*
X71071Y64300D01*
X71086Y64359D01*
X71111Y64417D01*
X71140Y64476D01*
X71145Y64481D01*
X71159Y64500D01*
X71179Y64530D01*
X71208Y64564D01*
X71242Y64603D01*
X71286Y64642D01*
X71340Y64681D01*
X71399Y64715D01*
X71408Y64720D01*
X71433Y64730D01*
X71472Y64744D01*
X71525Y64764D01*
X71594Y64788D01*
X71677Y64813D01*
X71774Y64837D01*
X71886Y64862D01*
X71891D01*
X71906Y64866D01*
X71925Y64871D01*
X71955Y64876D01*
X71994Y64881D01*
X72033Y64891D01*
X72126Y64910D01*
X72223Y64935D01*
X72321Y64959D01*
X72413Y64983D01*
X72453Y64998D01*
X72487Y65013D01*
Y65071D01*
Y65081D01*
Y65101D01*
X72482Y65130D01*
X72477Y65169D01*
X72467Y65213D01*
X72448Y65252D01*
X72428Y65291D01*
X72399Y65325D01*
X72394Y65330D01*
X72379Y65340D01*
X72360Y65350D01*
X72326Y65364D01*
X72282Y65379D01*
X72223Y65393D01*
X72150Y65398D01*
X72067Y65403D01*
X72038D01*
X72009Y65398D01*
X71974Y65393D01*
X71886Y65374D01*
X71847Y65359D01*
X71808Y65335D01*
X71803Y65330D01*
X71794Y65320D01*
X71774Y65306D01*
X71755Y65281D01*
X71730Y65252D01*
X71706Y65213D01*
X71681Y65164D01*
X71662Y65110D01*
X71111Y65213D01*
Y65218D01*
X71115Y65228D01*
X71120Y65247D01*
X71130Y65267D01*
X71154Y65325D01*
X71184Y65398D01*
X71228Y65481D01*
X71286Y65559D01*
X71355Y65637D01*
X71433Y65706D01*
X71438D01*
X71442Y65711D01*
X71457Y65720D01*
X71477Y65730D01*
X71501Y65745D01*
X71530Y65759D01*
X71564Y65774D01*
X71603Y65789D01*
X71647Y65803D01*
X71701Y65818D01*
X71755Y65833D01*
X71818Y65847D01*
X71882Y65857D01*
X71955Y65867D01*
X72028Y65872D01*
X72179D01*
X72213Y65867D01*
D02*
G37*
G36*
X81300D02*
X81344Y65862D01*
X81398Y65852D01*
X81451Y65842D01*
X81515Y65828D01*
X81583Y65808D01*
X81651Y65789D01*
X81725Y65759D01*
X81793Y65725D01*
X81866Y65686D01*
X81939Y65637D01*
X82008Y65589D01*
X82071Y65525D01*
X82076Y65520D01*
X82086Y65511D01*
X82100Y65491D01*
X82125Y65462D01*
X82149Y65433D01*
X82178Y65389D01*
X82208Y65345D01*
X82242Y65291D01*
X82271Y65228D01*
X82300Y65164D01*
X82330Y65091D01*
X82354Y65018D01*
X82379Y64935D01*
X82393Y64847D01*
X82403Y64759D01*
X82408Y64661D01*
Y64657D01*
Y64637D01*
Y64613D01*
X82403Y64574D01*
X82398Y64530D01*
X82388Y64476D01*
X82379Y64417D01*
X82364Y64354D01*
X82349Y64286D01*
X82325Y64217D01*
X82296Y64144D01*
X82266Y64071D01*
X82222Y63998D01*
X82178Y63925D01*
X82125Y63856D01*
X82066Y63788D01*
X82061Y63783D01*
X82051Y63773D01*
X82032Y63754D01*
X82008Y63734D01*
X81973Y63710D01*
X81934Y63681D01*
X81886Y63646D01*
X81832Y63617D01*
X81773Y63583D01*
X81710Y63549D01*
X81642Y63520D01*
X81564Y63495D01*
X81485Y63476D01*
X81398Y63456D01*
X81305Y63446D01*
X81212Y63441D01*
X81159D01*
X81129Y63446D01*
X81095Y63451D01*
X81017Y63461D01*
X80924Y63476D01*
X80822Y63500D01*
X80714Y63534D01*
X80607Y63583D01*
X80602D01*
X80592Y63588D01*
X80578Y63598D01*
X80558Y63612D01*
X80509Y63646D01*
X80446Y63690D01*
X80373Y63749D01*
X80300Y63822D01*
X80231Y63910D01*
X80168Y64008D01*
Y64012D01*
X80163Y64022D01*
X80153Y64037D01*
X80143Y64056D01*
X80134Y64086D01*
X80124Y64115D01*
X80109Y64154D01*
X80095Y64198D01*
X80070Y64295D01*
X80046Y64413D01*
X80026Y64544D01*
X80021Y64686D01*
Y64691D01*
Y64701D01*
Y64715D01*
X80026Y64740D01*
Y64764D01*
X80031Y64798D01*
X80041Y64876D01*
X80056Y64969D01*
X80085Y65066D01*
X80119Y65174D01*
X80168Y65281D01*
Y65286D01*
X80173Y65296D01*
X80182Y65311D01*
X80197Y65330D01*
X80231Y65379D01*
X80280Y65442D01*
X80339Y65515D01*
X80412Y65589D01*
X80495Y65657D01*
X80592Y65720D01*
X80597D01*
X80607Y65725D01*
X80622Y65735D01*
X80641Y65745D01*
X80666Y65755D01*
X80700Y65769D01*
X80773Y65798D01*
X80866Y65823D01*
X80973Y65847D01*
X81085Y65867D01*
X81212Y65872D01*
X81261D01*
X81300Y65867D01*
D02*
G37*
G36*
X74283Y65545D02*
X74287Y65550D01*
X74297Y65559D01*
X74312Y65574D01*
X74331Y65598D01*
X74361Y65623D01*
X74395Y65647D01*
X74429Y65676D01*
X74473Y65711D01*
X74571Y65769D01*
X74688Y65823D01*
X74751Y65842D01*
X74814Y65857D01*
X74883Y65867D01*
X74956Y65872D01*
X74995D01*
X75029Y65867D01*
X75063Y65862D01*
X75107Y65857D01*
X75151Y65847D01*
X75205Y65833D01*
X75312Y65794D01*
X75371Y65769D01*
X75429Y65740D01*
X75493Y65706D01*
X75546Y65662D01*
X75605Y65613D01*
X75659Y65559D01*
X75664Y65554D01*
X75669Y65545D01*
X75683Y65525D01*
X75703Y65501D01*
X75722Y65472D01*
X75747Y65433D01*
X75771Y65389D01*
X75800Y65335D01*
X75825Y65276D01*
X75849Y65208D01*
X75873Y65135D01*
X75893Y65057D01*
X75912Y64974D01*
X75927Y64881D01*
X75932Y64783D01*
X75937Y64676D01*
Y64671D01*
Y64652D01*
Y64618D01*
X75932Y64578D01*
X75927Y64530D01*
X75922Y64471D01*
X75912Y64408D01*
X75903Y64339D01*
X75869Y64193D01*
X75844Y64115D01*
X75815Y64037D01*
X75781Y63964D01*
X75747Y63890D01*
X75698Y63822D01*
X75649Y63759D01*
X75644Y63754D01*
X75634Y63744D01*
X75620Y63729D01*
X75600Y63710D01*
X75571Y63685D01*
X75537Y63656D01*
X75498Y63632D01*
X75459Y63603D01*
X75356Y63544D01*
X75239Y63490D01*
X75176Y63471D01*
X75107Y63456D01*
X75034Y63446D01*
X74961Y63441D01*
X74927D01*
X74888Y63446D01*
X74839Y63456D01*
X74780Y63466D01*
X74712Y63485D01*
X74644Y63510D01*
X74571Y63544D01*
X74561Y63549D01*
X74536Y63563D01*
X74502Y63588D01*
X74458Y63617D01*
X74405Y63661D01*
X74346Y63710D01*
X74292Y63768D01*
X74239Y63837D01*
Y63500D01*
X73668D01*
Y66706D01*
X74283D01*
Y65545D01*
D02*
G37*
G36*
X70579Y63500D02*
X69964D01*
Y66706D01*
X70579D01*
Y63500D01*
D02*
G37*
G36*
X65747Y65867D02*
X65786D01*
X65879Y65862D01*
X65977Y65847D01*
X66079Y65833D01*
X66177Y65808D01*
X66221Y65794D01*
X66260Y65774D01*
X66270Y65769D01*
X66294Y65755D01*
X66328Y65735D01*
X66372Y65706D01*
X66416Y65672D01*
X66465Y65628D01*
X66509Y65579D01*
X66543Y65525D01*
X66548Y65520D01*
X66558Y65496D01*
X66567Y65457D01*
X66587Y65398D01*
X66592Y65364D01*
X66601Y65325D01*
X66606Y65281D01*
X66611Y65228D01*
X66616Y65174D01*
X66621Y65110D01*
X66626Y65047D01*
Y64974D01*
X66616Y64261D01*
Y64256D01*
Y64247D01*
Y64232D01*
Y64213D01*
Y64159D01*
X66621Y64091D01*
Y64017D01*
X66631Y63939D01*
X66636Y63871D01*
X66645Y63807D01*
Y63803D01*
X66650Y63783D01*
X66660Y63754D01*
X66670Y63715D01*
X66684Y63671D01*
X66704Y63617D01*
X66728Y63563D01*
X66758Y63500D01*
X66153D01*
Y63505D01*
X66148Y63510D01*
X66143Y63524D01*
X66138Y63544D01*
X66128Y63568D01*
X66113Y63598D01*
X66104Y63637D01*
X66089Y63676D01*
Y63681D01*
Y63685D01*
X66079Y63705D01*
X66074Y63729D01*
X66070Y63749D01*
X66065Y63744D01*
X66040Y63724D01*
X66011Y63695D01*
X65967Y63661D01*
X65918Y63622D01*
X65860Y63583D01*
X65801Y63549D01*
X65733Y63515D01*
X65723Y63510D01*
X65703Y63505D01*
X65664Y63490D01*
X65616Y63481D01*
X65562Y63466D01*
X65499Y63451D01*
X65425Y63446D01*
X65352Y63441D01*
X65318D01*
X65294Y63446D01*
X65264D01*
X65225Y63451D01*
X65147Y63466D01*
X65055Y63490D01*
X64962Y63520D01*
X64869Y63568D01*
X64786Y63632D01*
X64776Y63642D01*
X64752Y63666D01*
X64723Y63710D01*
X64684Y63768D01*
X64645Y63842D01*
X64615Y63925D01*
X64591Y64022D01*
X64581Y64130D01*
Y64139D01*
Y64164D01*
X64586Y64198D01*
X64591Y64247D01*
X64605Y64300D01*
X64620Y64359D01*
X64645Y64417D01*
X64674Y64476D01*
X64679Y64481D01*
X64693Y64500D01*
X64713Y64530D01*
X64742Y64564D01*
X64776Y64603D01*
X64820Y64642D01*
X64874Y64681D01*
X64933Y64715D01*
X64942Y64720D01*
X64967Y64730D01*
X65006Y64744D01*
X65059Y64764D01*
X65128Y64788D01*
X65211Y64813D01*
X65308Y64837D01*
X65421Y64862D01*
X65425D01*
X65440Y64866D01*
X65460Y64871D01*
X65489Y64876D01*
X65528Y64881D01*
X65567Y64891D01*
X65660Y64910D01*
X65757Y64935D01*
X65855Y64959D01*
X65948Y64983D01*
X65987Y64998D01*
X66021Y65013D01*
Y65071D01*
Y65081D01*
Y65101D01*
X66016Y65130D01*
X66011Y65169D01*
X66001Y65213D01*
X65982Y65252D01*
X65962Y65291D01*
X65933Y65325D01*
X65928Y65330D01*
X65913Y65340D01*
X65894Y65350D01*
X65860Y65364D01*
X65816Y65379D01*
X65757Y65393D01*
X65684Y65398D01*
X65601Y65403D01*
X65572D01*
X65543Y65398D01*
X65508Y65393D01*
X65421Y65374D01*
X65381Y65359D01*
X65342Y65335D01*
X65338Y65330D01*
X65328Y65320D01*
X65308Y65306D01*
X65289Y65281D01*
X65264Y65252D01*
X65240Y65213D01*
X65215Y65164D01*
X65196Y65110D01*
X64645Y65213D01*
Y65218D01*
X64649Y65228D01*
X64654Y65247D01*
X64664Y65267D01*
X64688Y65325D01*
X64718Y65398D01*
X64762Y65481D01*
X64820Y65559D01*
X64889Y65637D01*
X64967Y65706D01*
X64972D01*
X64976Y65711D01*
X64991Y65720D01*
X65011Y65730D01*
X65035Y65745D01*
X65064Y65759D01*
X65098Y65774D01*
X65137Y65789D01*
X65181Y65803D01*
X65235Y65818D01*
X65289Y65833D01*
X65352Y65847D01*
X65416Y65857D01*
X65489Y65867D01*
X65562Y65872D01*
X65713D01*
X65747Y65867D01*
D02*
G37*
G36*
X116757Y118000D02*
X115773D01*
Y121702D01*
X115765Y121694D01*
X115750Y121678D01*
X115718Y121655D01*
X115679Y121616D01*
X115625Y121577D01*
X115562Y121530D01*
X115492Y121476D01*
X115406Y121421D01*
X115320Y121358D01*
X115218Y121296D01*
X115008Y121179D01*
X114766Y121062D01*
X114500Y120960D01*
Y121850D01*
X114508D01*
X114516Y121858D01*
X114539Y121866D01*
X114570Y121874D01*
X114648Y121905D01*
X114750Y121960D01*
X114875Y122022D01*
X115015Y122108D01*
X115172Y122202D01*
X115336Y122327D01*
X115343Y122335D01*
X115359Y122342D01*
X115383Y122366D01*
X115406Y122389D01*
X115484Y122459D01*
X115586Y122561D01*
X115687Y122678D01*
X115789Y122819D01*
X115882Y122975D01*
X115953Y123147D01*
X116757D01*
Y118000D01*
D02*
G37*
G36*
X60303Y37000D02*
X60002D01*
X60000Y38262D01*
X59683Y37000D01*
X59373D01*
X59056Y38262D01*
Y37000D01*
X58756D01*
Y38603D01*
X59239D01*
X59529Y37508D01*
X59815Y38603D01*
X60303D01*
Y37000D01*
D02*
G37*
G36*
X97108Y73594D02*
X97147Y73589D01*
X97196Y73580D01*
X97249Y73565D01*
X97308Y73550D01*
X97371Y73531D01*
X97435Y73507D01*
X97503Y73477D01*
X97566Y73438D01*
X97635Y73394D01*
X97703Y73346D01*
X97767Y73287D01*
X97825Y73219D01*
X97830Y73214D01*
X97840Y73199D01*
X97854Y73180D01*
X97874Y73145D01*
X97898Y73106D01*
X97923Y73053D01*
X97952Y72994D01*
X97981Y72921D01*
X98011Y72843D01*
X98040Y72750D01*
X98064Y72648D01*
X98089Y72535D01*
X98108Y72413D01*
X98123Y72282D01*
X98133Y72135D01*
X98137Y71979D01*
Y71969D01*
Y71940D01*
Y71896D01*
X98133Y71838D01*
X98128Y71764D01*
X98118Y71681D01*
X98108Y71589D01*
X98098Y71491D01*
X98059Y71281D01*
X98030Y71179D01*
X98001Y71071D01*
X97962Y70974D01*
X97918Y70876D01*
X97869Y70788D01*
X97811Y70710D01*
X97806Y70705D01*
X97796Y70696D01*
X97776Y70676D01*
X97752Y70652D01*
X97718Y70622D01*
X97679Y70588D01*
X97635Y70554D01*
X97581Y70520D01*
X97523Y70481D01*
X97459Y70447D01*
X97391Y70413D01*
X97318Y70383D01*
X97235Y70359D01*
X97152Y70339D01*
X97059Y70330D01*
X96966Y70325D01*
X96932D01*
X96903Y70330D01*
X96873D01*
X96834Y70335D01*
X96751Y70349D01*
X96654Y70374D01*
X96551Y70408D01*
X96449Y70457D01*
X96356Y70525D01*
Y70530D01*
X96346Y70535D01*
X96317Y70564D01*
X96278Y70608D01*
X96234Y70676D01*
X96185Y70759D01*
X96137Y70862D01*
X96093Y70984D01*
X96063Y71120D01*
X96659Y71189D01*
Y71179D01*
X96664Y71159D01*
X96669Y71125D01*
X96678Y71086D01*
X96693Y71042D01*
X96712Y70993D01*
X96737Y70954D01*
X96766Y70915D01*
X96771Y70910D01*
X96781Y70901D01*
X96805Y70891D01*
X96830Y70876D01*
X96869Y70857D01*
X96908Y70847D01*
X96956Y70837D01*
X97010Y70832D01*
X97020D01*
X97044Y70837D01*
X97079Y70842D01*
X97122Y70852D01*
X97171Y70876D01*
X97225Y70906D01*
X97279Y70945D01*
X97332Y71003D01*
X97337Y71013D01*
X97347Y71023D01*
X97352Y71037D01*
X97366Y71062D01*
X97376Y71086D01*
X97391Y71120D01*
X97405Y71159D01*
X97415Y71208D01*
X97430Y71257D01*
X97444Y71315D01*
X97459Y71384D01*
X97474Y71457D01*
X97483Y71540D01*
X97493Y71633D01*
X97503Y71730D01*
X97498Y71725D01*
X97493Y71720D01*
X97479Y71706D01*
X97459Y71686D01*
X97410Y71647D01*
X97342Y71599D01*
X97259Y71545D01*
X97161Y71506D01*
X97049Y71472D01*
X96986Y71467D01*
X96922Y71462D01*
X96888D01*
X96859Y71467D01*
X96825Y71472D01*
X96791Y71477D01*
X96703Y71496D01*
X96600Y71530D01*
X96547Y71555D01*
X96488Y71584D01*
X96434Y71618D01*
X96381Y71657D01*
X96327Y71701D01*
X96273Y71750D01*
X96268Y71755D01*
X96263Y71764D01*
X96249Y71779D01*
X96229Y71803D01*
X96210Y71833D01*
X96185Y71867D01*
X96161Y71906D01*
X96137Y71955D01*
X96112Y72008D01*
X96088Y72062D01*
X96063Y72126D01*
X96044Y72194D01*
X96010Y72345D01*
X96005Y72423D01*
X96000Y72511D01*
Y72516D01*
Y72531D01*
Y72560D01*
X96005Y72594D01*
X96010Y72633D01*
X96015Y72682D01*
X96024Y72736D01*
X96034Y72794D01*
X96068Y72916D01*
X96093Y72984D01*
X96122Y73048D01*
X96156Y73116D01*
X96195Y73180D01*
X96239Y73238D01*
X96288Y73297D01*
X96293Y73302D01*
X96303Y73311D01*
X96317Y73326D01*
X96342Y73346D01*
X96371Y73365D01*
X96405Y73394D01*
X96444Y73419D01*
X96488Y73448D01*
X96537Y73477D01*
X96595Y73502D01*
X96654Y73531D01*
X96722Y73550D01*
X96791Y73570D01*
X96864Y73585D01*
X96942Y73594D01*
X97025Y73599D01*
X97074D01*
X97108Y73594D01*
D02*
G37*
G36*
X61644Y38601D02*
X61676D01*
X61742Y38598D01*
X61805Y38593D01*
X61835Y38591D01*
X61861Y38586D01*
X61883Y38584D01*
X61903Y38579D01*
X61905D01*
X61910Y38576D01*
X61915Y38574D01*
X61925Y38571D01*
X61952Y38562D01*
X61983Y38544D01*
X62020Y38525D01*
X62056Y38496D01*
X62096Y38462D01*
X62132Y38420D01*
Y38418D01*
X62137Y38415D01*
X62142Y38408D01*
X62147Y38398D01*
X62154Y38386D01*
X62161Y38371D01*
X62181Y38337D01*
X62198Y38291D01*
X62213Y38237D01*
X62222Y38176D01*
X62227Y38108D01*
Y38105D01*
Y38100D01*
Y38093D01*
Y38083D01*
X62225Y38056D01*
X62220Y38022D01*
X62215Y37983D01*
X62205Y37942D01*
X62191Y37900D01*
X62174Y37861D01*
X62171Y37856D01*
X62164Y37844D01*
X62152Y37827D01*
X62137Y37805D01*
X62117Y37778D01*
X62093Y37751D01*
X62066Y37727D01*
X62037Y37703D01*
X62035Y37700D01*
X62022Y37693D01*
X62005Y37683D01*
X61986Y37673D01*
X61959Y37659D01*
X61932Y37647D01*
X61900Y37637D01*
X61869Y37627D01*
X61864D01*
X61856Y37625D01*
X61847D01*
X61835Y37622D01*
X61820Y37620D01*
X61803Y37617D01*
X61783D01*
X61761Y37615D01*
X61737Y37612D01*
X61710Y37610D01*
X61678Y37608D01*
X61647D01*
X61612Y37605D01*
X61325D01*
Y37000D01*
X61000D01*
Y38603D01*
X61615D01*
X61644Y38601D01*
D02*
G37*
G36*
X97440Y63211D02*
X97479Y63206D01*
X97523Y63196D01*
X97572Y63187D01*
X97626Y63172D01*
X97684Y63157D01*
X97743Y63133D01*
X97806Y63109D01*
X97865Y63074D01*
X97923Y63035D01*
X97982Y62991D01*
X98036Y62938D01*
X98089Y62879D01*
X98094Y62874D01*
X98104Y62860D01*
X98119Y62835D01*
X98138Y62806D01*
X98163Y62762D01*
X98187Y62708D01*
X98216Y62645D01*
X98246Y62572D01*
X98275Y62484D01*
X98304Y62391D01*
X98329Y62284D01*
X98353Y62167D01*
X98373Y62035D01*
X98387Y61893D01*
X98397Y61742D01*
X98402Y61576D01*
Y61571D01*
Y61567D01*
Y61537D01*
Y61488D01*
X98397Y61430D01*
X98392Y61352D01*
X98387Y61269D01*
X98377Y61171D01*
X98363Y61069D01*
X98324Y60854D01*
X98299Y60747D01*
X98270Y60639D01*
X98231Y60537D01*
X98187Y60439D01*
X98138Y60347D01*
X98085Y60268D01*
X98080Y60264D01*
X98075Y60254D01*
X98060Y60239D01*
X98036Y60220D01*
X98011Y60190D01*
X97977Y60166D01*
X97943Y60137D01*
X97899Y60107D01*
X97850Y60073D01*
X97797Y60044D01*
X97733Y60019D01*
X97670Y59995D01*
X97601Y59971D01*
X97528Y59956D01*
X97445Y59946D01*
X97362Y59941D01*
X97343D01*
X97318Y59946D01*
X97284D01*
X97245Y59951D01*
X97201Y59961D01*
X97148Y59971D01*
X97094Y59985D01*
X97035Y60005D01*
X96972Y60029D01*
X96908Y60059D01*
X96845Y60093D01*
X96782Y60132D01*
X96723Y60181D01*
X96660Y60234D01*
X96606Y60298D01*
X96601Y60303D01*
X96596Y60317D01*
X96582Y60337D01*
X96562Y60371D01*
X96543Y60410D01*
X96518Y60459D01*
X96489Y60522D01*
X96464Y60595D01*
X96440Y60678D01*
X96411Y60771D01*
X96386Y60874D01*
X96367Y60991D01*
X96347Y61122D01*
X96337Y61259D01*
X96328Y61415D01*
X96323Y61581D01*
Y61586D01*
Y61591D01*
Y61620D01*
Y61669D01*
X96328Y61727D01*
X96333Y61806D01*
X96337Y61889D01*
X96347Y61981D01*
X96362Y62084D01*
X96401Y62299D01*
X96425Y62406D01*
X96455Y62513D01*
X96489Y62616D01*
X96533Y62713D01*
X96582Y62806D01*
X96635Y62884D01*
X96640Y62889D01*
X96645Y62899D01*
X96665Y62913D01*
X96684Y62938D01*
X96708Y62962D01*
X96743Y62991D01*
X96782Y63021D01*
X96825Y63050D01*
X96874Y63079D01*
X96928Y63113D01*
X96987Y63138D01*
X97050Y63162D01*
X97123Y63187D01*
X97196Y63201D01*
X97279Y63211D01*
X97362Y63216D01*
X97406D01*
X97440Y63211D01*
D02*
G37*
G36*
X56111Y37271D02*
X56913D01*
Y37000D01*
X55786D01*
Y38588D01*
X56111D01*
Y37271D01*
D02*
G37*
G36*
X57885Y38601D02*
X57936D01*
X57963Y38598D01*
X58024Y38593D01*
X58085Y38584D01*
X58143Y38574D01*
X58170Y38566D01*
X58192Y38559D01*
X58194D01*
X58197Y38557D01*
X58211Y38552D01*
X58233Y38540D01*
X58260Y38523D01*
X58289Y38501D01*
X58321Y38474D01*
X58350Y38442D01*
X58380Y38403D01*
X58382Y38398D01*
X58392Y38383D01*
X58402Y38361D01*
X58416Y38330D01*
X58429Y38293D01*
X58441Y38252D01*
X58448Y38203D01*
X58451Y38152D01*
Y38149D01*
Y38144D01*
Y38135D01*
X58448Y38122D01*
Y38105D01*
X58446Y38088D01*
X58438Y38047D01*
X58424Y38000D01*
X58404Y37949D01*
X58380Y37900D01*
X58363Y37876D01*
X58343Y37854D01*
Y37852D01*
X58338Y37849D01*
X58331Y37844D01*
X58324Y37835D01*
X58311Y37827D01*
X58299Y37815D01*
X58282Y37803D01*
X58265Y37791D01*
X58243Y37778D01*
X58221Y37766D01*
X58194Y37754D01*
X58165Y37742D01*
X58136Y37730D01*
X58102Y37720D01*
X58068Y37712D01*
X58028Y37705D01*
X58031D01*
X58033Y37703D01*
X58046Y37695D01*
X58065Y37683D01*
X58089Y37666D01*
X58116Y37647D01*
X58146Y37622D01*
X58175Y37598D01*
X58202Y37571D01*
X58204Y37569D01*
X58214Y37556D01*
X58228Y37539D01*
X58250Y37512D01*
X58277Y37476D01*
X58307Y37432D01*
X58326Y37405D01*
X58343Y37376D01*
X58363Y37347D01*
X58385Y37312D01*
X58580Y37000D01*
X58192D01*
X57963Y37347D01*
X57960Y37349D01*
X57958Y37354D01*
X57950Y37364D01*
X57943Y37376D01*
X57933Y37393D01*
X57921Y37407D01*
X57894Y37446D01*
X57867Y37488D01*
X57838Y37525D01*
X57811Y37559D01*
X57802Y37573D01*
X57792Y37583D01*
X57789Y37586D01*
X57784Y37591D01*
X57775Y37600D01*
X57762Y37610D01*
X57731Y37632D01*
X57714Y37642D01*
X57694Y37649D01*
X57692D01*
X57684Y37652D01*
X57672Y37656D01*
X57655Y37659D01*
X57633Y37664D01*
X57606Y37666D01*
X57572Y37669D01*
X57470D01*
Y37000D01*
X57145D01*
Y38603D01*
X57863D01*
X57885Y38601D01*
D02*
G37*
G36*
X95410Y60000D02*
X94795D01*
Y62313D01*
X94791Y62308D01*
X94781Y62299D01*
X94761Y62284D01*
X94737Y62259D01*
X94703Y62235D01*
X94664Y62206D01*
X94620Y62172D01*
X94566Y62137D01*
X94512Y62098D01*
X94449Y62059D01*
X94317Y61986D01*
X94166Y61913D01*
X94000Y61849D01*
Y62406D01*
X94005D01*
X94010Y62411D01*
X94024Y62416D01*
X94044Y62420D01*
X94093Y62440D01*
X94156Y62474D01*
X94234Y62513D01*
X94322Y62567D01*
X94420Y62625D01*
X94522Y62704D01*
X94527Y62708D01*
X94537Y62713D01*
X94551Y62728D01*
X94566Y62743D01*
X94615Y62787D01*
X94678Y62850D01*
X94742Y62923D01*
X94805Y63011D01*
X94864Y63109D01*
X94908Y63216D01*
X95410D01*
Y60000D01*
D02*
G37*
G36*
X65346Y38601D02*
X65397D01*
X65424Y38598D01*
X65485Y38593D01*
X65546Y38584D01*
X65604Y38574D01*
X65631Y38566D01*
X65653Y38559D01*
X65655D01*
X65658Y38557D01*
X65673Y38552D01*
X65695Y38540D01*
X65721Y38523D01*
X65751Y38501D01*
X65782Y38474D01*
X65812Y38442D01*
X65841Y38403D01*
X65843Y38398D01*
X65853Y38383D01*
X65863Y38361D01*
X65878Y38330D01*
X65890Y38293D01*
X65902Y38252D01*
X65909Y38203D01*
X65912Y38152D01*
Y38149D01*
Y38144D01*
Y38135D01*
X65909Y38122D01*
Y38105D01*
X65907Y38088D01*
X65899Y38047D01*
X65885Y38000D01*
X65865Y37949D01*
X65841Y37900D01*
X65824Y37876D01*
X65804Y37854D01*
Y37852D01*
X65799Y37849D01*
X65792Y37844D01*
X65785Y37835D01*
X65773Y37827D01*
X65760Y37815D01*
X65743Y37803D01*
X65726Y37791D01*
X65704Y37778D01*
X65682Y37766D01*
X65655Y37754D01*
X65626Y37742D01*
X65597Y37730D01*
X65563Y37720D01*
X65529Y37712D01*
X65490Y37705D01*
X65492D01*
X65495Y37703D01*
X65507Y37695D01*
X65526Y37683D01*
X65551Y37666D01*
X65577Y37647D01*
X65607Y37622D01*
X65636Y37598D01*
X65663Y37571D01*
X65665Y37569D01*
X65675Y37556D01*
X65690Y37539D01*
X65712Y37512D01*
X65738Y37476D01*
X65768Y37432D01*
X65787Y37405D01*
X65804Y37376D01*
X65824Y37347D01*
X65846Y37312D01*
X66041Y37000D01*
X65653D01*
X65424Y37347D01*
X65421Y37349D01*
X65419Y37354D01*
X65412Y37364D01*
X65404Y37376D01*
X65394Y37393D01*
X65382Y37407D01*
X65355Y37446D01*
X65329Y37488D01*
X65299Y37525D01*
X65272Y37559D01*
X65263Y37573D01*
X65253Y37583D01*
X65250Y37586D01*
X65246Y37591D01*
X65236Y37600D01*
X65224Y37610D01*
X65192Y37632D01*
X65175Y37642D01*
X65155Y37649D01*
X65153D01*
X65146Y37652D01*
X65133Y37656D01*
X65116Y37659D01*
X65094Y37664D01*
X65067Y37666D01*
X65033Y37669D01*
X64931D01*
Y37000D01*
X64606D01*
Y38603D01*
X65324D01*
X65346Y38601D01*
D02*
G37*
G36*
X98500Y101326D02*
X97417Y100619D01*
X98500Y99906D01*
Y99130D01*
X96831Y100238D01*
X95294Y99233D01*
Y99989D01*
X96255Y100619D01*
X95294Y101253D01*
Y102009D01*
X96831Y101004D01*
X98500Y102107D01*
Y101326D01*
D02*
G37*
G36*
X98098Y92213D02*
X98093Y92208D01*
X98089Y92203D01*
X98074Y92184D01*
X98054Y92164D01*
X98030Y92140D01*
X98001Y92106D01*
X97967Y92067D01*
X97932Y92023D01*
X97893Y91974D01*
X97854Y91921D01*
X97811Y91857D01*
X97762Y91794D01*
X97718Y91720D01*
X97669Y91647D01*
X97615Y91564D01*
X97566Y91476D01*
X97562Y91471D01*
X97557Y91457D01*
X97542Y91428D01*
X97523Y91393D01*
X97498Y91350D01*
X97474Y91296D01*
X97444Y91237D01*
X97415Y91169D01*
X97381Y91096D01*
X97347Y91018D01*
X97313Y90935D01*
X97279Y90847D01*
X97215Y90657D01*
X97157Y90456D01*
Y90452D01*
X97152Y90432D01*
X97142Y90403D01*
X97137Y90369D01*
X97122Y90320D01*
X97113Y90266D01*
X97098Y90203D01*
X97088Y90134D01*
X97074Y90061D01*
X97059Y89988D01*
X97039Y89827D01*
X97025Y89661D01*
X97020Y89500D01*
X96429D01*
Y89510D01*
Y89529D01*
X96434Y89563D01*
Y89612D01*
X96439Y89676D01*
X96449Y89744D01*
X96459Y89827D01*
X96469Y89915D01*
X96483Y90012D01*
X96503Y90120D01*
X96527Y90232D01*
X96551Y90344D01*
X96581Y90466D01*
X96615Y90593D01*
X96659Y90720D01*
X96703Y90847D01*
X96708Y90857D01*
X96712Y90876D01*
X96732Y90915D01*
X96751Y90964D01*
X96776Y91023D01*
X96805Y91096D01*
X96844Y91174D01*
X96888Y91262D01*
X96932Y91354D01*
X96986Y91452D01*
X97103Y91662D01*
X97240Y91877D01*
X97391Y92086D01*
X96000D01*
Y92657D01*
X98098D01*
Y92213D01*
D02*
G37*
G36*
X97118Y83211D02*
X97157D01*
X97201Y83206D01*
X97249Y83196D01*
X97303Y83187D01*
X97415Y83157D01*
X97532Y83118D01*
X97649Y83060D01*
X97703Y83021D01*
X97752Y82982D01*
X97757Y82977D01*
X97762Y82972D01*
X97776Y82957D01*
X97791Y82938D01*
X97830Y82889D01*
X97879Y82821D01*
X97928Y82733D01*
X97967Y82630D01*
X97996Y82518D01*
X98001Y82455D01*
X98006Y82386D01*
Y82377D01*
Y82347D01*
X98001Y82308D01*
X97991Y82255D01*
X97976Y82191D01*
X97957Y82128D01*
X97928Y82059D01*
X97889Y81991D01*
X97884Y81981D01*
X97869Y81962D01*
X97840Y81932D01*
X97806Y81893D01*
X97757Y81849D01*
X97703Y81806D01*
X97635Y81767D01*
X97562Y81727D01*
X97566D01*
X97571Y81723D01*
X97586Y81718D01*
X97606Y81708D01*
X97654Y81684D01*
X97713Y81649D01*
X97776Y81605D01*
X97845Y81552D01*
X97908Y81488D01*
X97967Y81415D01*
X97971Y81405D01*
X97991Y81381D01*
X98011Y81337D01*
X98040Y81279D01*
X98064Y81210D01*
X98089Y81127D01*
X98103Y81035D01*
X98108Y80937D01*
Y80932D01*
Y80917D01*
Y80893D01*
X98103Y80864D01*
X98098Y80825D01*
X98093Y80781D01*
X98084Y80732D01*
X98074Y80678D01*
X98040Y80566D01*
X98015Y80507D01*
X97986Y80444D01*
X97952Y80386D01*
X97918Y80327D01*
X97869Y80268D01*
X97820Y80215D01*
X97815Y80210D01*
X97806Y80205D01*
X97791Y80190D01*
X97767Y80171D01*
X97742Y80151D01*
X97708Y80127D01*
X97664Y80102D01*
X97620Y80078D01*
X97571Y80054D01*
X97513Y80029D01*
X97449Y80005D01*
X97386Y79985D01*
X97313Y79966D01*
X97235Y79951D01*
X97157Y79946D01*
X97069Y79941D01*
X97025D01*
X96996Y79946D01*
X96956D01*
X96913Y79956D01*
X96864Y79961D01*
X96815Y79971D01*
X96698Y80000D01*
X96576Y80039D01*
X96454Y80098D01*
X96395Y80132D01*
X96342Y80171D01*
X96337Y80176D01*
X96327Y80185D01*
X96312Y80200D01*
X96288Y80220D01*
X96263Y80249D01*
X96234Y80283D01*
X96205Y80322D01*
X96171Y80366D01*
X96141Y80415D01*
X96107Y80468D01*
X96078Y80532D01*
X96054Y80595D01*
X96029Y80669D01*
X96015Y80747D01*
X96005Y80825D01*
X96000Y80913D01*
Y80917D01*
Y80922D01*
Y80937D01*
Y80957D01*
X96005Y81005D01*
X96015Y81069D01*
X96029Y81142D01*
X96054Y81225D01*
X96083Y81308D01*
X96127Y81391D01*
Y81396D01*
X96132Y81401D01*
X96151Y81425D01*
X96181Y81469D01*
X96224Y81518D01*
X96283Y81571D01*
X96351Y81625D01*
X96434Y81679D01*
X96532Y81727D01*
X96527D01*
X96522Y81732D01*
X96493Y81747D01*
X96454Y81767D01*
X96400Y81801D01*
X96346Y81835D01*
X96288Y81884D01*
X96234Y81937D01*
X96190Y82001D01*
X96185Y82011D01*
X96176Y82030D01*
X96156Y82069D01*
X96137Y82113D01*
X96117Y82172D01*
X96098Y82240D01*
X96088Y82308D01*
X96083Y82386D01*
Y82391D01*
Y82401D01*
Y82420D01*
X96088Y82445D01*
X96093Y82479D01*
X96098Y82513D01*
X96112Y82596D01*
X96141Y82689D01*
X96190Y82791D01*
X96215Y82840D01*
X96249Y82889D01*
X96288Y82938D01*
X96332Y82982D01*
X96337Y82987D01*
X96342Y82991D01*
X96356Y83001D01*
X96376Y83021D01*
X96405Y83035D01*
X96434Y83055D01*
X96473Y83079D01*
X96512Y83099D01*
X96561Y83123D01*
X96615Y83143D01*
X96673Y83162D01*
X96737Y83182D01*
X96805Y83196D01*
X96878Y83206D01*
X96961Y83211D01*
X97044Y83216D01*
X97088D01*
X97118Y83211D01*
D02*
G37*
G36*
X95836Y98091D02*
X98500D01*
Y97442D01*
X95836D01*
Y96500D01*
X95294D01*
Y99033D01*
X95836D01*
Y98091D01*
D02*
G37*
G36*
X64050Y37000D02*
X63704D01*
X63384Y38198D01*
X63067Y37000D01*
X62710D01*
X62337Y38603D01*
X62669D01*
X62906Y37500D01*
X63198Y38603D01*
X63582D01*
X63865Y37483D01*
X64109Y38603D01*
X64435D01*
X64050Y37000D01*
D02*
G37*
G36*
X98500Y110593D02*
X97807Y110135D01*
X97802Y110130D01*
X97792Y110125D01*
X97773Y110110D01*
X97749Y110096D01*
X97714Y110076D01*
X97685Y110052D01*
X97607Y109998D01*
X97524Y109944D01*
X97451Y109886D01*
X97382Y109832D01*
X97353Y109813D01*
X97334Y109793D01*
X97329Y109788D01*
X97319Y109779D01*
X97299Y109759D01*
X97280Y109735D01*
X97236Y109671D01*
X97217Y109637D01*
X97202Y109598D01*
Y109593D01*
X97197Y109579D01*
X97187Y109554D01*
X97182Y109520D01*
X97173Y109476D01*
X97168Y109422D01*
X97163Y109354D01*
Y109276D01*
Y109149D01*
X98500D01*
Y108500D01*
X95294D01*
Y109852D01*
Y109857D01*
Y109876D01*
Y109901D01*
Y109935D01*
X95299Y109979D01*
Y110027D01*
Y110081D01*
X95304Y110135D01*
X95313Y110257D01*
X95333Y110379D01*
X95352Y110496D01*
X95367Y110550D01*
X95382Y110593D01*
Y110598D01*
X95387Y110603D01*
X95396Y110633D01*
X95421Y110677D01*
X95455Y110730D01*
X95499Y110789D01*
X95552Y110852D01*
X95616Y110911D01*
X95694Y110969D01*
X95704Y110974D01*
X95733Y110994D01*
X95777Y111013D01*
X95840Y111042D01*
X95914Y111067D01*
X95997Y111091D01*
X96094Y111106D01*
X96197Y111111D01*
X96231D01*
X96255Y111106D01*
X96289D01*
X96324Y111101D01*
X96407Y111086D01*
X96499Y111057D01*
X96602Y111018D01*
X96699Y110969D01*
X96748Y110935D01*
X96792Y110896D01*
X96797D01*
X96802Y110886D01*
X96811Y110872D01*
X96831Y110857D01*
X96846Y110833D01*
X96870Y110808D01*
X96895Y110774D01*
X96919Y110740D01*
X96943Y110696D01*
X96968Y110652D01*
X96992Y110598D01*
X97017Y110540D01*
X97041Y110481D01*
X97060Y110413D01*
X97075Y110345D01*
X97090Y110267D01*
Y110271D01*
X97095Y110276D01*
X97109Y110301D01*
X97134Y110340D01*
X97168Y110389D01*
X97207Y110442D01*
X97256Y110501D01*
X97304Y110559D01*
X97358Y110613D01*
X97363Y110618D01*
X97387Y110637D01*
X97421Y110667D01*
X97475Y110711D01*
X97548Y110764D01*
X97636Y110823D01*
X97690Y110862D01*
X97749Y110896D01*
X97807Y110935D01*
X97875Y110979D01*
X98500Y111369D01*
Y110593D01*
D02*
G37*
G36*
Y113600D02*
X97417Y112892D01*
X98500Y112180D01*
Y111404D01*
X96831Y112511D01*
X95294Y111506D01*
Y112262D01*
X96255Y112892D01*
X95294Y113526D01*
Y114283D01*
X96831Y113277D01*
X98500Y114380D01*
Y113600D01*
D02*
G37*
G36*
X55608Y37000D02*
X55257D01*
X55120Y37364D01*
X54473D01*
X54342Y37000D01*
X54000D01*
X54622Y38603D01*
X54964D01*
X55608Y37000D01*
D02*
G37*
G36*
X49733Y38332D02*
X49262D01*
Y37000D01*
X48937D01*
Y38332D01*
X48466D01*
Y38603D01*
X49733D01*
Y38332D01*
D02*
G37*
G36*
X26019Y66421D02*
X26043D01*
X26063Y66426D01*
X26117Y66431D01*
X26175Y66441D01*
X26248Y66460D01*
X26317Y66485D01*
X26385Y66519D01*
X26449Y66568D01*
X26453Y66573D01*
X26473Y66592D01*
X26497Y66621D01*
X26522Y66665D01*
X26551Y66714D01*
X26575Y66777D01*
X26595Y66846D01*
X26600Y66919D01*
Y66924D01*
Y66943D01*
X26595Y66973D01*
X26590Y67007D01*
X26580Y67041D01*
X26566Y67085D01*
X26546Y67124D01*
X26522Y67163D01*
X26517Y67168D01*
X26507Y67178D01*
X26488Y67197D01*
X26458Y67217D01*
X26424Y67241D01*
X26380Y67270D01*
X26331Y67295D01*
X26268Y67314D01*
X26370Y67924D01*
X26375D01*
X26385Y67919D01*
X26405Y67910D01*
X26424Y67900D01*
X26453Y67890D01*
X26488Y67871D01*
X26561Y67832D01*
X26644Y67778D01*
X26727Y67715D01*
X26810Y67636D01*
X26883Y67549D01*
Y67544D01*
X26893Y67539D01*
X26897Y67524D01*
X26912Y67505D01*
X26922Y67480D01*
X26937Y67446D01*
X26971Y67373D01*
X27005Y67280D01*
X27029Y67173D01*
X27049Y67051D01*
X27059Y66914D01*
Y66909D01*
Y66890D01*
X27054Y66856D01*
Y66817D01*
X27044Y66763D01*
X27039Y66709D01*
X27024Y66646D01*
X27010Y66577D01*
X26990Y66504D01*
X26961Y66431D01*
X26932Y66353D01*
X26893Y66280D01*
X26849Y66207D01*
X26795Y66138D01*
X26732Y66075D01*
X26663Y66016D01*
X26658D01*
X26649Y66006D01*
X26629Y65997D01*
X26605Y65982D01*
X26575Y65963D01*
X26536Y65943D01*
X26493Y65924D01*
X26444Y65904D01*
X26390Y65885D01*
X26327Y65865D01*
X26263Y65845D01*
X26190Y65826D01*
X26034Y65802D01*
X25951Y65797D01*
X25863Y65792D01*
X25809D01*
X25765Y65797D01*
X25721Y65802D01*
X25663Y65806D01*
X25599Y65816D01*
X25536Y65831D01*
X25390Y65865D01*
X25316Y65889D01*
X25238Y65919D01*
X25165Y65953D01*
X25092Y65992D01*
X25024Y66036D01*
X24960Y66089D01*
X24955Y66094D01*
X24946Y66104D01*
X24931Y66119D01*
X24906Y66143D01*
X24882Y66172D01*
X24853Y66211D01*
X24824Y66250D01*
X24794Y66299D01*
X24765Y66353D01*
X24731Y66407D01*
X24706Y66470D01*
X24682Y66538D01*
X24658Y66612D01*
X24643Y66685D01*
X24633Y66768D01*
X24628Y66851D01*
Y66856D01*
Y66875D01*
Y66900D01*
X24633Y66939D01*
X24638Y66983D01*
X24648Y67031D01*
X24658Y67090D01*
X24672Y67148D01*
X24692Y67212D01*
X24711Y67280D01*
X24741Y67348D01*
X24775Y67417D01*
X24814Y67485D01*
X24863Y67549D01*
X24911Y67612D01*
X24975Y67671D01*
X24980Y67675D01*
X24989Y67685D01*
X25009Y67700D01*
X25038Y67719D01*
X25077Y67739D01*
X25121Y67763D01*
X25170Y67793D01*
X25233Y67817D01*
X25302Y67846D01*
X25380Y67871D01*
X25468Y67895D01*
X25560Y67919D01*
X25663Y67934D01*
X25770Y67949D01*
X25892Y67958D01*
X26019D01*
Y66421D01*
D02*
G37*
G36*
X27000Y70950D02*
X24677D01*
Y71565D01*
X27000D01*
Y70950D01*
D02*
G37*
G36*
Y69832D02*
X26283Y69359D01*
X27000Y68881D01*
Y68163D01*
X25804Y68998D01*
X24677Y68198D01*
Y68949D01*
X25316Y69359D01*
X24677Y69793D01*
Y70511D01*
X25780Y69725D01*
X27000Y70584D01*
Y69832D01*
D02*
G37*
G36*
X24360Y70950D02*
X23794D01*
Y71565D01*
X24360D01*
Y70950D01*
D02*
G37*
G36*
X27000Y64728D02*
X23794D01*
Y65343D01*
X27000D01*
Y64728D01*
D02*
G37*
G36*
X47690Y38627D02*
X47717Y38625D01*
X47747Y38623D01*
X47778Y38618D01*
X47813Y38613D01*
X47886Y38598D01*
X47961Y38574D01*
X47998Y38559D01*
X48032Y38540D01*
X48066Y38520D01*
X48096Y38496D01*
X48098Y38493D01*
X48103Y38488D01*
X48110Y38481D01*
X48120Y38471D01*
X48132Y38459D01*
X48144Y38442D01*
X48159Y38423D01*
X48174Y38401D01*
X48188Y38376D01*
X48201Y38349D01*
X48227Y38291D01*
X48237Y38257D01*
X48247Y38220D01*
X48254Y38181D01*
X48257Y38142D01*
X47932Y38130D01*
Y38132D01*
Y38135D01*
X47927Y38149D01*
X47922Y38171D01*
X47913Y38198D01*
X47900Y38227D01*
X47886Y38257D01*
X47866Y38283D01*
X47842Y38305D01*
X47839Y38308D01*
X47830Y38315D01*
X47815Y38322D01*
X47793Y38335D01*
X47764Y38344D01*
X47730Y38352D01*
X47688Y38359D01*
X47639Y38361D01*
X47617D01*
X47591Y38359D01*
X47559Y38354D01*
X47525Y38347D01*
X47488Y38337D01*
X47451Y38322D01*
X47420Y38303D01*
X47417Y38300D01*
X47412Y38296D01*
X47405Y38288D01*
X47395Y38276D01*
X47385Y38262D01*
X47378Y38244D01*
X47373Y38225D01*
X47371Y38203D01*
Y38201D01*
Y38193D01*
X47373Y38183D01*
X47376Y38169D01*
X47383Y38154D01*
X47390Y38137D01*
X47403Y38122D01*
X47417Y38105D01*
X47420Y38103D01*
X47429Y38096D01*
X47449Y38086D01*
X47461Y38081D01*
X47478Y38074D01*
X47495Y38064D01*
X47517Y38056D01*
X47539Y38047D01*
X47569Y38039D01*
X47598Y38030D01*
X47632Y38020D01*
X47671Y38008D01*
X47712Y37998D01*
X47715D01*
X47722Y37995D01*
X47734Y37993D01*
X47752Y37988D01*
X47771Y37983D01*
X47793Y37976D01*
X47844Y37964D01*
X47903Y37944D01*
X47959Y37927D01*
X48015Y37905D01*
X48039Y37896D01*
X48061Y37883D01*
X48064D01*
X48066Y37881D01*
X48081Y37874D01*
X48100Y37859D01*
X48125Y37842D01*
X48154Y37817D01*
X48183Y37791D01*
X48210Y37756D01*
X48237Y37720D01*
X48239Y37715D01*
X48247Y37703D01*
X48259Y37678D01*
X48271Y37649D01*
X48281Y37612D01*
X48293Y37569D01*
X48300Y37520D01*
X48303Y37466D01*
Y37464D01*
Y37459D01*
Y37451D01*
Y37442D01*
X48298Y37415D01*
X48293Y37381D01*
X48283Y37342D01*
X48271Y37298D01*
X48252Y37251D01*
X48225Y37205D01*
Y37203D01*
X48222Y37200D01*
X48210Y37185D01*
X48193Y37163D01*
X48169Y37139D01*
X48140Y37110D01*
X48100Y37080D01*
X48059Y37051D01*
X48008Y37027D01*
X48005D01*
X48000Y37024D01*
X47993Y37022D01*
X47983Y37017D01*
X47969Y37015D01*
X47954Y37010D01*
X47934Y37005D01*
X47913Y37000D01*
X47861Y36988D01*
X47803Y36981D01*
X47737Y36973D01*
X47661Y36971D01*
X47632D01*
X47610Y36973D01*
X47586Y36976D01*
X47556Y36978D01*
X47525Y36983D01*
X47488Y36988D01*
X47412Y37005D01*
X47373Y37017D01*
X47334Y37029D01*
X47298Y37046D01*
X47261Y37063D01*
X47225Y37085D01*
X47193Y37110D01*
X47190Y37112D01*
X47185Y37117D01*
X47178Y37124D01*
X47166Y37137D01*
X47154Y37151D01*
X47139Y37168D01*
X47124Y37190D01*
X47107Y37212D01*
X47090Y37242D01*
X47073Y37271D01*
X47059Y37305D01*
X47041Y37342D01*
X47029Y37381D01*
X47017Y37425D01*
X47007Y37471D01*
X47000Y37520D01*
X47315Y37551D01*
Y37549D01*
X47317Y37544D01*
Y37537D01*
X47320Y37525D01*
X47327Y37498D01*
X47339Y37461D01*
X47354Y37425D01*
X47373Y37385D01*
X47398Y37349D01*
X47427Y37317D01*
X47432Y37315D01*
X47444Y37305D01*
X47464Y37295D01*
X47490Y37281D01*
X47525Y37268D01*
X47564Y37256D01*
X47610Y37246D01*
X47664Y37244D01*
X47690D01*
X47717Y37246D01*
X47752Y37251D01*
X47791Y37261D01*
X47830Y37271D01*
X47866Y37288D01*
X47898Y37310D01*
X47900Y37312D01*
X47910Y37322D01*
X47922Y37334D01*
X47939Y37354D01*
X47954Y37376D01*
X47966Y37403D01*
X47976Y37432D01*
X47978Y37464D01*
Y37466D01*
Y37473D01*
X47976Y37483D01*
X47974Y37498D01*
X47964Y37527D01*
X47956Y37544D01*
X47944Y37559D01*
X47942Y37561D01*
X47937Y37566D01*
X47930Y37573D01*
X47917Y37583D01*
X47900Y37595D01*
X47881Y37605D01*
X47856Y37617D01*
X47827Y37630D01*
X47825D01*
X47815Y37634D01*
X47798Y37639D01*
X47774Y37647D01*
X47759Y37652D01*
X47739Y37656D01*
X47720Y37661D01*
X47695Y37669D01*
X47669Y37676D01*
X47639Y37683D01*
X47608Y37690D01*
X47571Y37700D01*
X47569D01*
X47559Y37703D01*
X47547Y37708D01*
X47530Y37712D01*
X47508Y37717D01*
X47483Y37725D01*
X47429Y37744D01*
X47368Y37766D01*
X47307Y37793D01*
X47254Y37825D01*
X47229Y37842D01*
X47207Y37859D01*
X47205Y37861D01*
X47200Y37866D01*
X47193Y37874D01*
X47185Y37883D01*
X47173Y37896D01*
X47161Y37910D01*
X47149Y37930D01*
X47134Y37949D01*
X47107Y37995D01*
X47083Y38052D01*
X47076Y38081D01*
X47068Y38113D01*
X47063Y38147D01*
X47061Y38181D01*
Y38183D01*
Y38186D01*
Y38193D01*
Y38203D01*
X47066Y38225D01*
X47071Y38257D01*
X47078Y38291D01*
X47090Y38330D01*
X47107Y38369D01*
X47129Y38410D01*
Y38413D01*
X47132Y38415D01*
X47142Y38427D01*
X47159Y38447D01*
X47181Y38471D01*
X47207Y38498D01*
X47242Y38525D01*
X47281Y38552D01*
X47327Y38574D01*
X47329D01*
X47332Y38576D01*
X47342Y38579D01*
X47351Y38584D01*
X47364Y38586D01*
X47378Y38591D01*
X47415Y38603D01*
X47461Y38613D01*
X47515Y38620D01*
X47576Y38627D01*
X47642Y38630D01*
X47671D01*
X47690Y38627D01*
D02*
G37*
G36*
X24336Y62649D02*
X25097D01*
Y63986D01*
X25638D01*
Y62649D01*
X27000D01*
Y62000D01*
X23794D01*
Y64196D01*
X24336D01*
Y62649D01*
D02*
G37*
G36*
X115968Y55139D02*
X116015D01*
X116070Y55131D01*
X116210Y55108D01*
X116359Y55069D01*
X116523Y55006D01*
X116687Y54928D01*
X116835Y54819D01*
X116843D01*
X116851Y54803D01*
X116897Y54756D01*
X116960Y54686D01*
X117038Y54577D01*
X117124Y54444D01*
X117202Y54280D01*
X117272Y54085D01*
X117327Y53866D01*
X116374Y53764D01*
Y53780D01*
X116366Y53811D01*
X116351Y53866D01*
X116335Y53928D01*
X116312Y53999D01*
X116280Y54069D01*
X116242Y54139D01*
X116187Y54194D01*
X116179Y54202D01*
X116163Y54217D01*
X116132Y54241D01*
X116085Y54264D01*
X116031Y54288D01*
X115968Y54311D01*
X115898Y54327D01*
X115812Y54335D01*
X115796D01*
X115757Y54327D01*
X115703Y54319D01*
X115632Y54303D01*
X115546Y54264D01*
X115453Y54217D01*
X115367Y54147D01*
X115281Y54053D01*
X115273Y54038D01*
X115257Y54022D01*
X115250Y53999D01*
X115234Y53960D01*
X115210Y53921D01*
X115187Y53866D01*
X115172Y53803D01*
X115148Y53733D01*
X115125Y53647D01*
X115101Y53553D01*
X115078Y53444D01*
X115062Y53327D01*
X115047Y53194D01*
X115031Y53046D01*
X115015Y52890D01*
X115023Y52898D01*
X115031Y52905D01*
X115054Y52929D01*
X115078Y52960D01*
X115164Y53030D01*
X115265Y53108D01*
X115398Y53187D01*
X115554Y53257D01*
X115734Y53311D01*
X115828Y53319D01*
X115929Y53327D01*
X115992D01*
X116031Y53319D01*
X116085Y53311D01*
X116148Y53304D01*
X116288Y53265D01*
X116452Y53210D01*
X116538Y53171D01*
X116624Y53124D01*
X116718Y53069D01*
X116804Y53007D01*
X116890Y52937D01*
X116976Y52851D01*
X116983Y52843D01*
X116991Y52827D01*
X117015Y52804D01*
X117046Y52765D01*
X117077Y52718D01*
X117116Y52663D01*
X117155Y52601D01*
X117202Y52523D01*
X117241Y52444D01*
X117280Y52351D01*
X117319Y52249D01*
X117350Y52140D01*
X117382Y52031D01*
X117405Y51906D01*
X117413Y51773D01*
X117421Y51640D01*
Y51632D01*
Y51609D01*
Y51562D01*
X117413Y51507D01*
X117405Y51445D01*
X117397Y51367D01*
X117382Y51281D01*
X117366Y51187D01*
X117304Y50984D01*
X117272Y50883D01*
X117226Y50773D01*
X117171Y50672D01*
X117108Y50570D01*
X117038Y50469D01*
X116952Y50375D01*
X116944Y50367D01*
X116929Y50351D01*
X116905Y50328D01*
X116866Y50305D01*
X116827Y50266D01*
X116773Y50226D01*
X116702Y50187D01*
X116632Y50141D01*
X116554Y50094D01*
X116460Y50055D01*
X116366Y50016D01*
X116257Y49977D01*
X116148Y49953D01*
X116031Y49930D01*
X115906Y49914D01*
X115773Y49906D01*
X115742D01*
X115695Y49914D01*
X115640D01*
X115578Y49922D01*
X115499Y49937D01*
X115414Y49953D01*
X115320Y49984D01*
X115218Y50016D01*
X115117Y50055D01*
X115007Y50102D01*
X114906Y50164D01*
X114797Y50226D01*
X114687Y50312D01*
X114586Y50398D01*
X114492Y50508D01*
X114484Y50516D01*
X114469Y50539D01*
X114445Y50570D01*
X114414Y50625D01*
X114375Y50687D01*
X114336Y50773D01*
X114289Y50867D01*
X114250Y50984D01*
X114203Y51109D01*
X114156Y51257D01*
X114117Y51414D01*
X114078Y51593D01*
X114047Y51789D01*
X114023Y52007D01*
X114008Y52234D01*
X114000Y52484D01*
Y52491D01*
Y52499D01*
Y52546D01*
Y52616D01*
X114008Y52718D01*
X114016Y52827D01*
X114031Y52968D01*
X114047Y53108D01*
X114062Y53272D01*
X114125Y53600D01*
X114164Y53772D01*
X114219Y53944D01*
X114273Y54100D01*
X114344Y54256D01*
X114422Y54397D01*
X114515Y54522D01*
X114523Y54530D01*
X114539Y54545D01*
X114570Y54577D01*
X114609Y54624D01*
X114664Y54670D01*
X114726Y54717D01*
X114797Y54780D01*
X114883Y54834D01*
X114976Y54889D01*
X115078Y54952D01*
X115187Y54998D01*
X115304Y55053D01*
X115437Y55092D01*
X115570Y55123D01*
X115718Y55139D01*
X115867Y55147D01*
X115921D01*
X115968Y55139D01*
D02*
G37*
G36*
X51390Y37000D02*
X51038D01*
X50902Y37364D01*
X50255D01*
X50123Y37000D01*
X49782D01*
X50404Y38603D01*
X50745D01*
X51390Y37000D01*
D02*
G37*
G36*
X52715Y38332D02*
X52244D01*
Y37000D01*
X51919D01*
Y38332D01*
X51448D01*
Y38603D01*
X52715D01*
Y38332D01*
D02*
G37*
%LPC*%
G36*
X45990Y102586D02*
X45939D01*
X45609Y102180D01*
X45292Y102586D01*
X45241D01*
X45609Y102120D01*
X45990Y102586D01*
D02*
G37*
G36*
X50012D02*
X49936D01*
X49829Y102173D01*
X50012Y102586D01*
D02*
G37*
G36*
X115773Y52601D02*
X115726D01*
X115671Y52593D01*
X115609Y52570D01*
X115531Y52546D01*
X115453Y52507D01*
X115375Y52452D01*
X115296Y52374D01*
X115289Y52366D01*
X115265Y52335D01*
X115234Y52280D01*
X115203Y52210D01*
X115164Y52117D01*
X115132Y52007D01*
X115109Y51874D01*
X115101Y51718D01*
Y51710D01*
Y51695D01*
Y51671D01*
Y51640D01*
X115117Y51554D01*
X115132Y51445D01*
X115156Y51328D01*
X115195Y51203D01*
X115250Y51086D01*
X115320Y50976D01*
X115328Y50968D01*
X115359Y50937D01*
X115406Y50898D01*
X115468Y50851D01*
X115539Y50797D01*
X115624Y50758D01*
X115718Y50726D01*
X115820Y50718D01*
X115867D01*
X115913Y50726D01*
X115976Y50742D01*
X116054Y50773D01*
X116124Y50804D01*
X116202Y50859D01*
X116273Y50929D01*
X116280Y50937D01*
X116304Y50968D01*
X116335Y51023D01*
X116366Y51093D01*
X116398Y51195D01*
X116429Y51312D01*
X116452Y51460D01*
X116460Y51632D01*
Y51640D01*
Y51656D01*
Y51679D01*
Y51718D01*
X116452Y51804D01*
X116437Y51913D01*
X116413Y52031D01*
X116374Y52156D01*
X116327Y52265D01*
X116257Y52366D01*
X116249Y52374D01*
X116226Y52406D01*
X116179Y52444D01*
X116124Y52484D01*
X116054Y52530D01*
X115968Y52562D01*
X115874Y52593D01*
X115773Y52601D01*
D02*
G37*
G36*
X49124Y102688D02*
X48972D01*
X48934Y102675D01*
X48908D01*
X48883Y102662D01*
X48845Y102637D01*
X48819Y102624D01*
X48769Y102574D01*
Y102561D01*
X48756Y102535D01*
X48743Y102447D01*
Y102434D01*
Y102409D01*
X48756Y102371D01*
X48769Y102332D01*
Y102320D01*
X48794Y102294D01*
X48819Y102269D01*
X48870Y102244D01*
X48883D01*
X48908Y102231D01*
X48946Y102218D01*
X48997Y102206D01*
X49022D01*
X49060Y102180D01*
X49099Y102167D01*
X49149Y102155D01*
X49175D01*
X49226Y102142D01*
X49238D01*
X49251Y102129D01*
X49289Y102117D01*
X49302Y102104D01*
X49340Y102053D01*
X49352Y102041D01*
X49365Y101977D01*
Y101964D01*
Y101952D01*
X49352Y101901D01*
X49340Y101876D01*
X49302Y101838D01*
X49289D01*
X49276Y101825D01*
X49200Y101787D01*
X49162D01*
X49111Y101774D01*
X49010D01*
X48921Y101787D01*
X48908D01*
X48883Y101799D01*
X48807Y101838D01*
X48794Y101850D01*
X48769Y101901D01*
X48756Y101914D01*
X48743D01*
Y101888D01*
X48718D01*
X48731Y101863D01*
X48743Y101850D01*
X48756Y101825D01*
X48819Y101761D01*
X48832D01*
X48858Y101736D01*
X48934Y101711D01*
X48946D01*
X48972Y101698D01*
X49060Y101685D01*
X49086D01*
X49149Y101698D01*
X49162D01*
X49187Y101711D01*
X49251Y101723D01*
X49264Y101736D01*
X49289Y101749D01*
X49327Y101787D01*
X49352Y101812D01*
X49365Y101825D01*
X49378Y101850D01*
X49391Y101901D01*
X49403Y101952D01*
Y101964D01*
X49391Y102003D01*
X49378Y102053D01*
X49340Y102104D01*
X49327Y102117D01*
X49314Y102129D01*
X49276Y102155D01*
X49213Y102180D01*
X49200D01*
X49187Y102193D01*
X49149Y102206D01*
X49099Y102218D01*
X49073Y102231D01*
X49035D01*
X48984Y102244D01*
X48959Y102256D01*
X48895Y102282D01*
X48870Y102294D01*
X48819Y102320D01*
X48807D01*
Y102332D01*
X48794Y102358D01*
Y102371D01*
X48781Y102421D01*
Y102434D01*
Y102459D01*
Y102485D01*
X48794Y102497D01*
Y102510D01*
X48807Y102523D01*
X48845Y102561D01*
X48858Y102574D01*
X48870Y102586D01*
X48895Y102599D01*
X48934D01*
X48959Y102612D01*
X49073D01*
X49162Y102599D01*
X49175D01*
X49187Y102586D01*
X49251Y102561D01*
X49264D01*
X49276Y102548D01*
X49289Y102535D01*
Y102523D01*
X49302Y102510D01*
X49314Y102497D01*
X49327D01*
Y102523D01*
X49346D01*
X49340Y102535D01*
Y102548D01*
X49327Y102574D01*
X49302Y102599D01*
X49264Y102624D01*
X49251Y102637D01*
X49226Y102650D01*
X49175Y102675D01*
X49124Y102688D01*
D02*
G37*
G36*
X96996Y73092D02*
X96966D01*
X96937Y73087D01*
X96898Y73077D01*
X96849Y73058D01*
X96805Y73033D01*
X96756Y72999D01*
X96712Y72955D01*
X96708Y72950D01*
X96698Y72931D01*
X96678Y72897D01*
X96659Y72848D01*
X96639Y72789D01*
X96620Y72711D01*
X96610Y72618D01*
X96605Y72511D01*
Y72506D01*
Y72496D01*
Y72482D01*
Y72462D01*
X96610Y72404D01*
X96620Y72335D01*
X96634Y72262D01*
X96654Y72184D01*
X96683Y72116D01*
X96722Y72052D01*
X96727Y72047D01*
X96747Y72033D01*
X96771Y72008D01*
X96805Y71984D01*
X96849Y71955D01*
X96903Y71935D01*
X96961Y71916D01*
X97030Y71911D01*
X97059D01*
X97093Y71921D01*
X97132Y71930D01*
X97181Y71945D01*
X97230Y71969D01*
X97279Y72004D01*
X97327Y72047D01*
X97332Y72052D01*
X97347Y72072D01*
X97366Y72106D01*
X97391Y72155D01*
X97410Y72213D01*
X97430Y72282D01*
X97444Y72365D01*
X97449Y72462D01*
Y72467D01*
Y72477D01*
Y72492D01*
Y72511D01*
X97444Y72565D01*
X97435Y72633D01*
X97415Y72706D01*
X97391Y72784D01*
X97357Y72857D01*
X97313Y72926D01*
X97308Y72931D01*
X97288Y72950D01*
X97259Y72979D01*
X97220Y73009D01*
X97176Y73038D01*
X97122Y73067D01*
X97059Y73087D01*
X96996Y73092D01*
D02*
G37*
G36*
X57965Y135781D02*
X57957D01*
X57926Y135765D01*
X57879Y135757D01*
X57817Y135734D01*
X57731Y135710D01*
X57629Y135687D01*
X57504Y135656D01*
X57364Y135625D01*
X57348D01*
X57301Y135609D01*
X57231Y135593D01*
X57145Y135570D01*
X57059Y135546D01*
X56965Y135515D01*
X56895Y135484D01*
X56833Y135453D01*
X56825Y135445D01*
X56801Y135429D01*
X56770Y135398D01*
X56739Y135359D01*
X56708Y135312D01*
X56676Y135250D01*
X56653Y135187D01*
X56645Y135109D01*
Y135101D01*
Y135078D01*
X56653Y135031D01*
X56661Y134984D01*
X56684Y134929D01*
X56708Y134867D01*
X56747Y134804D01*
X56794Y134750D01*
X56801Y134742D01*
X56825Y134726D01*
X56856Y134703D01*
X56903Y134679D01*
X56958Y134648D01*
X57028Y134625D01*
X57098Y134609D01*
X57184Y134601D01*
X57231D01*
X57278Y134609D01*
X57348Y134625D01*
X57426Y134640D01*
X57512Y134672D01*
X57598Y134719D01*
X57692Y134773D01*
X57700Y134781D01*
X57723Y134797D01*
X57746Y134828D01*
X57785Y134867D01*
X57824Y134914D01*
X57863Y134968D01*
X57895Y135031D01*
X57926Y135101D01*
Y135109D01*
X57934Y135125D01*
X57942Y135156D01*
X57950Y135211D01*
Y135273D01*
X57957Y135359D01*
X57965Y135453D01*
Y135578D01*
Y135781D01*
D02*
G37*
G36*
X97362Y62708D02*
X97343D01*
X97323Y62704D01*
X97294Y62699D01*
X97265Y62689D01*
X97231Y62679D01*
X97196Y62660D01*
X97162Y62635D01*
X97157Y62630D01*
X97148Y62621D01*
X97133Y62601D01*
X97113Y62577D01*
X97094Y62542D01*
X97070Y62499D01*
X97050Y62445D01*
X97031Y62381D01*
Y62377D01*
Y62372D01*
X97026Y62357D01*
X97021Y62337D01*
X97016Y62308D01*
X97011Y62274D01*
X97006Y62235D01*
X97001Y62191D01*
X96996Y62137D01*
X96991Y62079D01*
X96987Y62015D01*
X96982Y61942D01*
X96977Y61859D01*
Y61771D01*
X96972Y61679D01*
Y61576D01*
Y61571D01*
Y61552D01*
Y61523D01*
Y61484D01*
Y61440D01*
X96977Y61386D01*
Y61327D01*
Y61269D01*
X96987Y61137D01*
X96996Y61010D01*
X97001Y60947D01*
X97006Y60893D01*
X97016Y60839D01*
X97026Y60795D01*
X97031Y60786D01*
X97035Y60761D01*
X97045Y60727D01*
X97065Y60683D01*
X97084Y60634D01*
X97104Y60590D01*
X97133Y60551D01*
X97162Y60517D01*
X97167Y60512D01*
X97177Y60508D01*
X97196Y60498D01*
X97221Y60483D01*
X97250Y60469D01*
X97284Y60459D01*
X97323Y60454D01*
X97362Y60449D01*
X97382D01*
X97401Y60454D01*
X97426Y60459D01*
X97489Y60478D01*
X97518Y60493D01*
X97553Y60517D01*
X97557Y60522D01*
X97567Y60532D01*
X97582Y60551D01*
X97601Y60576D01*
X97626Y60610D01*
X97645Y60654D01*
X97670Y60708D01*
X97689Y60771D01*
Y60776D01*
X97694Y60781D01*
Y60795D01*
X97699Y60820D01*
X97704Y60844D01*
X97709Y60878D01*
X97714Y60917D01*
X97723Y60961D01*
X97728Y61015D01*
X97733Y61074D01*
X97738Y61137D01*
X97743Y61210D01*
X97748Y61293D01*
Y61381D01*
X97753Y61474D01*
Y61576D01*
Y61581D01*
Y61601D01*
Y61630D01*
Y61669D01*
Y61713D01*
X97748Y61767D01*
Y61825D01*
Y61884D01*
X97738Y62015D01*
X97728Y62142D01*
X97723Y62201D01*
X97714Y62259D01*
X97704Y62308D01*
X97694Y62352D01*
Y62357D01*
Y62362D01*
X97684Y62386D01*
X97675Y62420D01*
X97655Y62464D01*
X97611Y62562D01*
X97582Y62601D01*
X97553Y62635D01*
X97548Y62640D01*
X97538Y62645D01*
X97518Y62660D01*
X97499Y62674D01*
X97470Y62684D01*
X97435Y62699D01*
X97401Y62704D01*
X97362Y62708D01*
D02*
G37*
G36*
X53310Y137022D02*
X53295D01*
X53248Y137015D01*
X53185Y137007D01*
X53100Y136991D01*
X53006Y136952D01*
X52912Y136905D01*
X52811Y136835D01*
X52717Y136741D01*
X52709Y136726D01*
X52678Y136687D01*
X52646Y136624D01*
X52600Y136530D01*
X52561Y136413D01*
X52522Y136273D01*
X52490Y136109D01*
X52482Y135913D01*
Y135906D01*
Y135882D01*
Y135851D01*
X52490Y135812D01*
Y135757D01*
X52498Y135695D01*
X52514Y135562D01*
X52545Y135406D01*
X52584Y135257D01*
X52646Y135109D01*
X52685Y135047D01*
X52725Y134984D01*
X52732Y134968D01*
X52771Y134937D01*
X52826Y134890D01*
X52896Y134836D01*
X52982Y134781D01*
X53084Y134734D01*
X53201Y134703D01*
X53334Y134687D01*
X53349D01*
X53388Y134695D01*
X53451Y134703D01*
X53529Y134719D01*
X53623Y134758D01*
X53716Y134804D01*
X53810Y134867D01*
X53896Y134961D01*
X53904Y134976D01*
X53935Y135015D01*
X53974Y135078D01*
X54013Y135179D01*
X54060Y135304D01*
X54076Y135375D01*
X54091Y135460D01*
X54107Y135546D01*
X54123Y135648D01*
X54130Y135749D01*
Y135867D01*
Y135874D01*
Y135890D01*
Y135921D01*
Y135960D01*
X54123Y136015D01*
X54115Y136070D01*
X54099Y136195D01*
X54076Y136335D01*
X54029Y136484D01*
X53974Y136616D01*
X53896Y136733D01*
X53888Y136749D01*
X53857Y136780D01*
X53802Y136827D01*
X53732Y136882D01*
X53654Y136929D01*
X53552Y136976D01*
X53435Y137007D01*
X53310Y137022D01*
D02*
G37*
G36*
X97049Y82728D02*
X97020D01*
X96986Y82723D01*
X96947Y82713D01*
X96903Y82704D01*
X96854Y82684D01*
X96810Y82655D01*
X96766Y82621D01*
X96761Y82616D01*
X96751Y82601D01*
X96732Y82577D01*
X96717Y82547D01*
X96698Y82508D01*
X96678Y82459D01*
X96669Y82406D01*
X96664Y82342D01*
Y82333D01*
Y82313D01*
X96669Y82279D01*
X96678Y82240D01*
X96688Y82196D01*
X96708Y82147D01*
X96732Y82103D01*
X96766Y82059D01*
X96771Y82055D01*
X96786Y82045D01*
X96810Y82025D01*
X96839Y82011D01*
X96878Y81991D01*
X96927Y81972D01*
X96981Y81962D01*
X97044Y81957D01*
X97074D01*
X97103Y81962D01*
X97142Y81972D01*
X97186Y81981D01*
X97235Y82001D01*
X97279Y82025D01*
X97322Y82059D01*
X97327Y82064D01*
X97337Y82079D01*
X97357Y82103D01*
X97376Y82133D01*
X97396Y82177D01*
X97415Y82225D01*
X97425Y82284D01*
X97430Y82347D01*
Y82357D01*
Y82377D01*
X97425Y82406D01*
X97415Y82445D01*
X97405Y82489D01*
X97386Y82533D01*
X97357Y82582D01*
X97322Y82621D01*
X97318Y82625D01*
X97303Y82635D01*
X97283Y82655D01*
X97249Y82674D01*
X97210Y82694D01*
X97166Y82713D01*
X97108Y82723D01*
X97049Y82728D01*
D02*
G37*
G36*
X53908Y107637D02*
X35482D01*
X35457Y107624D01*
X35444Y107612D01*
X35432Y107586D01*
Y107573D01*
Y103360D01*
X36053D01*
X36206Y103106D01*
X36371Y102891D01*
X36548Y102713D01*
X36700Y102561D01*
X36840Y102434D01*
X36954Y102345D01*
X37030Y102294D01*
X37043Y102282D01*
X37056D01*
X37297Y102155D01*
X37551Y102066D01*
X37779Y101990D01*
X37995Y101952D01*
X38185Y101926D01*
X38325Y101914D01*
X38375Y101901D01*
X38452D01*
X38731Y101914D01*
X38985Y101964D01*
X39213Y102028D01*
X39429Y102091D01*
X39594Y102167D01*
X39721Y102218D01*
X39771Y102244D01*
X39810Y102269D01*
X39822Y102282D01*
X39835D01*
X40063Y102434D01*
X40254Y102612D01*
X40431Y102789D01*
X40571Y102967D01*
X40698Y103119D01*
X40774Y103246D01*
X40812Y103297D01*
X40837Y103335D01*
X40850Y103348D01*
Y103360D01*
X53934D01*
Y107573D01*
Y107599D01*
X53921Y107612D01*
X53908Y107637D01*
D02*
G37*
G36*
X50139Y102586D02*
X50063D01*
X50247Y102173D01*
X50284Y102028D01*
X49791D01*
X49829Y102173D01*
X49764Y102028D01*
X49791D01*
X49771Y101952D01*
X50304D01*
X50284Y102028D01*
X50311D01*
X50375Y101885D01*
X50330Y102028D01*
X50311D01*
X50247Y102173D01*
X50139Y102586D01*
D02*
G37*
G36*
X44682Y102662D02*
X44276D01*
Y102256D01*
X44315D01*
Y102167D01*
X44670D01*
X44708Y102180D01*
X44750Y102189D01*
X44746Y102193D01*
X44733D01*
X44762Y102240D01*
X44746Y102244D01*
X44657Y102256D01*
X44315D01*
Y102586D01*
X44771D01*
X44797Y102574D01*
X44822Y102561D01*
X44847Y102548D01*
X44860D01*
X44873Y102523D01*
Y102510D01*
Y102497D01*
Y102459D01*
Y102447D01*
Y102434D01*
Y102409D01*
Y102396D01*
X44847Y102358D01*
X44809Y102294D01*
X44771Y102256D01*
X44762Y102240D01*
X44809Y102231D01*
X44838Y102221D01*
X44835Y102218D01*
X44771Y102193D01*
X44750Y102189D01*
X44759Y102180D01*
X44809Y102142D01*
X44873Y102091D01*
X44911Y102066D01*
Y102053D01*
X44924Y102041D01*
X44936Y101964D01*
Y101952D01*
Y101939D01*
X44911Y101888D01*
X44898Y101876D01*
X44860Y101838D01*
X44847Y101825D01*
X44784Y101799D01*
X44759D01*
X44682Y101787D01*
X44315D01*
Y102167D01*
X44276D01*
Y101711D01*
X44682D01*
X44746Y101723D01*
X44759D01*
X44784Y101736D01*
X44847Y101761D01*
X44860Y101774D01*
X44886Y101787D01*
X44911Y101825D01*
X44936Y101863D01*
Y101876D01*
X44949Y101901D01*
X44962Y101939D01*
Y101990D01*
Y102003D01*
Y102015D01*
X44949Y102066D01*
X44924Y102142D01*
X44860Y102206D01*
X44847Y102218D01*
X44838Y102221D01*
X44847Y102231D01*
X44886Y102269D01*
X44911Y102332D01*
X44924Y102409D01*
Y102421D01*
Y102447D01*
X44898Y102535D01*
X44886Y102548D01*
X44873Y102561D01*
X44797Y102624D01*
X44771Y102637D01*
X44746D01*
X44708Y102650D01*
X44682Y102662D01*
D02*
G37*
G36*
X48705Y101901D02*
Y101888D01*
X48718D01*
X48705Y101901D01*
D02*
G37*
G36*
X97049Y81469D02*
X97010D01*
X96971Y81459D01*
X96922Y81449D01*
X96869Y81430D01*
X96815Y81405D01*
X96761Y81366D01*
X96712Y81313D01*
X96708Y81308D01*
X96698Y81283D01*
X96678Y81254D01*
X96659Y81210D01*
X96639Y81161D01*
X96620Y81103D01*
X96610Y81039D01*
X96605Y80971D01*
Y80966D01*
Y80961D01*
Y80927D01*
X96610Y80883D01*
X96620Y80825D01*
X96634Y80761D01*
X96659Y80698D01*
X96688Y80634D01*
X96732Y80576D01*
X96737Y80571D01*
X96756Y80556D01*
X96786Y80532D01*
X96825Y80507D01*
X96869Y80478D01*
X96927Y80459D01*
X96991Y80439D01*
X97059Y80434D01*
X97093D01*
X97127Y80444D01*
X97171Y80454D01*
X97220Y80468D01*
X97274Y80493D01*
X97327Y80527D01*
X97376Y80571D01*
X97381Y80576D01*
X97396Y80595D01*
X97415Y80629D01*
X97440Y80673D01*
X97464Y80727D01*
X97483Y80795D01*
X97498Y80874D01*
X97503Y80966D01*
Y80971D01*
Y80976D01*
Y81005D01*
X97498Y81044D01*
X97488Y81098D01*
X97469Y81152D01*
X97449Y81215D01*
X97415Y81274D01*
X97371Y81327D01*
X97366Y81332D01*
X97347Y81352D01*
X97322Y81371D01*
X97283Y81401D01*
X97235Y81425D01*
X97181Y81449D01*
X97118Y81464D01*
X97049Y81469D01*
D02*
G37*
G36*
X61566Y38332D02*
X61325D01*
Y37876D01*
X61547D01*
X61564Y37878D01*
X61603D01*
X61647Y37881D01*
X61688Y37886D01*
X61725Y37893D01*
X61742Y37896D01*
X61754Y37900D01*
X61756Y37903D01*
X61764Y37905D01*
X61776Y37910D01*
X61791Y37920D01*
X61808Y37930D01*
X61825Y37944D01*
X61842Y37959D01*
X61856Y37978D01*
X61859Y37981D01*
X61861Y37988D01*
X61869Y38000D01*
X61876Y38015D01*
X61881Y38032D01*
X61888Y38054D01*
X61891Y38078D01*
X61893Y38103D01*
Y38108D01*
Y38118D01*
X61891Y38135D01*
X61886Y38154D01*
X61881Y38176D01*
X61871Y38201D01*
X61859Y38225D01*
X61842Y38247D01*
X61839Y38249D01*
X61832Y38257D01*
X61822Y38266D01*
X61805Y38279D01*
X61788Y38291D01*
X61764Y38303D01*
X61739Y38313D01*
X61710Y38320D01*
X61708D01*
X61698Y38322D01*
X61683Y38325D01*
X61661Y38327D01*
X61629D01*
X61588Y38330D01*
X61566Y38332D01*
D02*
G37*
G36*
X57838D02*
X57470D01*
Y37925D01*
X57782D01*
X57828Y37927D01*
X57877Y37930D01*
X57924Y37932D01*
X57946Y37934D01*
X57963Y37937D01*
X57980Y37942D01*
X57992Y37944D01*
X57994D01*
X58002Y37949D01*
X58011Y37954D01*
X58026Y37959D01*
X58055Y37981D01*
X58070Y37993D01*
X58082Y38010D01*
X58085Y38013D01*
X58087Y38020D01*
X58092Y38030D01*
X58099Y38044D01*
X58106Y38061D01*
X58111Y38083D01*
X58114Y38105D01*
X58116Y38132D01*
Y38135D01*
Y38147D01*
X58114Y38161D01*
X58111Y38179D01*
X58106Y38198D01*
X58097Y38220D01*
X58087Y38242D01*
X58072Y38262D01*
X58070Y38264D01*
X58065Y38269D01*
X58055Y38279D01*
X58041Y38288D01*
X58024Y38300D01*
X58004Y38310D01*
X57980Y38318D01*
X57953Y38325D01*
X57950D01*
X57943Y38327D01*
X57931D01*
X57909Y38330D01*
X57860D01*
X57838Y38332D01*
D02*
G37*
G36*
X54791Y38230D02*
X54573Y37634D01*
X55015D01*
X54791Y38230D01*
D02*
G37*
G36*
X74790Y65403D02*
X74780D01*
X74751Y65398D01*
X74712Y65393D01*
X74658Y65384D01*
X74600Y65359D01*
X74541Y65330D01*
X74478Y65286D01*
X74419Y65228D01*
X74414Y65218D01*
X74395Y65193D01*
X74375Y65154D01*
X74346Y65101D01*
X74322Y65027D01*
X74297Y64935D01*
X74278Y64827D01*
X74273Y64705D01*
Y64701D01*
Y64691D01*
Y64671D01*
Y64647D01*
X74278Y64618D01*
Y64583D01*
X74287Y64505D01*
X74302Y64417D01*
X74322Y64325D01*
X74346Y64242D01*
X74385Y64169D01*
Y64164D01*
X74395Y64159D01*
X74414Y64130D01*
X74449Y64091D01*
X74497Y64047D01*
X74561Y64003D01*
X74634Y63964D01*
X74717Y63934D01*
X74761Y63929D01*
X74810Y63925D01*
X74819D01*
X74844Y63929D01*
X74883Y63934D01*
X74932Y63944D01*
X74985Y63968D01*
X75044Y63998D01*
X75102Y64037D01*
X75161Y64095D01*
X75166Y64105D01*
X75185Y64130D01*
X75210Y64169D01*
X75234Y64232D01*
X75263Y64305D01*
X75283Y64403D01*
X75302Y64515D01*
X75307Y64647D01*
Y64652D01*
Y64666D01*
Y64686D01*
Y64710D01*
X75302Y64744D01*
X75298Y64783D01*
X75288Y64871D01*
X75273Y64964D01*
X75244Y65057D01*
X75210Y65149D01*
X75185Y65188D01*
X75161Y65223D01*
X75156Y65232D01*
X75137Y65252D01*
X75102Y65281D01*
X75059Y65315D01*
X75005Y65345D01*
X74941Y65374D01*
X74873Y65393D01*
X74790Y65403D01*
D02*
G37*
G36*
X81212Y65369D02*
X81202D01*
X81173Y65364D01*
X81129Y65359D01*
X81071Y65345D01*
X81007Y65325D01*
X80944Y65291D01*
X80875Y65247D01*
X80812Y65184D01*
X80807Y65174D01*
X80788Y65149D01*
X80763Y65105D01*
X80734Y65047D01*
X80700Y64974D01*
X80675Y64881D01*
X80656Y64779D01*
X80651Y64657D01*
Y64652D01*
Y64642D01*
Y64622D01*
X80656Y64598D01*
Y64569D01*
X80661Y64539D01*
X80670Y64461D01*
X80690Y64373D01*
X80719Y64286D01*
X80758Y64203D01*
X80812Y64125D01*
X80822Y64115D01*
X80841Y64095D01*
X80875Y64066D01*
X80924Y64037D01*
X80983Y64003D01*
X81051Y63973D01*
X81124Y63954D01*
X81212Y63944D01*
X81222D01*
X81251Y63949D01*
X81295Y63954D01*
X81354Y63968D01*
X81417Y63988D01*
X81481Y64022D01*
X81549Y64066D01*
X81612Y64125D01*
X81617Y64134D01*
X81637Y64159D01*
X81666Y64203D01*
X81695Y64261D01*
X81725Y64334D01*
X81754Y64427D01*
X81773Y64535D01*
X81778Y64657D01*
Y64661D01*
Y64671D01*
Y64691D01*
Y64715D01*
X81773Y64740D01*
X81769Y64774D01*
X81759Y64852D01*
X81739Y64935D01*
X81710Y65023D01*
X81666Y65105D01*
X81612Y65184D01*
X81607Y65193D01*
X81583Y65213D01*
X81549Y65242D01*
X81500Y65276D01*
X81446Y65311D01*
X81378Y65340D01*
X81300Y65359D01*
X81212Y65369D01*
D02*
G37*
G36*
X85633Y65403D02*
X85624D01*
X85599Y65398D01*
X85555Y65393D01*
X85507Y65384D01*
X85448Y65359D01*
X85389Y65330D01*
X85331Y65286D01*
X85272Y65228D01*
X85267Y65218D01*
X85253Y65193D01*
X85228Y65154D01*
X85204Y65101D01*
X85175Y65027D01*
X85155Y64935D01*
X85136Y64827D01*
X85131Y64705D01*
Y64701D01*
Y64691D01*
Y64671D01*
Y64647D01*
X85136Y64618D01*
X85141Y64578D01*
X85150Y64500D01*
X85165Y64413D01*
X85189Y64325D01*
X85224Y64242D01*
X85272Y64169D01*
X85277Y64164D01*
X85297Y64144D01*
X85326Y64115D01*
X85370Y64086D01*
X85419Y64051D01*
X85482Y64027D01*
X85550Y64008D01*
X85624Y63998D01*
X85633D01*
X85663Y64003D01*
X85702Y64008D01*
X85755Y64022D01*
X85814Y64042D01*
X85877Y64071D01*
X85941Y64115D01*
X85999Y64173D01*
X86004Y64183D01*
X86024Y64208D01*
X86048Y64247D01*
X86077Y64305D01*
X86107Y64378D01*
X86131Y64466D01*
X86151Y64569D01*
X86156Y64691D01*
Y64696D01*
Y64705D01*
Y64725D01*
Y64749D01*
X86151Y64779D01*
X86146Y64813D01*
X86136Y64896D01*
X86117Y64979D01*
X86092Y65071D01*
X86053Y65154D01*
X86004Y65228D01*
X85999Y65237D01*
X85980Y65257D01*
X85946Y65281D01*
X85902Y65315D01*
X85848Y65350D01*
X85785Y65374D01*
X85716Y65393D01*
X85633Y65403D01*
D02*
G37*
G36*
X42975Y94601D02*
X42306D01*
Y93742D01*
X43019D01*
X43087Y93747D01*
X43165D01*
X43238Y93751D01*
X43302Y93756D01*
X43326D01*
X43346Y93761D01*
X43351D01*
X43370Y93766D01*
X43395Y93776D01*
X43429Y93786D01*
X43463Y93805D01*
X43507Y93825D01*
X43546Y93854D01*
X43580Y93888D01*
X43585Y93893D01*
X43595Y93908D01*
X43609Y93932D01*
X43629Y93961D01*
X43644Y94000D01*
X43658Y94049D01*
X43668Y94103D01*
X43673Y94161D01*
Y94166D01*
Y94186D01*
X43668Y94210D01*
X43663Y94244D01*
X43653Y94283D01*
X43644Y94322D01*
X43624Y94366D01*
X43600Y94405D01*
X43595Y94410D01*
X43585Y94420D01*
X43570Y94440D01*
X43551Y94464D01*
X43521Y94488D01*
X43487Y94513D01*
X43448Y94532D01*
X43400Y94552D01*
X43395D01*
X43370Y94561D01*
X43336Y94566D01*
X43307Y94571D01*
X43277Y94576D01*
X43243Y94581D01*
X43199Y94586D01*
X43156Y94591D01*
X43102D01*
X43043Y94596D01*
X42975Y94601D01*
D02*
G37*
G36*
X72039Y47208D02*
X72020D01*
X72000Y47203D01*
X71971Y47199D01*
X71942Y47189D01*
X71908Y47179D01*
X71873Y47160D01*
X71839Y47135D01*
X71834Y47130D01*
X71825Y47121D01*
X71810Y47101D01*
X71791Y47077D01*
X71771Y47043D01*
X71747Y46999D01*
X71727Y46945D01*
X71708Y46881D01*
Y46877D01*
Y46872D01*
X71703Y46857D01*
X71698Y46837D01*
X71693Y46808D01*
X71688Y46774D01*
X71683Y46735D01*
X71678Y46691D01*
X71673Y46637D01*
X71669Y46579D01*
X71664Y46515D01*
X71659Y46442D01*
X71654Y46359D01*
Y46271D01*
X71649Y46179D01*
Y46076D01*
Y46071D01*
Y46052D01*
Y46023D01*
Y45983D01*
Y45940D01*
X71654Y45886D01*
Y45827D01*
Y45769D01*
X71664Y45637D01*
X71673Y45510D01*
X71678Y45447D01*
X71683Y45393D01*
X71693Y45339D01*
X71703Y45295D01*
X71708Y45286D01*
X71712Y45261D01*
X71722Y45227D01*
X71742Y45183D01*
X71761Y45134D01*
X71781Y45090D01*
X71810Y45051D01*
X71839Y45017D01*
X71844Y45012D01*
X71854Y45008D01*
X71873Y44998D01*
X71898Y44983D01*
X71927Y44969D01*
X71961Y44959D01*
X72000Y44954D01*
X72039Y44949D01*
X72059D01*
X72079Y44954D01*
X72103Y44959D01*
X72166Y44978D01*
X72196Y44993D01*
X72230Y45017D01*
X72235Y45022D01*
X72244Y45032D01*
X72259Y45051D01*
X72279Y45076D01*
X72303Y45110D01*
X72322Y45154D01*
X72347Y45208D01*
X72366Y45271D01*
Y45276D01*
X72371Y45281D01*
Y45295D01*
X72376Y45320D01*
X72381Y45344D01*
X72386Y45378D01*
X72391Y45417D01*
X72401Y45461D01*
X72405Y45515D01*
X72410Y45574D01*
X72415Y45637D01*
X72420Y45710D01*
X72425Y45793D01*
Y45881D01*
X72430Y45974D01*
Y46076D01*
Y46081D01*
Y46101D01*
Y46130D01*
Y46169D01*
Y46213D01*
X72425Y46267D01*
Y46325D01*
Y46384D01*
X72415Y46515D01*
X72405Y46642D01*
X72401Y46701D01*
X72391Y46759D01*
X72381Y46808D01*
X72371Y46852D01*
Y46857D01*
Y46862D01*
X72361Y46886D01*
X72352Y46920D01*
X72332Y46964D01*
X72288Y47062D01*
X72259Y47101D01*
X72230Y47135D01*
X72225Y47140D01*
X72215Y47145D01*
X72196Y47160D01*
X72176Y47174D01*
X72147Y47184D01*
X72113Y47199D01*
X72079Y47203D01*
X72039Y47208D01*
D02*
G37*
G36*
X25643Y67348D02*
X25619D01*
X25599Y67344D01*
X25551Y67339D01*
X25492Y67329D01*
X25429Y67309D01*
X25360Y67285D01*
X25297Y67251D01*
X25238Y67207D01*
X25233Y67202D01*
X25214Y67183D01*
X25194Y67158D01*
X25165Y67119D01*
X25141Y67075D01*
X25116Y67022D01*
X25102Y66958D01*
X25097Y66890D01*
Y66880D01*
Y66856D01*
X25107Y66821D01*
X25116Y66773D01*
X25136Y66719D01*
X25160Y66665D01*
X25199Y66612D01*
X25248Y66558D01*
X25253Y66553D01*
X25273Y66538D01*
X25307Y66519D01*
X25351Y66495D01*
X25409Y66470D01*
X25477Y66451D01*
X25556Y66436D01*
X25643Y66431D01*
Y67348D01*
D02*
G37*
G36*
X101386Y47164D02*
X100649D01*
Y46349D01*
X101274D01*
X101366Y46354D01*
X101464Y46359D01*
X101557Y46364D01*
X101601Y46369D01*
X101635Y46374D01*
X101669Y46384D01*
X101693Y46389D01*
X101698D01*
X101713Y46398D01*
X101732Y46408D01*
X101762Y46418D01*
X101820Y46462D01*
X101849Y46486D01*
X101874Y46520D01*
X101879Y46525D01*
X101884Y46540D01*
X101893Y46559D01*
X101908Y46589D01*
X101923Y46623D01*
X101933Y46667D01*
X101937Y46711D01*
X101942Y46764D01*
Y46769D01*
Y46794D01*
X101937Y46823D01*
X101933Y46857D01*
X101923Y46896D01*
X101903Y46940D01*
X101884Y46984D01*
X101854Y47023D01*
X101849Y47028D01*
X101840Y47038D01*
X101820Y47057D01*
X101791Y47077D01*
X101757Y47101D01*
X101718Y47121D01*
X101669Y47135D01*
X101615Y47150D01*
X101610D01*
X101596Y47155D01*
X101571D01*
X101527Y47160D01*
X101430D01*
X101386Y47164D01*
D02*
G37*
G36*
X42955Y95874D02*
X42306D01*
Y95132D01*
X42926D01*
X43009Y95137D01*
X43151D01*
X43180Y95142D01*
X43209D01*
X43229Y95147D01*
X43258Y95152D01*
X43292Y95162D01*
X43336Y95176D01*
X43380Y95196D01*
X43419Y95225D01*
X43458Y95254D01*
X43463Y95259D01*
X43473Y95274D01*
X43487Y95293D01*
X43507Y95323D01*
X43526Y95362D01*
X43541Y95401D01*
X43551Y95455D01*
X43556Y95508D01*
Y95513D01*
Y95533D01*
X43551Y95562D01*
X43546Y95591D01*
X43536Y95630D01*
X43521Y95669D01*
X43502Y95708D01*
X43473Y95747D01*
X43468Y95752D01*
X43458Y95762D01*
X43439Y95777D01*
X43409Y95796D01*
X43375Y95816D01*
X43336Y95835D01*
X43287Y95850D01*
X43229Y95860D01*
X43224D01*
X43204Y95864D01*
X43151D01*
X43121Y95869D01*
X43004D01*
X42955Y95874D01*
D02*
G37*
G36*
X52102Y35460D02*
X51667Y34269D01*
X52551D01*
X52102Y35460D01*
D02*
G37*
G36*
X50572Y38230D02*
X50355Y37634D01*
X50797D01*
X50572Y38230D01*
D02*
G37*
G36*
X65299Y38332D02*
X64931D01*
Y37925D01*
X65243D01*
X65289Y37927D01*
X65338Y37930D01*
X65385Y37932D01*
X65407Y37934D01*
X65424Y37937D01*
X65441Y37942D01*
X65453Y37944D01*
X65455D01*
X65463Y37949D01*
X65473Y37954D01*
X65487Y37959D01*
X65516Y37981D01*
X65531Y37993D01*
X65543Y38010D01*
X65546Y38013D01*
X65548Y38020D01*
X65553Y38030D01*
X65560Y38044D01*
X65568Y38061D01*
X65573Y38083D01*
X65575Y38105D01*
X65577Y38132D01*
Y38135D01*
Y38147D01*
X65575Y38161D01*
X65573Y38179D01*
X65568Y38198D01*
X65558Y38220D01*
X65548Y38242D01*
X65534Y38262D01*
X65531Y38264D01*
X65526Y38269D01*
X65516Y38279D01*
X65502Y38288D01*
X65485Y38300D01*
X65465Y38310D01*
X65441Y38318D01*
X65414Y38325D01*
X65412D01*
X65404Y38327D01*
X65392D01*
X65370Y38330D01*
X65321D01*
X65299Y38332D01*
D02*
G37*
G36*
X96236Y110442D02*
X96206D01*
X96177Y110437D01*
X96143Y110433D01*
X96104Y110423D01*
X96060Y110403D01*
X96016Y110384D01*
X95977Y110354D01*
X95972Y110350D01*
X95962Y110340D01*
X95943Y110320D01*
X95923Y110291D01*
X95899Y110257D01*
X95879Y110218D01*
X95865Y110169D01*
X95850Y110115D01*
Y110110D01*
X95845Y110096D01*
Y110071D01*
X95840Y110027D01*
Y109998D01*
Y109969D01*
Y109930D01*
X95836Y109886D01*
Y109837D01*
Y109779D01*
Y109715D01*
Y109647D01*
Y109149D01*
X96650D01*
Y109622D01*
Y109627D01*
Y109642D01*
Y109666D01*
Y109696D01*
Y109735D01*
Y109774D01*
X96646Y109866D01*
X96641Y109964D01*
X96636Y110057D01*
X96631Y110101D01*
X96626Y110135D01*
X96616Y110169D01*
X96611Y110193D01*
Y110198D01*
X96602Y110213D01*
X96592Y110232D01*
X96582Y110262D01*
X96538Y110320D01*
X96514Y110350D01*
X96480Y110374D01*
X96475Y110379D01*
X96460Y110384D01*
X96441Y110393D01*
X96411Y110408D01*
X96377Y110423D01*
X96333Y110433D01*
X96289Y110437D01*
X96236Y110442D01*
D02*
G37*
G36*
X66021Y64613D02*
X66016D01*
X65996Y64603D01*
X65967Y64598D01*
X65928Y64583D01*
X65874Y64569D01*
X65811Y64554D01*
X65733Y64535D01*
X65645Y64515D01*
X65635D01*
X65606Y64505D01*
X65562Y64495D01*
X65508Y64481D01*
X65455Y64466D01*
X65396Y64447D01*
X65352Y64427D01*
X65313Y64408D01*
X65308Y64403D01*
X65294Y64393D01*
X65274Y64373D01*
X65255Y64349D01*
X65235Y64320D01*
X65215Y64281D01*
X65201Y64242D01*
X65196Y64193D01*
Y64188D01*
Y64173D01*
X65201Y64144D01*
X65206Y64115D01*
X65220Y64081D01*
X65235Y64042D01*
X65259Y64003D01*
X65289Y63968D01*
X65294Y63964D01*
X65308Y63954D01*
X65328Y63939D01*
X65357Y63925D01*
X65391Y63905D01*
X65435Y63890D01*
X65479Y63881D01*
X65533Y63876D01*
X65562D01*
X65591Y63881D01*
X65635Y63890D01*
X65684Y63900D01*
X65738Y63920D01*
X65791Y63949D01*
X65850Y63983D01*
X65855Y63988D01*
X65869Y63998D01*
X65884Y64017D01*
X65908Y64042D01*
X65933Y64071D01*
X65957Y64105D01*
X65977Y64144D01*
X65996Y64188D01*
Y64193D01*
X66001Y64203D01*
X66006Y64222D01*
X66011Y64256D01*
Y64295D01*
X66016Y64349D01*
X66021Y64408D01*
Y64486D01*
Y64613D01*
D02*
G37*
G36*
X72487D02*
X72482D01*
X72462Y64603D01*
X72433Y64598D01*
X72394Y64583D01*
X72340Y64569D01*
X72277Y64554D01*
X72199Y64535D01*
X72111Y64515D01*
X72101D01*
X72072Y64505D01*
X72028Y64495D01*
X71974Y64481D01*
X71921Y64466D01*
X71862Y64447D01*
X71818Y64427D01*
X71779Y64408D01*
X71774Y64403D01*
X71760Y64393D01*
X71740Y64373D01*
X71721Y64349D01*
X71701Y64320D01*
X71681Y64281D01*
X71667Y64242D01*
X71662Y64193D01*
Y64188D01*
Y64173D01*
X71667Y64144D01*
X71672Y64115D01*
X71686Y64081D01*
X71701Y64042D01*
X71725Y64003D01*
X71755Y63968D01*
X71760Y63964D01*
X71774Y63954D01*
X71794Y63939D01*
X71823Y63925D01*
X71857Y63905D01*
X71901Y63890D01*
X71945Y63881D01*
X71999Y63876D01*
X72028D01*
X72057Y63881D01*
X72101Y63890D01*
X72150Y63900D01*
X72204Y63920D01*
X72257Y63949D01*
X72316Y63983D01*
X72321Y63988D01*
X72335Y63998D01*
X72350Y64017D01*
X72374Y64042D01*
X72399Y64071D01*
X72423Y64105D01*
X72443Y64144D01*
X72462Y64188D01*
Y64193D01*
X72467Y64203D01*
X72472Y64222D01*
X72477Y64256D01*
Y64295D01*
X72482Y64349D01*
X72487Y64408D01*
Y64486D01*
Y64613D01*
D02*
G37*
%LPD*%
G36*
X45507Y107497D02*
X45774Y107434D01*
X46015Y107345D01*
X46218Y107244D01*
X46383Y107129D01*
X46510Y107040D01*
X46586Y106977D01*
X46611Y106964D01*
Y106952D01*
X46713Y106837D01*
X46802Y106723D01*
X46941Y106482D01*
X47043Y106254D01*
X47106Y106025D01*
X47157Y105835D01*
X47170Y105759D01*
Y105683D01*
X47182Y105619D01*
Y105581D01*
Y105556D01*
Y105543D01*
Y105391D01*
X47157Y105251D01*
X47094Y104985D01*
X47005Y104744D01*
X46903Y104541D01*
X46802Y104376D01*
X46713Y104261D01*
X46649Y104185D01*
X46637Y104173D01*
X46624Y104160D01*
X46510Y104058D01*
X46396Y103970D01*
X46154Y103817D01*
X45913Y103716D01*
X45685Y103639D01*
X45495Y103601D01*
X45419Y103576D01*
X45342D01*
X45279Y103563D01*
X45203D01*
X45050Y103576D01*
X44911Y103601D01*
X44771Y103639D01*
X44644Y103678D01*
X44391Y103805D01*
X44188Y103944D01*
X44023Y104084D01*
X43896Y104211D01*
X43845Y104249D01*
X43807Y104287D01*
X43794Y104312D01*
X43782Y104325D01*
X43680Y104401D01*
X43604Y104490D01*
X43464Y104693D01*
X43363Y104883D01*
X43299Y105086D01*
X43249Y105264D01*
X43236Y105416D01*
X43223Y105467D01*
Y105505D01*
Y105530D01*
Y105543D01*
X43236Y105695D01*
X43249Y105835D01*
X43312Y106101D01*
X43413Y106342D01*
X43515Y106545D01*
X43617Y106711D01*
X43718Y106837D01*
X43782Y106913D01*
X43807Y106926D01*
Y106939D01*
X43921Y107040D01*
X44035Y107129D01*
X44264Y107281D01*
X44505Y107383D01*
X44721Y107447D01*
X44911Y107497D01*
X45000Y107510D01*
X45063D01*
X45127Y107523D01*
X45355D01*
X45507Y107497D01*
D02*
G37*
G36*
X50025D02*
X50291Y107434D01*
X50533Y107345D01*
X50736Y107244D01*
X50901Y107129D01*
X51028Y107040D01*
X51104Y106977D01*
X51129Y106964D01*
Y106952D01*
X51231Y106837D01*
X51319Y106723D01*
X51472Y106482D01*
X51573Y106254D01*
X51637Y106025D01*
X51687Y105835D01*
X51700Y105759D01*
Y105683D01*
X51713Y105619D01*
Y105581D01*
Y105556D01*
Y105543D01*
X51687Y105251D01*
X51624Y105010D01*
X51548Y104794D01*
X51446Y104629D01*
X51345Y104490D01*
X51269Y104401D01*
X51205Y104338D01*
X51180Y104325D01*
X51065Y104185D01*
X50939Y104071D01*
X50812Y103970D01*
X50685Y103881D01*
X50558Y103817D01*
X50444Y103754D01*
X50215Y103665D01*
X50012Y103601D01*
X49936Y103589D01*
X49860Y103576D01*
X49797Y103563D01*
X49720D01*
X49568Y103576D01*
X49441Y103589D01*
X49187Y103652D01*
X48984Y103741D01*
X48819Y103843D01*
X48680Y103944D01*
X48591Y104033D01*
X48528Y104096D01*
X48515Y104122D01*
X48375Y104236D01*
X48261Y104363D01*
X48160Y104477D01*
X48071Y104604D01*
X48007Y104718D01*
X47944Y104845D01*
X47855Y105061D01*
X47791Y105251D01*
X47779Y105340D01*
X47766Y105403D01*
X47753Y105467D01*
Y105505D01*
Y105530D01*
Y105543D01*
X47766Y105695D01*
X47779Y105835D01*
X47842Y106101D01*
X47944Y106342D01*
X48045Y106545D01*
X48147Y106711D01*
X48248Y106837D01*
X48312Y106913D01*
X48337Y106926D01*
Y106939D01*
X48451Y107040D01*
X48566Y107129D01*
X48794Y107281D01*
X49022Y107383D01*
X49238Y107447D01*
X49428Y107497D01*
X49517Y107510D01*
X49581D01*
X49644Y107523D01*
X49873D01*
X50025Y107497D01*
D02*
G37*
G36*
X38642Y107421D02*
X38731Y107408D01*
X38845Y107396D01*
X38959Y107370D01*
X39099Y107345D01*
X39391Y107244D01*
X39543Y107193D01*
X39708Y107117D01*
X39860Y107028D01*
X40012Y106926D01*
X40165Y106812D01*
X40317Y106672D01*
X40330Y106660D01*
X40355Y106634D01*
X40393Y106596D01*
X40431Y106533D01*
X40495Y106457D01*
X40558Y106368D01*
X40622Y106266D01*
X40698Y106152D01*
X40837Y105886D01*
X40964Y105568D01*
X41002Y105391D01*
X41040Y105213D01*
X41066Y105023D01*
X41078Y104820D01*
Y104807D01*
Y104769D01*
Y104718D01*
X41066Y104642D01*
X41053Y104553D01*
X41040Y104439D01*
X40990Y104198D01*
X40901Y103944D01*
X40774Y103665D01*
X40698Y103538D01*
X40609Y103411D01*
X40495Y103297D01*
X40368Y103195D01*
X40355Y103183D01*
X40330Y103157D01*
X40279Y103106D01*
X40216Y103043D01*
X40139Y102967D01*
X40051Y102878D01*
X39936Y102789D01*
X39810Y102700D01*
X39530Y102523D01*
X39200Y102358D01*
X39035Y102294D01*
X38845Y102244D01*
X38655Y102218D01*
X38452Y102206D01*
X38350D01*
X38274Y102218D01*
X38173Y102231D01*
X38071Y102244D01*
X37944Y102269D01*
X37817Y102307D01*
X37525Y102396D01*
X37373Y102459D01*
X37221Y102523D01*
X37069Y102612D01*
X36904Y102713D01*
X36764Y102827D01*
X36612Y102967D01*
X36599Y102980D01*
X36574Y103005D01*
X36536Y103043D01*
X36497Y103106D01*
X36434Y103183D01*
X36371Y103271D01*
X36294Y103373D01*
X36231Y103487D01*
X36079Y103754D01*
X35964Y104071D01*
X35914Y104249D01*
X35876Y104426D01*
X35850Y104617D01*
X35838Y104820D01*
Y104832D01*
Y104870D01*
Y104921D01*
X35850Y104997D01*
X35863Y105086D01*
X35876Y105200D01*
X35901Y105315D01*
X35939Y105454D01*
X36028Y105746D01*
X36091Y105898D01*
X36167Y106051D01*
X36256Y106216D01*
X36358Y106368D01*
X36472Y106520D01*
X36612Y106672D01*
X36624Y106685D01*
X36650Y106711D01*
X36688Y106749D01*
X36751Y106787D01*
X36815Y106850D01*
X36904Y106913D01*
X37005Y106977D01*
X37119Y107053D01*
X37246Y107129D01*
X37386Y107193D01*
X37703Y107320D01*
X37881Y107358D01*
X38058Y107396D01*
X38249Y107421D01*
X38452Y107434D01*
X38553D01*
X38642Y107421D01*
D02*
G37*
%LPC*%
G36*
X49822Y106926D02*
X49720D01*
X49517Y106913D01*
X49314Y106863D01*
X49124Y106787D01*
X48959Y106711D01*
X48819Y106622D01*
X48705Y106558D01*
X48642Y106508D01*
X48629Y106482D01*
X48616D01*
X48528Y106342D01*
X48464Y106177D01*
X48413Y106025D01*
X48388Y105873D01*
X48363Y105746D01*
X48350Y105645D01*
Y105568D01*
Y105556D01*
Y105543D01*
X48375Y105327D01*
X48426Y105124D01*
X48489Y104934D01*
X48578Y104769D01*
X48654Y104617D01*
X48731Y104515D01*
X48781Y104439D01*
X48794Y104426D01*
Y104414D01*
X48934Y104325D01*
X49099Y104261D01*
X49251Y104223D01*
X49391Y104198D01*
X49530Y104173D01*
X49632Y104160D01*
X49720D01*
X49923Y104173D01*
X50114Y104223D01*
X50279Y104287D01*
X50431Y104376D01*
X50545Y104452D01*
X50634Y104515D01*
X50697Y104566D01*
X50710Y104579D01*
X50850Y104731D01*
X50951Y104896D01*
X51015Y105048D01*
X51065Y105200D01*
X51091Y105340D01*
X51116Y105441D01*
Y105518D01*
Y105543D01*
X51104Y105746D01*
X51053Y105936D01*
X50989Y106101D01*
X50913Y106241D01*
X50824Y106368D01*
X50761Y106444D01*
X50710Y106508D01*
X50697Y106520D01*
X50545Y106660D01*
X50380Y106761D01*
X50215Y106825D01*
X50063Y106876D01*
X49923Y106901D01*
X49822Y106926D01*
D02*
G37*
G36*
X45304D02*
X45203D01*
X45000Y106913D01*
X44797Y106863D01*
X44632Y106787D01*
X44479Y106711D01*
X44352Y106622D01*
X44251Y106558D01*
X44200Y106508D01*
X44175Y106482D01*
X44061Y106342D01*
X43972Y106177D01*
X43921Y106025D01*
X43870Y105873D01*
X43845Y105746D01*
X43832Y105645D01*
Y105568D01*
Y105556D01*
Y105543D01*
X43858Y105327D01*
X43908Y105124D01*
X43972Y104934D01*
X44061Y104769D01*
X44137Y104617D01*
X44213Y104515D01*
X44264Y104439D01*
X44276Y104426D01*
Y104414D01*
X44416Y104325D01*
X44581Y104261D01*
X44733Y104223D01*
X44873Y104198D01*
X45012Y104173D01*
X45114Y104160D01*
X45203D01*
X45406Y104173D01*
X45596Y104223D01*
X45634D01*
Y104238D01*
X45761Y104287D01*
X45913Y104376D01*
X46028Y104452D01*
X46116Y104515D01*
X46180Y104566D01*
X46193Y104579D01*
X46319Y104731D01*
X46421Y104896D01*
X46484Y105048D01*
X46535Y105200D01*
X46561Y105340D01*
X46586Y105441D01*
Y105518D01*
Y105543D01*
X46573Y105759D01*
X46523Y105962D01*
X46446Y106152D01*
X46370Y106317D01*
X46281Y106457D01*
X46218Y106571D01*
X46167Y106634D01*
X46142Y106660D01*
X46002Y106749D01*
X45837Y106812D01*
X45685Y106863D01*
X45533Y106888D01*
X45406Y106913D01*
X45304Y106926D01*
D02*
G37*
G36*
X38591Y106736D02*
X38375D01*
X38325Y106723D01*
X38173Y106711D01*
X37995Y106660D01*
X37779Y106596D01*
X37563Y106495D01*
X37335Y106355D01*
X37221Y106266D01*
X37119Y106165D01*
X37094Y106140D01*
X37030Y106063D01*
X36942Y105949D01*
X36840Y105784D01*
X36726Y105581D01*
X36637Y105353D01*
X36574Y105086D01*
X36561Y104947D01*
X36548Y104807D01*
Y104794D01*
Y104769D01*
Y104731D01*
X36561Y104680D01*
X36574Y104528D01*
X36624Y104350D01*
X36688Y104134D01*
X36789Y103919D01*
X36929Y103690D01*
X37018Y103576D01*
X37119Y103462D01*
X37132D01*
X37145Y103437D01*
X37221Y103373D01*
X37335Y103284D01*
X37500Y103183D01*
X37690Y103081D01*
X37919Y102992D01*
X38173Y102929D01*
X38312Y102916D01*
X38452Y102903D01*
X38528D01*
X38579Y102916D01*
X38731Y102929D01*
X38908Y102967D01*
X39124Y103018D01*
X39340Y103106D01*
X39568Y103221D01*
X39771Y103386D01*
X39784Y103398D01*
X39797Y103411D01*
X39822Y103449D01*
X39860Y103500D01*
X39962Y103627D01*
X40063Y103792D01*
X40165Y104007D01*
X40266Y104249D01*
X40330Y104515D01*
X40355Y104655D01*
Y104807D01*
Y104820D01*
Y104845D01*
Y104883D01*
X40343Y104947D01*
X40330Y105086D01*
X40292Y105277D01*
X40216Y105492D01*
X40114Y105721D01*
X39987Y105949D01*
X39898Y106063D01*
X39797Y106165D01*
Y106177D01*
X39771Y106190D01*
X39695Y106254D01*
X39581Y106342D01*
X39416Y106457D01*
X39226Y106558D01*
X38997Y106647D01*
X38731Y106711D01*
X38591Y106736D01*
D02*
G37*
%LPD*%
G36*
X45672Y106241D02*
X45736Y106216D01*
X45774Y106177D01*
X45812Y106127D01*
X45837Y106038D01*
Y106013D01*
Y106000D01*
Y105124D01*
X45634D01*
Y104238D01*
X45596Y104223D01*
X44784D01*
Y105124D01*
X44581D01*
Y106000D01*
X44594Y106089D01*
X44619Y106152D01*
X44657Y106190D01*
X44708Y106228D01*
X44784Y106254D01*
X44892D01*
X44911Y106228D01*
X44936Y106203D01*
X45025Y106140D01*
X45114Y106114D01*
X45177Y106101D01*
X45203D01*
X45317Y106114D01*
X45406Y106152D01*
X45457Y106190D01*
X45482Y106203D01*
X45526Y106254D01*
X45584D01*
X45672Y106241D01*
D02*
G37*
G36*
X45304Y106850D02*
X45393Y106812D01*
X45482Y106736D01*
X45507Y106723D01*
X45545Y106672D01*
X45584Y106584D01*
X45609Y106482D01*
Y106469D01*
Y106457D01*
X45596Y106381D01*
X45558Y106292D01*
X45526Y106254D01*
X44892D01*
X44873Y106279D01*
X44835Y106368D01*
X44809Y106482D01*
Y106495D01*
Y106508D01*
X44822Y106571D01*
X44860Y106660D01*
X44936Y106749D01*
X44949Y106761D01*
X45012Y106812D01*
X45088Y106850D01*
X45203Y106863D01*
X45228D01*
X45304Y106850D01*
D02*
G37*
G36*
X49885Y106634D02*
X50000Y106609D01*
X50126Y106558D01*
X50266Y106508D01*
X50393Y106419D01*
X50520Y106304D01*
X50533Y106292D01*
X50558Y106254D01*
X50609Y106177D01*
X50660Y106089D01*
X50710Y105974D01*
X50761Y105848D01*
X50786Y105695D01*
X50799Y105518D01*
Y105492D01*
Y105441D01*
X50786Y105353D01*
X50761Y105238D01*
X50723Y105124D01*
X50672Y104985D01*
X50596Y104858D01*
X50494Y104731D01*
X50482Y104718D01*
X50444Y104680D01*
X50368Y104629D01*
X50279Y104566D01*
X50165Y104502D01*
X50025Y104452D01*
X49873Y104414D01*
X49695Y104401D01*
X49632D01*
X49568Y104414D01*
X49492Y104426D01*
X49391Y104452D01*
X49302Y104477D01*
X49200Y104528D01*
X49111Y104591D01*
X49099Y104604D01*
X49060Y104642D01*
X49010Y104706D01*
X48959Y104782D01*
X48895Y104896D01*
X48845Y105035D01*
X48794Y105188D01*
X48756Y105378D01*
X49073D01*
X48629Y105936D01*
X48794D01*
Y105949D01*
X48807Y105987D01*
X48819Y106038D01*
X48845Y106101D01*
X48883Y106177D01*
X48946Y106266D01*
X49022Y106342D01*
X49111Y106431D01*
X49124Y106444D01*
X49149Y106469D01*
X49213Y106495D01*
X49276Y106545D01*
X49365Y106584D01*
X49467Y106609D01*
X49581Y106634D01*
X49708Y106647D01*
X49797D01*
X49885Y106634D01*
D02*
G37*
G36*
X39289Y105695D02*
X39391Y105683D01*
X39505Y105645D01*
X39632Y105581D01*
X39771Y105480D01*
X39898Y105340D01*
X39949Y105264D01*
X40000Y105162D01*
X39467Y104934D01*
Y104947D01*
X39454Y104972D01*
X39403Y105035D01*
X39327Y105112D01*
X39289Y105124D01*
X39251Y105137D01*
X39226D01*
X39188Y105124D01*
X39150Y105099D01*
X39112Y105061D01*
X39086Y104997D01*
X39061Y104921D01*
X39048Y104820D01*
Y104807D01*
Y104769D01*
X39061Y104718D01*
X39074Y104667D01*
X39099Y104604D01*
X39137Y104553D01*
X39188Y104515D01*
X39251Y104502D01*
X39276D01*
X39327Y104528D01*
X39365Y104553D01*
X39403Y104591D01*
X39454Y104642D01*
X39492Y104718D01*
X40000Y104477D01*
X39987Y104452D01*
X39949Y104388D01*
X39886Y104299D01*
X39797Y104198D01*
X39695Y104084D01*
X39556Y103995D01*
X39391Y103931D01*
X39302Y103919D01*
X39213Y103906D01*
X39150D01*
X39074Y103919D01*
X38985Y103944D01*
X38883Y103970D01*
X38782Y104007D01*
X38680Y104071D01*
X38591Y104160D01*
X38579Y104173D01*
X38553Y104211D01*
X38515Y104261D01*
X38478Y104336D01*
X38452Y104299D01*
X38363Y104198D01*
X38261Y104084D01*
X38122Y103995D01*
X37957Y103931D01*
X37868Y103919D01*
X37779Y103906D01*
X37716D01*
X37652Y103919D01*
X37563Y103931D01*
X37475Y103957D01*
X37373Y103995D01*
X37297Y104046D01*
X37221Y104122D01*
X37208Y104134D01*
X37170Y104173D01*
X37119Y104223D01*
X37069Y104312D01*
X37005Y104414D01*
X36954Y104528D01*
X36916Y104667D01*
X36904Y104820D01*
Y104832D01*
Y104883D01*
X36916Y104959D01*
X36942Y105048D01*
X36967Y105162D01*
X37005Y105264D01*
X37069Y105365D01*
X37157Y105467D01*
X37170Y105480D01*
X37195Y105505D01*
X37259Y105543D01*
X37322Y105594D01*
X37411Y105632D01*
X37513Y105670D01*
X37639Y105695D01*
X37766Y105708D01*
X37792D01*
X37855Y105695D01*
X37957Y105683D01*
X38071Y105645D01*
X38198Y105581D01*
X38337Y105480D01*
X38464Y105340D01*
X38492Y105299D01*
X38477Y105277D01*
X38426Y105162D01*
X38400Y105091D01*
X38033Y104934D01*
Y104947D01*
X38020Y104972D01*
X37969Y105035D01*
X37893Y105112D01*
X37855Y105124D01*
X37817Y105137D01*
X37792D01*
X37754Y105124D01*
X37728Y105099D01*
X37690Y105061D01*
X37652Y104997D01*
X37639Y104921D01*
X37627Y104820D01*
Y104807D01*
Y104769D01*
X37639Y104718D01*
X37652Y104667D01*
X37678Y104604D01*
X37703Y104553D01*
X37754Y104515D01*
X37817Y104502D01*
X37843D01*
X37893Y104528D01*
X37931Y104553D01*
X37969Y104591D01*
X38020Y104642D01*
X38058Y104718D01*
X38384Y104564D01*
X38388Y104541D01*
X38426Y104426D01*
X38477Y104338D01*
X38478Y104336D01*
X38515Y104388D01*
X38553Y104452D01*
X38566Y104477D01*
X38384Y104564D01*
X38363Y104667D01*
X38350Y104820D01*
Y104832D01*
Y104883D01*
X38363Y104959D01*
X38388Y105061D01*
X38400Y105091D01*
X38566Y105162D01*
X38515Y105264D01*
X38492Y105299D01*
X38553Y105391D01*
X38655Y105505D01*
X38667Y105518D01*
X38693Y105543D01*
X38731Y105568D01*
X38794Y105606D01*
X38870Y105645D01*
X38959Y105683D01*
X39074Y105695D01*
X39200Y105708D01*
X39226D01*
X39289Y105695D01*
D02*
G37*
D10*
X48783Y110831D02*
G03*
X49571Y111618I787J0D01*
G01*
D51*
X61409Y71358D02*
G03*
X61409Y71358I-492J0D01*
G01*
X80717Y117815D02*
G03*
X80717Y117815I-492J0D01*
G01*
X112232Y121913D02*
G03*
X112232Y121913I-492J0D01*
G01*
X43882Y75831D02*
G03*
X43882Y75831I-492J0D01*
G01*
D52*
X69185Y81004D02*
G03*
X69185Y81004I-1181J0D01*
G01*
D53*
X7200Y139200D02*
G03*
X7200Y139200I-591J0D01*
G01*
X63750Y53000D02*
X65000D01*
X62000D02*
X63500D01*
X62500D02*
X64500D01*
X64067Y77067D02*
X84933D01*
X64067Y97933D02*
X84933D01*
X64067Y77067D02*
Y97933D01*
X84933Y77067D02*
Y97933D01*
X74122Y118898D02*
Y131102D01*
X76878Y118898D02*
Y131102D01*
X74122D02*
X76878D01*
X74122Y118898D02*
X76878D01*
X105244Y131756D02*
Y134906D01*
X107213D01*
X105244Y123094D02*
Y126244D01*
Y123094D02*
X107213D01*
X35213Y62075D02*
X36787D01*
X35213Y58925D02*
X36787D01*
X42799Y67169D02*
Y73468D01*
X30201Y67169D02*
Y75831D01*
X49500Y53000D02*
X51500D01*
X49000D02*
X50500D01*
X50750D02*
X52000D01*
X56000D02*
X58000D01*
X55500D02*
X57000D01*
X57250D02*
X58500D01*
D54*
X99000Y115900D02*
X109000D01*
X99000Y55900D02*
Y115900D01*
X109000Y55900D02*
Y115900D01*
X99000Y55900D02*
X109000D01*
X111000Y105900D02*
Y115900D01*
Y105900D02*
X141000D01*
X111000Y115900D02*
X141000D01*
Y105900D02*
Y115900D01*
X111000Y65900D02*
Y75900D01*
Y65900D02*
X141000D01*
X111000Y75900D02*
X141000D01*
Y65900D02*
Y75900D01*
X111000D02*
Y85900D01*
Y75900D02*
X141000D01*
X111000Y85900D02*
X141000D01*
Y75900D02*
Y85900D01*
X111000D02*
Y95900D01*
Y85900D02*
X141000D01*
X111000Y95900D02*
X141000D01*
Y85900D02*
Y95900D01*
X111000D02*
Y105900D01*
Y95900D02*
X141000D01*
X111000Y105900D02*
X141000D01*
Y95900D02*
Y105900D01*
X20297Y107571D02*
Y110130D01*
X1399Y84146D02*
Y114854D01*
X20297Y88870D02*
Y91429D01*
X1500Y59626D02*
Y75374D01*
X18232Y55689D02*
Y57657D01*
Y77343D02*
Y79311D01*
X9374D02*
X18232D01*
X9374Y55689D02*
X18232D01*
X47799Y111126D02*
X49374Y111126D01*
X33626Y111127D02*
X35201Y111127D01*
X33627Y125299D02*
X33627Y126874D01*
X33626Y111127D02*
X33626Y112701D01*
X47799Y126873D02*
X49375Y126873D01*
X33627Y126874D02*
X35201D01*
X49375Y125299D02*
Y126873D01*
X49374Y111126D02*
X49374Y112701D01*
X111000Y55900D02*
Y65900D01*
Y55900D02*
X141000D01*
X111000Y65900D02*
X141000D01*
Y55900D02*
Y65900D01*
X46000Y33000D02*
Y43000D01*
X26000D02*
X46000D01*
X26000Y33000D02*
X46000D01*
X26000D02*
Y43000D01*
X67500Y33000D02*
Y43000D01*
Y33000D02*
X107500D01*
X67500Y43000D02*
X107500D01*
Y33000D02*
Y43000D01*
D55*
X37972Y92461D02*
X47027D01*
X37972Y87539D02*
X47027D01*
Y92461D01*
X37972Y87539D02*
Y92461D01*
D56*
X7900Y138600D02*
X9000D01*
X7900Y119400D02*
X9000D01*
X19000Y138600D02*
X20100D01*
X19000Y119400D02*
X20100D01*
M02*
